M48
; DRILL file {KiCad 5.1.9+dfsg1-1} date Tue May 25 15:53:06 2021
; FORMAT={-:-/ absolute / inch / decimal}
; #@! TF.CreationDate,2021-05-25T15:53:06+02:00
; #@! TF.GenerationSoftware,Kicad,Pcbnew,5.1.9+dfsg1-1
; #@! TF.FileFunction,Plated,1,2,PTH
FMAT,2
INCH
T1C0.0157
T2C0.0394
%
G90
G05
T1
X4.497Y-5.439
X4.504Y-5.31
X4.72Y-5.315
X4.721Y-5.176
X5.08Y-5.299
X5.219Y-4.928
X5.232Y-5.118
X5.243Y-4.089
X5.2455Y-4.7005
X5.273Y-4.859
X5.2741Y-4.4669
X5.435Y-4.922
X5.466Y-5.194
X5.573Y-5.389
T2
X4.42Y-4.25
X4.42Y-4.35
X4.42Y-4.45
X4.42Y-4.55
X4.42Y-4.65
X4.42Y-4.75
X4.42Y-4.85
X4.42Y-4.95
X5.57Y-4.16
X5.57Y-4.26
X5.57Y-4.36
X5.57Y-4.46
X5.57Y-4.56
X5.57Y-4.66
X5.57Y-4.76
X5.57Y-4.86
X5.57Y-4.96
X5.57Y-5.06
T0
M30
