%TF.GenerationSoftware,KiCad,Pcbnew,5.1.9+dfsg1-1*%
%TF.CreationDate,2021-05-25T15:53:09+02:00*%
%TF.ProjectId,i2c-control-interface,6932632d-636f-46e7-9472-6f6c2d696e74,rev?*%
%TF.SameCoordinates,Original*%
%TF.FileFunction,Copper,L2,Bot*%
%TF.FilePolarity,Positive*%
%FSLAX46Y46*%
G04 Gerber Fmt 4.6, Leading zero omitted, Abs format (unit mm)*
G04 Created by KiCad (PCBNEW 5.1.9+dfsg1-1) date 2021-05-25 15:53:09*
%MOMM*%
%LPD*%
G01*
G04 APERTURE LIST*
%TA.AperFunction,ComponentPad*%
%ADD10O,1.700000X1.700000*%
%TD*%
%TA.AperFunction,ComponentPad*%
%ADD11R,1.700000X1.700000*%
%TD*%
%TA.AperFunction,ViaPad*%
%ADD12C,0.800000*%
%TD*%
%TA.AperFunction,Conductor*%
%ADD13C,0.250000*%
%TD*%
%TA.AperFunction,Conductor*%
%ADD14C,0.254000*%
%TD*%
%TA.AperFunction,Conductor*%
%ADD15C,0.100000*%
%TD*%
G04 APERTURE END LIST*
D10*
%TO.P,J2,10*%
%TO.N,GND2*%
X141478000Y-128524000D03*
%TO.P,J2,9*%
X141478000Y-125984000D03*
%TO.P,J2,8*%
%TO.N,VCC*%
X141478000Y-123444000D03*
%TO.P,J2,7*%
%TO.N,/an_power*%
X141478000Y-120904000D03*
%TO.P,J2,6*%
%TO.N,/an_irsensor*%
X141478000Y-118364000D03*
%TO.P,J2,5*%
%TO.N,/an_overtemp*%
X141478000Y-115824000D03*
%TO.P,J2,4*%
%TO.N,/dig_transport*%
X141478000Y-113284000D03*
%TO.P,J2,3*%
%TO.N,/dig_heater*%
X141478000Y-110744000D03*
%TO.P,J2,2*%
%TO.N,/dig_fan*%
X141478000Y-108204000D03*
D11*
%TO.P,J2,1*%
%TO.N,/dig_thermostat*%
X141478000Y-105664000D03*
%TD*%
D10*
%TO.P,J1,8*%
%TO.N,GND1*%
X112268000Y-125730000D03*
%TO.P,J1,7*%
%TO.N,/power*%
X112268000Y-123190000D03*
%TO.P,J1,6*%
%TO.N,/irsensor*%
X112268000Y-120650000D03*
%TO.P,J1,5*%
%TO.N,/overtemp*%
X112268000Y-118110000D03*
%TO.P,J1,4*%
%TO.N,/transport*%
X112268000Y-115570000D03*
%TO.P,J1,3*%
%TO.N,/heater*%
X112268000Y-113030000D03*
%TO.P,J1,2*%
%TO.N,/fan*%
X112268000Y-110490000D03*
D11*
%TO.P,J1,1*%
%TO.N,/thermostat*%
X112268000Y-107950000D03*
%TD*%
D12*
%TO.N,GND1*%
X119913400Y-131470400D03*
X119888000Y-135001000D03*
%TO.N,GND2*%
X132562600Y-125171200D03*
X138836400Y-131927600D03*
X129032000Y-134594600D03*
X141554200Y-136880600D03*
X138049000Y-125018800D03*
X132892800Y-129997200D03*
X133172200Y-103860600D03*
%TO.N,/an_irsensor*%
X114401600Y-134874000D03*
%TO.N,/an_overtemp*%
X114223800Y-138150600D03*
%TO.N,/dig_heater*%
X133934200Y-123418600D03*
X133236499Y-119391901D03*
%TO.N,/dig_fan*%
X133961500Y-113459900D03*
%TD*%
D13*
%TO.N,/an_irsensor*%
X113498799Y-135776801D02*
X114401600Y-134874000D01*
X113498799Y-138498601D02*
X113498799Y-135776801D01*
X113981808Y-138981610D02*
X113498799Y-138498601D01*
X131428200Y-138981610D02*
X113981808Y-138981610D01*
X135109210Y-135300600D02*
X131428200Y-138981610D01*
X135109210Y-124732790D02*
X135109210Y-135300600D01*
X141478000Y-118364000D02*
X135109210Y-124732790D01*
%TO.N,/an_overtemp*%
X134659201Y-122642799D02*
X134659201Y-135114199D01*
X141478000Y-115824000D02*
X134659201Y-122642799D01*
X134659201Y-135114199D02*
X131241800Y-138531600D01*
X114604800Y-138531600D02*
X114223800Y-138150600D01*
X131241800Y-138531600D02*
X114604800Y-138531600D01*
%TO.N,/dig_heater*%
X133236499Y-122720899D02*
X133236499Y-119391901D01*
X133934200Y-123418600D02*
X133236499Y-122720899D01*
X133236499Y-116191501D02*
X135636000Y-113792000D01*
X135636000Y-113792000D02*
X135636000Y-111480600D01*
X136372600Y-110744000D02*
X141478000Y-110744000D01*
X135636000Y-111480600D02*
X136372600Y-110744000D01*
X133236499Y-119391901D02*
X133236499Y-116191501D01*
%TO.N,/dig_fan*%
X133961500Y-113459900D02*
X133961500Y-109345100D01*
X135102600Y-108204000D02*
X141478000Y-108204000D01*
X133961500Y-109345100D02*
X135102600Y-108204000D01*
%TD*%
D14*
%TO.N,GND2*%
X143340000Y-140340000D02*
X128577186Y-140340000D01*
X128580022Y-139741610D01*
X131390878Y-139741610D01*
X131428200Y-139745286D01*
X131465522Y-139741610D01*
X131465533Y-139741610D01*
X131577186Y-139730613D01*
X131720447Y-139687156D01*
X131852476Y-139616584D01*
X131968201Y-139521611D01*
X131992004Y-139492607D01*
X135620213Y-135864399D01*
X135649211Y-135840601D01*
X135744184Y-135724876D01*
X135814756Y-135592847D01*
X135858213Y-135449586D01*
X135869210Y-135337933D01*
X135869210Y-135337924D01*
X135872886Y-135300601D01*
X135869210Y-135263278D01*
X135869210Y-128880890D01*
X140036524Y-128880890D01*
X140081175Y-129028099D01*
X140206359Y-129290920D01*
X140380412Y-129524269D01*
X140596645Y-129719178D01*
X140846748Y-129868157D01*
X141121109Y-129965481D01*
X141351000Y-129844814D01*
X141351000Y-128651000D01*
X141605000Y-128651000D01*
X141605000Y-129844814D01*
X141834891Y-129965481D01*
X142109252Y-129868157D01*
X142359355Y-129719178D01*
X142575588Y-129524269D01*
X142749641Y-129290920D01*
X142874825Y-129028099D01*
X142919476Y-128880890D01*
X142798155Y-128651000D01*
X141605000Y-128651000D01*
X141351000Y-128651000D01*
X140157845Y-128651000D01*
X140036524Y-128880890D01*
X135869210Y-128880890D01*
X135869210Y-126340890D01*
X140036524Y-126340890D01*
X140081175Y-126488099D01*
X140206359Y-126750920D01*
X140380412Y-126984269D01*
X140596645Y-127179178D01*
X140722255Y-127254000D01*
X140596645Y-127328822D01*
X140380412Y-127523731D01*
X140206359Y-127757080D01*
X140081175Y-128019901D01*
X140036524Y-128167110D01*
X140157845Y-128397000D01*
X141351000Y-128397000D01*
X141351000Y-126111000D01*
X141605000Y-126111000D01*
X141605000Y-128397000D01*
X142798155Y-128397000D01*
X142919476Y-128167110D01*
X142874825Y-128019901D01*
X142749641Y-127757080D01*
X142575588Y-127523731D01*
X142359355Y-127328822D01*
X142233745Y-127254000D01*
X142359355Y-127179178D01*
X142575588Y-126984269D01*
X142749641Y-126750920D01*
X142874825Y-126488099D01*
X142919476Y-126340890D01*
X142798155Y-126111000D01*
X141605000Y-126111000D01*
X141351000Y-126111000D01*
X140157845Y-126111000D01*
X140036524Y-126340890D01*
X135869210Y-126340890D01*
X135869210Y-125047591D01*
X139993000Y-120923802D01*
X139993000Y-121050260D01*
X140050068Y-121337158D01*
X140162010Y-121607411D01*
X140324525Y-121850632D01*
X140531368Y-122057475D01*
X140705760Y-122174000D01*
X140531368Y-122290525D01*
X140324525Y-122497368D01*
X140162010Y-122740589D01*
X140050068Y-123010842D01*
X139993000Y-123297740D01*
X139993000Y-123590260D01*
X140050068Y-123877158D01*
X140162010Y-124147411D01*
X140324525Y-124390632D01*
X140531368Y-124597475D01*
X140713534Y-124719195D01*
X140596645Y-124788822D01*
X140380412Y-124983731D01*
X140206359Y-125217080D01*
X140081175Y-125479901D01*
X140036524Y-125627110D01*
X140157845Y-125857000D01*
X141351000Y-125857000D01*
X141351000Y-125837000D01*
X141605000Y-125837000D01*
X141605000Y-125857000D01*
X142798155Y-125857000D01*
X142919476Y-125627110D01*
X142874825Y-125479901D01*
X142749641Y-125217080D01*
X142575588Y-124983731D01*
X142359355Y-124788822D01*
X142242466Y-124719195D01*
X142424632Y-124597475D01*
X142631475Y-124390632D01*
X142793990Y-124147411D01*
X142905932Y-123877158D01*
X142963000Y-123590260D01*
X142963000Y-123297740D01*
X142905932Y-123010842D01*
X142793990Y-122740589D01*
X142631475Y-122497368D01*
X142424632Y-122290525D01*
X142250240Y-122174000D01*
X142424632Y-122057475D01*
X142631475Y-121850632D01*
X142793990Y-121607411D01*
X142905932Y-121337158D01*
X142963000Y-121050260D01*
X142963000Y-120757740D01*
X142905932Y-120470842D01*
X142793990Y-120200589D01*
X142631475Y-119957368D01*
X142424632Y-119750525D01*
X142250240Y-119634000D01*
X142424632Y-119517475D01*
X142631475Y-119310632D01*
X142793990Y-119067411D01*
X142905932Y-118797158D01*
X142963000Y-118510260D01*
X142963000Y-118217740D01*
X142905932Y-117930842D01*
X142793990Y-117660589D01*
X142631475Y-117417368D01*
X142424632Y-117210525D01*
X142250240Y-117094000D01*
X142424632Y-116977475D01*
X142631475Y-116770632D01*
X142793990Y-116527411D01*
X142905932Y-116257158D01*
X142963000Y-115970260D01*
X142963000Y-115677740D01*
X142905932Y-115390842D01*
X142793990Y-115120589D01*
X142631475Y-114877368D01*
X142424632Y-114670525D01*
X142250240Y-114554000D01*
X142424632Y-114437475D01*
X142631475Y-114230632D01*
X142793990Y-113987411D01*
X142905932Y-113717158D01*
X142963000Y-113430260D01*
X142963000Y-113137740D01*
X142905932Y-112850842D01*
X142793990Y-112580589D01*
X142631475Y-112337368D01*
X142424632Y-112130525D01*
X142250240Y-112014000D01*
X142424632Y-111897475D01*
X142631475Y-111690632D01*
X142793990Y-111447411D01*
X142905932Y-111177158D01*
X142963000Y-110890260D01*
X142963000Y-110597740D01*
X142905932Y-110310842D01*
X142793990Y-110040589D01*
X142631475Y-109797368D01*
X142424632Y-109590525D01*
X142250240Y-109474000D01*
X142424632Y-109357475D01*
X142631475Y-109150632D01*
X142793990Y-108907411D01*
X142905932Y-108637158D01*
X142963000Y-108350260D01*
X142963000Y-108057740D01*
X142905932Y-107770842D01*
X142793990Y-107500589D01*
X142631475Y-107257368D01*
X142499620Y-107125513D01*
X142572180Y-107103502D01*
X142682494Y-107044537D01*
X142779185Y-106965185D01*
X142858537Y-106868494D01*
X142917502Y-106758180D01*
X142953812Y-106638482D01*
X142966072Y-106514000D01*
X142966072Y-104814000D01*
X142953812Y-104689518D01*
X142917502Y-104569820D01*
X142858537Y-104459506D01*
X142779185Y-104362815D01*
X142682494Y-104283463D01*
X142572180Y-104224498D01*
X142452482Y-104188188D01*
X142328000Y-104175928D01*
X140628000Y-104175928D01*
X140503518Y-104188188D01*
X140383820Y-104224498D01*
X140273506Y-104283463D01*
X140176815Y-104362815D01*
X140097463Y-104459506D01*
X140038498Y-104569820D01*
X140002188Y-104689518D01*
X139989928Y-104814000D01*
X139989928Y-106514000D01*
X140002188Y-106638482D01*
X140038498Y-106758180D01*
X140097463Y-106868494D01*
X140176815Y-106965185D01*
X140273506Y-107044537D01*
X140383820Y-107103502D01*
X140456380Y-107125513D01*
X140324525Y-107257368D01*
X140199822Y-107444000D01*
X135139922Y-107444000D01*
X135102599Y-107440324D01*
X135065276Y-107444000D01*
X135065267Y-107444000D01*
X134953614Y-107454997D01*
X134810353Y-107498454D01*
X134678323Y-107569026D01*
X134594683Y-107637668D01*
X134562599Y-107663999D01*
X134538801Y-107692997D01*
X133450498Y-108781301D01*
X133421500Y-108805099D01*
X133397702Y-108834097D01*
X133397701Y-108834098D01*
X133326526Y-108920824D01*
X133255954Y-109052854D01*
X133212498Y-109196115D01*
X133197824Y-109345100D01*
X133201501Y-109382432D01*
X133201500Y-112756189D01*
X133157563Y-112800126D01*
X133044295Y-112969644D01*
X132966274Y-113158002D01*
X132926500Y-113357961D01*
X132926500Y-113561839D01*
X132966274Y-113761798D01*
X133044295Y-113950156D01*
X133157563Y-114119674D01*
X133301726Y-114263837D01*
X133471244Y-114377105D01*
X133659602Y-114455126D01*
X133858508Y-114494691D01*
X132725497Y-115627702D01*
X132696499Y-115651500D01*
X132672701Y-115680498D01*
X132672700Y-115680499D01*
X132601525Y-115767225D01*
X132530953Y-115899255D01*
X132487497Y-116042516D01*
X132472823Y-116191501D01*
X132476500Y-116228833D01*
X132476499Y-118688190D01*
X132432562Y-118732127D01*
X132319294Y-118901645D01*
X132241273Y-119090003D01*
X132201499Y-119289962D01*
X132201499Y-119493840D01*
X132241273Y-119693799D01*
X132319294Y-119882157D01*
X132432562Y-120051675D01*
X132476500Y-120095613D01*
X132476499Y-122683576D01*
X132472823Y-122720899D01*
X132476499Y-122758221D01*
X132476499Y-122758231D01*
X132487496Y-122869884D01*
X132525244Y-122994323D01*
X132530953Y-123013145D01*
X132601525Y-123145175D01*
X132641370Y-123193725D01*
X132696498Y-123260900D01*
X132725501Y-123284702D01*
X132899200Y-123458401D01*
X132899200Y-123520539D01*
X132938974Y-123720498D01*
X133016995Y-123908856D01*
X133130263Y-124078374D01*
X133274426Y-124222537D01*
X133443944Y-124335805D01*
X133632302Y-124413826D01*
X133832261Y-124453600D01*
X133899201Y-124453600D01*
X133899202Y-134799396D01*
X130926999Y-137771600D01*
X128589358Y-137771600D01*
X128774721Y-98660000D01*
X143340001Y-98660000D01*
X143340000Y-140340000D01*
%TA.AperFunction,Conductor*%
D15*
G36*
X143340000Y-140340000D02*
G01*
X128577186Y-140340000D01*
X128580022Y-139741610D01*
X131390878Y-139741610D01*
X131428200Y-139745286D01*
X131465522Y-139741610D01*
X131465533Y-139741610D01*
X131577186Y-139730613D01*
X131720447Y-139687156D01*
X131852476Y-139616584D01*
X131968201Y-139521611D01*
X131992004Y-139492607D01*
X135620213Y-135864399D01*
X135649211Y-135840601D01*
X135744184Y-135724876D01*
X135814756Y-135592847D01*
X135858213Y-135449586D01*
X135869210Y-135337933D01*
X135869210Y-135337924D01*
X135872886Y-135300601D01*
X135869210Y-135263278D01*
X135869210Y-128880890D01*
X140036524Y-128880890D01*
X140081175Y-129028099D01*
X140206359Y-129290920D01*
X140380412Y-129524269D01*
X140596645Y-129719178D01*
X140846748Y-129868157D01*
X141121109Y-129965481D01*
X141351000Y-129844814D01*
X141351000Y-128651000D01*
X141605000Y-128651000D01*
X141605000Y-129844814D01*
X141834891Y-129965481D01*
X142109252Y-129868157D01*
X142359355Y-129719178D01*
X142575588Y-129524269D01*
X142749641Y-129290920D01*
X142874825Y-129028099D01*
X142919476Y-128880890D01*
X142798155Y-128651000D01*
X141605000Y-128651000D01*
X141351000Y-128651000D01*
X140157845Y-128651000D01*
X140036524Y-128880890D01*
X135869210Y-128880890D01*
X135869210Y-126340890D01*
X140036524Y-126340890D01*
X140081175Y-126488099D01*
X140206359Y-126750920D01*
X140380412Y-126984269D01*
X140596645Y-127179178D01*
X140722255Y-127254000D01*
X140596645Y-127328822D01*
X140380412Y-127523731D01*
X140206359Y-127757080D01*
X140081175Y-128019901D01*
X140036524Y-128167110D01*
X140157845Y-128397000D01*
X141351000Y-128397000D01*
X141351000Y-126111000D01*
X141605000Y-126111000D01*
X141605000Y-128397000D01*
X142798155Y-128397000D01*
X142919476Y-128167110D01*
X142874825Y-128019901D01*
X142749641Y-127757080D01*
X142575588Y-127523731D01*
X142359355Y-127328822D01*
X142233745Y-127254000D01*
X142359355Y-127179178D01*
X142575588Y-126984269D01*
X142749641Y-126750920D01*
X142874825Y-126488099D01*
X142919476Y-126340890D01*
X142798155Y-126111000D01*
X141605000Y-126111000D01*
X141351000Y-126111000D01*
X140157845Y-126111000D01*
X140036524Y-126340890D01*
X135869210Y-126340890D01*
X135869210Y-125047591D01*
X139993000Y-120923802D01*
X139993000Y-121050260D01*
X140050068Y-121337158D01*
X140162010Y-121607411D01*
X140324525Y-121850632D01*
X140531368Y-122057475D01*
X140705760Y-122174000D01*
X140531368Y-122290525D01*
X140324525Y-122497368D01*
X140162010Y-122740589D01*
X140050068Y-123010842D01*
X139993000Y-123297740D01*
X139993000Y-123590260D01*
X140050068Y-123877158D01*
X140162010Y-124147411D01*
X140324525Y-124390632D01*
X140531368Y-124597475D01*
X140713534Y-124719195D01*
X140596645Y-124788822D01*
X140380412Y-124983731D01*
X140206359Y-125217080D01*
X140081175Y-125479901D01*
X140036524Y-125627110D01*
X140157845Y-125857000D01*
X141351000Y-125857000D01*
X141351000Y-125837000D01*
X141605000Y-125837000D01*
X141605000Y-125857000D01*
X142798155Y-125857000D01*
X142919476Y-125627110D01*
X142874825Y-125479901D01*
X142749641Y-125217080D01*
X142575588Y-124983731D01*
X142359355Y-124788822D01*
X142242466Y-124719195D01*
X142424632Y-124597475D01*
X142631475Y-124390632D01*
X142793990Y-124147411D01*
X142905932Y-123877158D01*
X142963000Y-123590260D01*
X142963000Y-123297740D01*
X142905932Y-123010842D01*
X142793990Y-122740589D01*
X142631475Y-122497368D01*
X142424632Y-122290525D01*
X142250240Y-122174000D01*
X142424632Y-122057475D01*
X142631475Y-121850632D01*
X142793990Y-121607411D01*
X142905932Y-121337158D01*
X142963000Y-121050260D01*
X142963000Y-120757740D01*
X142905932Y-120470842D01*
X142793990Y-120200589D01*
X142631475Y-119957368D01*
X142424632Y-119750525D01*
X142250240Y-119634000D01*
X142424632Y-119517475D01*
X142631475Y-119310632D01*
X142793990Y-119067411D01*
X142905932Y-118797158D01*
X142963000Y-118510260D01*
X142963000Y-118217740D01*
X142905932Y-117930842D01*
X142793990Y-117660589D01*
X142631475Y-117417368D01*
X142424632Y-117210525D01*
X142250240Y-117094000D01*
X142424632Y-116977475D01*
X142631475Y-116770632D01*
X142793990Y-116527411D01*
X142905932Y-116257158D01*
X142963000Y-115970260D01*
X142963000Y-115677740D01*
X142905932Y-115390842D01*
X142793990Y-115120589D01*
X142631475Y-114877368D01*
X142424632Y-114670525D01*
X142250240Y-114554000D01*
X142424632Y-114437475D01*
X142631475Y-114230632D01*
X142793990Y-113987411D01*
X142905932Y-113717158D01*
X142963000Y-113430260D01*
X142963000Y-113137740D01*
X142905932Y-112850842D01*
X142793990Y-112580589D01*
X142631475Y-112337368D01*
X142424632Y-112130525D01*
X142250240Y-112014000D01*
X142424632Y-111897475D01*
X142631475Y-111690632D01*
X142793990Y-111447411D01*
X142905932Y-111177158D01*
X142963000Y-110890260D01*
X142963000Y-110597740D01*
X142905932Y-110310842D01*
X142793990Y-110040589D01*
X142631475Y-109797368D01*
X142424632Y-109590525D01*
X142250240Y-109474000D01*
X142424632Y-109357475D01*
X142631475Y-109150632D01*
X142793990Y-108907411D01*
X142905932Y-108637158D01*
X142963000Y-108350260D01*
X142963000Y-108057740D01*
X142905932Y-107770842D01*
X142793990Y-107500589D01*
X142631475Y-107257368D01*
X142499620Y-107125513D01*
X142572180Y-107103502D01*
X142682494Y-107044537D01*
X142779185Y-106965185D01*
X142858537Y-106868494D01*
X142917502Y-106758180D01*
X142953812Y-106638482D01*
X142966072Y-106514000D01*
X142966072Y-104814000D01*
X142953812Y-104689518D01*
X142917502Y-104569820D01*
X142858537Y-104459506D01*
X142779185Y-104362815D01*
X142682494Y-104283463D01*
X142572180Y-104224498D01*
X142452482Y-104188188D01*
X142328000Y-104175928D01*
X140628000Y-104175928D01*
X140503518Y-104188188D01*
X140383820Y-104224498D01*
X140273506Y-104283463D01*
X140176815Y-104362815D01*
X140097463Y-104459506D01*
X140038498Y-104569820D01*
X140002188Y-104689518D01*
X139989928Y-104814000D01*
X139989928Y-106514000D01*
X140002188Y-106638482D01*
X140038498Y-106758180D01*
X140097463Y-106868494D01*
X140176815Y-106965185D01*
X140273506Y-107044537D01*
X140383820Y-107103502D01*
X140456380Y-107125513D01*
X140324525Y-107257368D01*
X140199822Y-107444000D01*
X135139922Y-107444000D01*
X135102599Y-107440324D01*
X135065276Y-107444000D01*
X135065267Y-107444000D01*
X134953614Y-107454997D01*
X134810353Y-107498454D01*
X134678323Y-107569026D01*
X134594683Y-107637668D01*
X134562599Y-107663999D01*
X134538801Y-107692997D01*
X133450498Y-108781301D01*
X133421500Y-108805099D01*
X133397702Y-108834097D01*
X133397701Y-108834098D01*
X133326526Y-108920824D01*
X133255954Y-109052854D01*
X133212498Y-109196115D01*
X133197824Y-109345100D01*
X133201501Y-109382432D01*
X133201500Y-112756189D01*
X133157563Y-112800126D01*
X133044295Y-112969644D01*
X132966274Y-113158002D01*
X132926500Y-113357961D01*
X132926500Y-113561839D01*
X132966274Y-113761798D01*
X133044295Y-113950156D01*
X133157563Y-114119674D01*
X133301726Y-114263837D01*
X133471244Y-114377105D01*
X133659602Y-114455126D01*
X133858508Y-114494691D01*
X132725497Y-115627702D01*
X132696499Y-115651500D01*
X132672701Y-115680498D01*
X132672700Y-115680499D01*
X132601525Y-115767225D01*
X132530953Y-115899255D01*
X132487497Y-116042516D01*
X132472823Y-116191501D01*
X132476500Y-116228833D01*
X132476499Y-118688190D01*
X132432562Y-118732127D01*
X132319294Y-118901645D01*
X132241273Y-119090003D01*
X132201499Y-119289962D01*
X132201499Y-119493840D01*
X132241273Y-119693799D01*
X132319294Y-119882157D01*
X132432562Y-120051675D01*
X132476500Y-120095613D01*
X132476499Y-122683576D01*
X132472823Y-122720899D01*
X132476499Y-122758221D01*
X132476499Y-122758231D01*
X132487496Y-122869884D01*
X132525244Y-122994323D01*
X132530953Y-123013145D01*
X132601525Y-123145175D01*
X132641370Y-123193725D01*
X132696498Y-123260900D01*
X132725501Y-123284702D01*
X132899200Y-123458401D01*
X132899200Y-123520539D01*
X132938974Y-123720498D01*
X133016995Y-123908856D01*
X133130263Y-124078374D01*
X133274426Y-124222537D01*
X133443944Y-124335805D01*
X133632302Y-124413826D01*
X133832261Y-124453600D01*
X133899201Y-124453600D01*
X133899202Y-134799396D01*
X130926999Y-137771600D01*
X128589358Y-137771600D01*
X128774721Y-98660000D01*
X143340001Y-98660000D01*
X143340000Y-140340000D01*
G37*
%TD.AperFunction*%
%TD*%
D14*
%TO.N,GND1*%
X126568200Y-137771600D02*
X115187089Y-137771600D01*
X115141005Y-137660344D01*
X115027737Y-137490826D01*
X114883574Y-137346663D01*
X114714056Y-137233395D01*
X114525698Y-137155374D01*
X114325739Y-137115600D01*
X114258799Y-137115600D01*
X114258799Y-136091603D01*
X114441402Y-135909000D01*
X114503539Y-135909000D01*
X114703498Y-135869226D01*
X114891856Y-135791205D01*
X115061374Y-135677937D01*
X115205537Y-135533774D01*
X115318805Y-135364256D01*
X115396826Y-135175898D01*
X115436600Y-134975939D01*
X115436600Y-134772061D01*
X115396826Y-134572102D01*
X115318805Y-134383744D01*
X115205537Y-134214226D01*
X115061374Y-134070063D01*
X114891856Y-133956795D01*
X114703498Y-133878774D01*
X114503539Y-133839000D01*
X114299661Y-133839000D01*
X114099702Y-133878774D01*
X113911344Y-133956795D01*
X113741826Y-134070063D01*
X113597663Y-134214226D01*
X113484395Y-134383744D01*
X113406374Y-134572102D01*
X113366600Y-134772061D01*
X113366600Y-134834198D01*
X112987797Y-135213002D01*
X112958799Y-135236800D01*
X112935001Y-135265798D01*
X112935000Y-135265799D01*
X112863825Y-135352525D01*
X112793253Y-135484555D01*
X112749797Y-135627816D01*
X112735123Y-135776801D01*
X112738800Y-135814133D01*
X112738799Y-138461278D01*
X112735123Y-138498601D01*
X112738799Y-138535923D01*
X112738799Y-138535933D01*
X112749796Y-138647586D01*
X112762469Y-138689363D01*
X112793253Y-138790847D01*
X112863825Y-138922877D01*
X112889808Y-138954537D01*
X112958798Y-139038602D01*
X112987802Y-139062405D01*
X113418004Y-139492607D01*
X113441807Y-139521611D01*
X113514954Y-139581641D01*
X113557531Y-139616584D01*
X113689561Y-139687156D01*
X113832822Y-139730613D01*
X113944475Y-139741610D01*
X113944485Y-139741610D01*
X113981808Y-139745286D01*
X114019131Y-139741610D01*
X126568200Y-139741610D01*
X126568200Y-140340000D01*
X106660000Y-140340000D01*
X106660000Y-126086890D01*
X110826524Y-126086890D01*
X110871175Y-126234099D01*
X110996359Y-126496920D01*
X111170412Y-126730269D01*
X111386645Y-126925178D01*
X111636748Y-127074157D01*
X111911109Y-127171481D01*
X112141000Y-127050814D01*
X112141000Y-125857000D01*
X112395000Y-125857000D01*
X112395000Y-127050814D01*
X112624891Y-127171481D01*
X112899252Y-127074157D01*
X113149355Y-126925178D01*
X113365588Y-126730269D01*
X113539641Y-126496920D01*
X113664825Y-126234099D01*
X113709476Y-126086890D01*
X113588155Y-125857000D01*
X112395000Y-125857000D01*
X112141000Y-125857000D01*
X110947845Y-125857000D01*
X110826524Y-126086890D01*
X106660000Y-126086890D01*
X106660000Y-107100000D01*
X110779928Y-107100000D01*
X110779928Y-108800000D01*
X110792188Y-108924482D01*
X110828498Y-109044180D01*
X110887463Y-109154494D01*
X110966815Y-109251185D01*
X111063506Y-109330537D01*
X111173820Y-109389502D01*
X111246380Y-109411513D01*
X111114525Y-109543368D01*
X110952010Y-109786589D01*
X110840068Y-110056842D01*
X110783000Y-110343740D01*
X110783000Y-110636260D01*
X110840068Y-110923158D01*
X110952010Y-111193411D01*
X111114525Y-111436632D01*
X111321368Y-111643475D01*
X111495760Y-111760000D01*
X111321368Y-111876525D01*
X111114525Y-112083368D01*
X110952010Y-112326589D01*
X110840068Y-112596842D01*
X110783000Y-112883740D01*
X110783000Y-113176260D01*
X110840068Y-113463158D01*
X110952010Y-113733411D01*
X111114525Y-113976632D01*
X111321368Y-114183475D01*
X111495760Y-114300000D01*
X111321368Y-114416525D01*
X111114525Y-114623368D01*
X110952010Y-114866589D01*
X110840068Y-115136842D01*
X110783000Y-115423740D01*
X110783000Y-115716260D01*
X110840068Y-116003158D01*
X110952010Y-116273411D01*
X111114525Y-116516632D01*
X111321368Y-116723475D01*
X111495760Y-116840000D01*
X111321368Y-116956525D01*
X111114525Y-117163368D01*
X110952010Y-117406589D01*
X110840068Y-117676842D01*
X110783000Y-117963740D01*
X110783000Y-118256260D01*
X110840068Y-118543158D01*
X110952010Y-118813411D01*
X111114525Y-119056632D01*
X111321368Y-119263475D01*
X111495760Y-119380000D01*
X111321368Y-119496525D01*
X111114525Y-119703368D01*
X110952010Y-119946589D01*
X110840068Y-120216842D01*
X110783000Y-120503740D01*
X110783000Y-120796260D01*
X110840068Y-121083158D01*
X110952010Y-121353411D01*
X111114525Y-121596632D01*
X111321368Y-121803475D01*
X111495760Y-121920000D01*
X111321368Y-122036525D01*
X111114525Y-122243368D01*
X110952010Y-122486589D01*
X110840068Y-122756842D01*
X110783000Y-123043740D01*
X110783000Y-123336260D01*
X110840068Y-123623158D01*
X110952010Y-123893411D01*
X111114525Y-124136632D01*
X111321368Y-124343475D01*
X111503534Y-124465195D01*
X111386645Y-124534822D01*
X111170412Y-124729731D01*
X110996359Y-124963080D01*
X110871175Y-125225901D01*
X110826524Y-125373110D01*
X110947845Y-125603000D01*
X112141000Y-125603000D01*
X112141000Y-125583000D01*
X112395000Y-125583000D01*
X112395000Y-125603000D01*
X113588155Y-125603000D01*
X113709476Y-125373110D01*
X113664825Y-125225901D01*
X113539641Y-124963080D01*
X113365588Y-124729731D01*
X113149355Y-124534822D01*
X113032466Y-124465195D01*
X113214632Y-124343475D01*
X113421475Y-124136632D01*
X113583990Y-123893411D01*
X113695932Y-123623158D01*
X113753000Y-123336260D01*
X113753000Y-123043740D01*
X113695932Y-122756842D01*
X113583990Y-122486589D01*
X113421475Y-122243368D01*
X113214632Y-122036525D01*
X113040240Y-121920000D01*
X113214632Y-121803475D01*
X113421475Y-121596632D01*
X113583990Y-121353411D01*
X113695932Y-121083158D01*
X113753000Y-120796260D01*
X113753000Y-120503740D01*
X113695932Y-120216842D01*
X113583990Y-119946589D01*
X113421475Y-119703368D01*
X113214632Y-119496525D01*
X113040240Y-119380000D01*
X113214632Y-119263475D01*
X113421475Y-119056632D01*
X113583990Y-118813411D01*
X113695932Y-118543158D01*
X113753000Y-118256260D01*
X113753000Y-117963740D01*
X113695932Y-117676842D01*
X113583990Y-117406589D01*
X113421475Y-117163368D01*
X113214632Y-116956525D01*
X113040240Y-116840000D01*
X113214632Y-116723475D01*
X113421475Y-116516632D01*
X113583990Y-116273411D01*
X113695932Y-116003158D01*
X113753000Y-115716260D01*
X113753000Y-115423740D01*
X113695932Y-115136842D01*
X113583990Y-114866589D01*
X113421475Y-114623368D01*
X113214632Y-114416525D01*
X113040240Y-114300000D01*
X113214632Y-114183475D01*
X113421475Y-113976632D01*
X113583990Y-113733411D01*
X113695932Y-113463158D01*
X113753000Y-113176260D01*
X113753000Y-112883740D01*
X113695932Y-112596842D01*
X113583990Y-112326589D01*
X113421475Y-112083368D01*
X113214632Y-111876525D01*
X113040240Y-111760000D01*
X113214632Y-111643475D01*
X113421475Y-111436632D01*
X113583990Y-111193411D01*
X113695932Y-110923158D01*
X113753000Y-110636260D01*
X113753000Y-110343740D01*
X113695932Y-110056842D01*
X113583990Y-109786589D01*
X113421475Y-109543368D01*
X113289620Y-109411513D01*
X113362180Y-109389502D01*
X113472494Y-109330537D01*
X113569185Y-109251185D01*
X113648537Y-109154494D01*
X113707502Y-109044180D01*
X113743812Y-108924482D01*
X113756072Y-108800000D01*
X113756072Y-107100000D01*
X113743812Y-106975518D01*
X113707502Y-106855820D01*
X113648537Y-106745506D01*
X113569185Y-106648815D01*
X113472494Y-106569463D01*
X113362180Y-106510498D01*
X113242482Y-106474188D01*
X113118000Y-106461928D01*
X111418000Y-106461928D01*
X111293518Y-106474188D01*
X111173820Y-106510498D01*
X111063506Y-106569463D01*
X110966815Y-106648815D01*
X110887463Y-106745506D01*
X110828498Y-106855820D01*
X110792188Y-106975518D01*
X110779928Y-107100000D01*
X106660000Y-107100000D01*
X106660000Y-98660000D01*
X126568200Y-98660000D01*
X126568200Y-137771600D01*
%TA.AperFunction,Conductor*%
D15*
G36*
X126568200Y-137771600D02*
G01*
X115187089Y-137771600D01*
X115141005Y-137660344D01*
X115027737Y-137490826D01*
X114883574Y-137346663D01*
X114714056Y-137233395D01*
X114525698Y-137155374D01*
X114325739Y-137115600D01*
X114258799Y-137115600D01*
X114258799Y-136091603D01*
X114441402Y-135909000D01*
X114503539Y-135909000D01*
X114703498Y-135869226D01*
X114891856Y-135791205D01*
X115061374Y-135677937D01*
X115205537Y-135533774D01*
X115318805Y-135364256D01*
X115396826Y-135175898D01*
X115436600Y-134975939D01*
X115436600Y-134772061D01*
X115396826Y-134572102D01*
X115318805Y-134383744D01*
X115205537Y-134214226D01*
X115061374Y-134070063D01*
X114891856Y-133956795D01*
X114703498Y-133878774D01*
X114503539Y-133839000D01*
X114299661Y-133839000D01*
X114099702Y-133878774D01*
X113911344Y-133956795D01*
X113741826Y-134070063D01*
X113597663Y-134214226D01*
X113484395Y-134383744D01*
X113406374Y-134572102D01*
X113366600Y-134772061D01*
X113366600Y-134834198D01*
X112987797Y-135213002D01*
X112958799Y-135236800D01*
X112935001Y-135265798D01*
X112935000Y-135265799D01*
X112863825Y-135352525D01*
X112793253Y-135484555D01*
X112749797Y-135627816D01*
X112735123Y-135776801D01*
X112738800Y-135814133D01*
X112738799Y-138461278D01*
X112735123Y-138498601D01*
X112738799Y-138535923D01*
X112738799Y-138535933D01*
X112749796Y-138647586D01*
X112762469Y-138689363D01*
X112793253Y-138790847D01*
X112863825Y-138922877D01*
X112889808Y-138954537D01*
X112958798Y-139038602D01*
X112987802Y-139062405D01*
X113418004Y-139492607D01*
X113441807Y-139521611D01*
X113514954Y-139581641D01*
X113557531Y-139616584D01*
X113689561Y-139687156D01*
X113832822Y-139730613D01*
X113944475Y-139741610D01*
X113944485Y-139741610D01*
X113981808Y-139745286D01*
X114019131Y-139741610D01*
X126568200Y-139741610D01*
X126568200Y-140340000D01*
X106660000Y-140340000D01*
X106660000Y-126086890D01*
X110826524Y-126086890D01*
X110871175Y-126234099D01*
X110996359Y-126496920D01*
X111170412Y-126730269D01*
X111386645Y-126925178D01*
X111636748Y-127074157D01*
X111911109Y-127171481D01*
X112141000Y-127050814D01*
X112141000Y-125857000D01*
X112395000Y-125857000D01*
X112395000Y-127050814D01*
X112624891Y-127171481D01*
X112899252Y-127074157D01*
X113149355Y-126925178D01*
X113365588Y-126730269D01*
X113539641Y-126496920D01*
X113664825Y-126234099D01*
X113709476Y-126086890D01*
X113588155Y-125857000D01*
X112395000Y-125857000D01*
X112141000Y-125857000D01*
X110947845Y-125857000D01*
X110826524Y-126086890D01*
X106660000Y-126086890D01*
X106660000Y-107100000D01*
X110779928Y-107100000D01*
X110779928Y-108800000D01*
X110792188Y-108924482D01*
X110828498Y-109044180D01*
X110887463Y-109154494D01*
X110966815Y-109251185D01*
X111063506Y-109330537D01*
X111173820Y-109389502D01*
X111246380Y-109411513D01*
X111114525Y-109543368D01*
X110952010Y-109786589D01*
X110840068Y-110056842D01*
X110783000Y-110343740D01*
X110783000Y-110636260D01*
X110840068Y-110923158D01*
X110952010Y-111193411D01*
X111114525Y-111436632D01*
X111321368Y-111643475D01*
X111495760Y-111760000D01*
X111321368Y-111876525D01*
X111114525Y-112083368D01*
X110952010Y-112326589D01*
X110840068Y-112596842D01*
X110783000Y-112883740D01*
X110783000Y-113176260D01*
X110840068Y-113463158D01*
X110952010Y-113733411D01*
X111114525Y-113976632D01*
X111321368Y-114183475D01*
X111495760Y-114300000D01*
X111321368Y-114416525D01*
X111114525Y-114623368D01*
X110952010Y-114866589D01*
X110840068Y-115136842D01*
X110783000Y-115423740D01*
X110783000Y-115716260D01*
X110840068Y-116003158D01*
X110952010Y-116273411D01*
X111114525Y-116516632D01*
X111321368Y-116723475D01*
X111495760Y-116840000D01*
X111321368Y-116956525D01*
X111114525Y-117163368D01*
X110952010Y-117406589D01*
X110840068Y-117676842D01*
X110783000Y-117963740D01*
X110783000Y-118256260D01*
X110840068Y-118543158D01*
X110952010Y-118813411D01*
X111114525Y-119056632D01*
X111321368Y-119263475D01*
X111495760Y-119380000D01*
X111321368Y-119496525D01*
X111114525Y-119703368D01*
X110952010Y-119946589D01*
X110840068Y-120216842D01*
X110783000Y-120503740D01*
X110783000Y-120796260D01*
X110840068Y-121083158D01*
X110952010Y-121353411D01*
X111114525Y-121596632D01*
X111321368Y-121803475D01*
X111495760Y-121920000D01*
X111321368Y-122036525D01*
X111114525Y-122243368D01*
X110952010Y-122486589D01*
X110840068Y-122756842D01*
X110783000Y-123043740D01*
X110783000Y-123336260D01*
X110840068Y-123623158D01*
X110952010Y-123893411D01*
X111114525Y-124136632D01*
X111321368Y-124343475D01*
X111503534Y-124465195D01*
X111386645Y-124534822D01*
X111170412Y-124729731D01*
X110996359Y-124963080D01*
X110871175Y-125225901D01*
X110826524Y-125373110D01*
X110947845Y-125603000D01*
X112141000Y-125603000D01*
X112141000Y-125583000D01*
X112395000Y-125583000D01*
X112395000Y-125603000D01*
X113588155Y-125603000D01*
X113709476Y-125373110D01*
X113664825Y-125225901D01*
X113539641Y-124963080D01*
X113365588Y-124729731D01*
X113149355Y-124534822D01*
X113032466Y-124465195D01*
X113214632Y-124343475D01*
X113421475Y-124136632D01*
X113583990Y-123893411D01*
X113695932Y-123623158D01*
X113753000Y-123336260D01*
X113753000Y-123043740D01*
X113695932Y-122756842D01*
X113583990Y-122486589D01*
X113421475Y-122243368D01*
X113214632Y-122036525D01*
X113040240Y-121920000D01*
X113214632Y-121803475D01*
X113421475Y-121596632D01*
X113583990Y-121353411D01*
X113695932Y-121083158D01*
X113753000Y-120796260D01*
X113753000Y-120503740D01*
X113695932Y-120216842D01*
X113583990Y-119946589D01*
X113421475Y-119703368D01*
X113214632Y-119496525D01*
X113040240Y-119380000D01*
X113214632Y-119263475D01*
X113421475Y-119056632D01*
X113583990Y-118813411D01*
X113695932Y-118543158D01*
X113753000Y-118256260D01*
X113753000Y-117963740D01*
X113695932Y-117676842D01*
X113583990Y-117406589D01*
X113421475Y-117163368D01*
X113214632Y-116956525D01*
X113040240Y-116840000D01*
X113214632Y-116723475D01*
X113421475Y-116516632D01*
X113583990Y-116273411D01*
X113695932Y-116003158D01*
X113753000Y-115716260D01*
X113753000Y-115423740D01*
X113695932Y-115136842D01*
X113583990Y-114866589D01*
X113421475Y-114623368D01*
X113214632Y-114416525D01*
X113040240Y-114300000D01*
X113214632Y-114183475D01*
X113421475Y-113976632D01*
X113583990Y-113733411D01*
X113695932Y-113463158D01*
X113753000Y-113176260D01*
X113753000Y-112883740D01*
X113695932Y-112596842D01*
X113583990Y-112326589D01*
X113421475Y-112083368D01*
X113214632Y-111876525D01*
X113040240Y-111760000D01*
X113214632Y-111643475D01*
X113421475Y-111436632D01*
X113583990Y-111193411D01*
X113695932Y-110923158D01*
X113753000Y-110636260D01*
X113753000Y-110343740D01*
X113695932Y-110056842D01*
X113583990Y-109786589D01*
X113421475Y-109543368D01*
X113289620Y-109411513D01*
X113362180Y-109389502D01*
X113472494Y-109330537D01*
X113569185Y-109251185D01*
X113648537Y-109154494D01*
X113707502Y-109044180D01*
X113743812Y-108924482D01*
X113756072Y-108800000D01*
X113756072Y-107100000D01*
X113743812Y-106975518D01*
X113707502Y-106855820D01*
X113648537Y-106745506D01*
X113569185Y-106648815D01*
X113472494Y-106569463D01*
X113362180Y-106510498D01*
X113242482Y-106474188D01*
X113118000Y-106461928D01*
X111418000Y-106461928D01*
X111293518Y-106474188D01*
X111173820Y-106510498D01*
X111063506Y-106569463D01*
X110966815Y-106648815D01*
X110887463Y-106745506D01*
X110828498Y-106855820D01*
X110792188Y-106975518D01*
X110779928Y-107100000D01*
X106660000Y-107100000D01*
X106660000Y-98660000D01*
X126568200Y-98660000D01*
X126568200Y-137771600D01*
G37*
%TD.AperFunction*%
%TD*%
M02*
