%TF.GenerationSoftware,KiCad,Pcbnew,5.1.9+dfsg1-1*%
%TF.CreationDate,2021-05-25T15:53:09+02:00*%
%TF.ProjectId,i2c-control-interface,6932632d-636f-46e7-9472-6f6c2d696e74,rev?*%
%TF.SameCoordinates,Original*%
%TF.FileFunction,Copper,L1,Top*%
%TF.FilePolarity,Positive*%
%FSLAX46Y46*%
G04 Gerber Fmt 4.6, Leading zero omitted, Abs format (unit mm)*
G04 Created by KiCad (PCBNEW 5.1.9+dfsg1-1) date 2021-05-25 15:53:09*
%MOMM*%
%LPD*%
G01*
G04 APERTURE LIST*
%TA.AperFunction,SMDPad,CuDef*%
%ADD10R,1.600000X1.600000*%
%TD*%
%TA.AperFunction,ComponentPad*%
%ADD11O,1.700000X1.700000*%
%TD*%
%TA.AperFunction,ComponentPad*%
%ADD12R,1.700000X1.700000*%
%TD*%
%TA.AperFunction,ViaPad*%
%ADD13C,0.800000*%
%TD*%
%TA.AperFunction,Conductor*%
%ADD14C,0.250000*%
%TD*%
%TA.AperFunction,Conductor*%
%ADD15C,0.254000*%
%TD*%
%TA.AperFunction,Conductor*%
%ADD16C,0.100000*%
%TD*%
G04 APERTURE END LIST*
D10*
%TO.P,U4,6*%
%TO.N,VCC*%
X130556000Y-132080000D03*
%TO.P,U4,3*%
%TO.N,Net-(U4-Pad3)*%
X122936000Y-137160000D03*
%TO.P,U4,5*%
%TO.N,GND2*%
X130556000Y-134620000D03*
%TO.P,U4,2*%
%TO.N,GND1*%
X122936000Y-134620000D03*
%TO.P,U4,4*%
%TO.N,/dig_transport*%
X130556000Y-137160000D03*
%TO.P,U4,1*%
%TO.N,Net-(R7-Pad1)*%
X122936000Y-132080000D03*
%TD*%
%TO.P,U3,6*%
%TO.N,VCC*%
X130556000Y-121920000D03*
%TO.P,U3,3*%
%TO.N,Net-(U3-Pad3)*%
X122936000Y-127000000D03*
%TO.P,U3,5*%
%TO.N,GND2*%
X130556000Y-124460000D03*
%TO.P,U3,2*%
%TO.N,GND1*%
X122936000Y-124460000D03*
%TO.P,U3,4*%
%TO.N,/dig_heater*%
X130556000Y-127000000D03*
%TO.P,U3,1*%
%TO.N,Net-(R5-Pad1)*%
X122936000Y-121920000D03*
%TD*%
%TO.P,U2,6*%
%TO.N,VCC*%
X130556000Y-111582200D03*
%TO.P,U2,3*%
%TO.N,Net-(U2-Pad3)*%
X122936000Y-116662200D03*
%TO.P,U2,5*%
%TO.N,GND2*%
X130556000Y-114122200D03*
%TO.P,U2,2*%
%TO.N,GND1*%
X122936000Y-114122200D03*
%TO.P,U2,4*%
%TO.N,/dig_fan*%
X130556000Y-116662200D03*
%TO.P,U2,1*%
%TO.N,Net-(R3-Pad1)*%
X122936000Y-111582200D03*
%TD*%
%TO.P,U1,6*%
%TO.N,VCC*%
X130556000Y-101346000D03*
%TO.P,U1,3*%
%TO.N,Net-(U1-Pad3)*%
X122936000Y-106426000D03*
%TO.P,U1,5*%
%TO.N,GND2*%
X130556000Y-103886000D03*
%TO.P,U1,2*%
%TO.N,GND1*%
X122936000Y-103886000D03*
%TO.P,U1,4*%
%TO.N,/dig_thermostat*%
X130556000Y-106426000D03*
%TO.P,U1,1*%
%TO.N,Net-(R1-Pad1)*%
X122936000Y-101346000D03*
%TD*%
%TO.P,R14,2*%
%TO.N,/an_power*%
%TA.AperFunction,SMDPad,CuDef*%
G36*
G01*
X116262200Y-129343999D02*
X116262200Y-130244001D01*
G75*
G02*
X116012201Y-130494000I-249999J0D01*
G01*
X115487199Y-130494000D01*
G75*
G02*
X115237200Y-130244001I0J249999D01*
G01*
X115237200Y-129343999D01*
G75*
G02*
X115487199Y-129094000I249999J0D01*
G01*
X116012201Y-129094000D01*
G75*
G02*
X116262200Y-129343999I0J-249999D01*
G01*
G37*
%TD.AperFunction*%
%TO.P,R14,1*%
%TO.N,GND1*%
%TA.AperFunction,SMDPad,CuDef*%
G36*
G01*
X118087200Y-129343999D02*
X118087200Y-130244001D01*
G75*
G02*
X117837201Y-130494000I-249999J0D01*
G01*
X117312199Y-130494000D01*
G75*
G02*
X117062200Y-130244001I0J249999D01*
G01*
X117062200Y-129343999D01*
G75*
G02*
X117312199Y-129094000I249999J0D01*
G01*
X117837201Y-129094000D01*
G75*
G02*
X118087200Y-129343999I0J-249999D01*
G01*
G37*
%TD.AperFunction*%
%TD*%
%TO.P,R13,2*%
%TO.N,/power*%
%TA.AperFunction,SMDPad,CuDef*%
G36*
G01*
X111690200Y-129343999D02*
X111690200Y-130244001D01*
G75*
G02*
X111440201Y-130494000I-249999J0D01*
G01*
X110915199Y-130494000D01*
G75*
G02*
X110665200Y-130244001I0J249999D01*
G01*
X110665200Y-129343999D01*
G75*
G02*
X110915199Y-129094000I249999J0D01*
G01*
X111440201Y-129094000D01*
G75*
G02*
X111690200Y-129343999I0J-249999D01*
G01*
G37*
%TD.AperFunction*%
%TO.P,R13,1*%
%TO.N,/an_power*%
%TA.AperFunction,SMDPad,CuDef*%
G36*
G01*
X113515200Y-129343999D02*
X113515200Y-130244001D01*
G75*
G02*
X113265201Y-130494000I-249999J0D01*
G01*
X112740199Y-130494000D01*
G75*
G02*
X112490200Y-130244001I0J249999D01*
G01*
X112490200Y-129343999D01*
G75*
G02*
X112740199Y-129094000I249999J0D01*
G01*
X113265201Y-129094000D01*
G75*
G02*
X113515200Y-129343999I0J-249999D01*
G01*
G37*
%TD.AperFunction*%
%TD*%
%TO.P,R12,2*%
%TO.N,/an_irsensor*%
%TA.AperFunction,SMDPad,CuDef*%
G36*
G01*
X116262200Y-132772999D02*
X116262200Y-133673001D01*
G75*
G02*
X116012201Y-133923000I-249999J0D01*
G01*
X115487199Y-133923000D01*
G75*
G02*
X115237200Y-133673001I0J249999D01*
G01*
X115237200Y-132772999D01*
G75*
G02*
X115487199Y-132523000I249999J0D01*
G01*
X116012201Y-132523000D01*
G75*
G02*
X116262200Y-132772999I0J-249999D01*
G01*
G37*
%TD.AperFunction*%
%TO.P,R12,1*%
%TO.N,GND1*%
%TA.AperFunction,SMDPad,CuDef*%
G36*
G01*
X118087200Y-132772999D02*
X118087200Y-133673001D01*
G75*
G02*
X117837201Y-133923000I-249999J0D01*
G01*
X117312199Y-133923000D01*
G75*
G02*
X117062200Y-133673001I0J249999D01*
G01*
X117062200Y-132772999D01*
G75*
G02*
X117312199Y-132523000I249999J0D01*
G01*
X117837201Y-132523000D01*
G75*
G02*
X118087200Y-132772999I0J-249999D01*
G01*
G37*
%TD.AperFunction*%
%TD*%
%TO.P,R11,2*%
%TO.N,/irsensor*%
%TA.AperFunction,SMDPad,CuDef*%
G36*
G01*
X111690200Y-132772999D02*
X111690200Y-133673001D01*
G75*
G02*
X111440201Y-133923000I-249999J0D01*
G01*
X110915199Y-133923000D01*
G75*
G02*
X110665200Y-133673001I0J249999D01*
G01*
X110665200Y-132772999D01*
G75*
G02*
X110915199Y-132523000I249999J0D01*
G01*
X111440201Y-132523000D01*
G75*
G02*
X111690200Y-132772999I0J-249999D01*
G01*
G37*
%TD.AperFunction*%
%TO.P,R11,1*%
%TO.N,/an_irsensor*%
%TA.AperFunction,SMDPad,CuDef*%
G36*
G01*
X113515200Y-132772999D02*
X113515200Y-133673001D01*
G75*
G02*
X113265201Y-133923000I-249999J0D01*
G01*
X112740199Y-133923000D01*
G75*
G02*
X112490200Y-133673001I0J249999D01*
G01*
X112490200Y-132772999D01*
G75*
G02*
X112740199Y-132523000I249999J0D01*
G01*
X113265201Y-132523000D01*
G75*
G02*
X113515200Y-132772999I0J-249999D01*
G01*
G37*
%TD.AperFunction*%
%TD*%
%TO.P,R10,2*%
%TO.N,/an_overtemp*%
%TA.AperFunction,SMDPad,CuDef*%
G36*
G01*
X116160600Y-136252799D02*
X116160600Y-137152801D01*
G75*
G02*
X115910601Y-137402800I-249999J0D01*
G01*
X115385599Y-137402800D01*
G75*
G02*
X115135600Y-137152801I0J249999D01*
G01*
X115135600Y-136252799D01*
G75*
G02*
X115385599Y-136002800I249999J0D01*
G01*
X115910601Y-136002800D01*
G75*
G02*
X116160600Y-136252799I0J-249999D01*
G01*
G37*
%TD.AperFunction*%
%TO.P,R10,1*%
%TO.N,GND1*%
%TA.AperFunction,SMDPad,CuDef*%
G36*
G01*
X117985600Y-136252799D02*
X117985600Y-137152801D01*
G75*
G02*
X117735601Y-137402800I-249999J0D01*
G01*
X117210599Y-137402800D01*
G75*
G02*
X116960600Y-137152801I0J249999D01*
G01*
X116960600Y-136252799D01*
G75*
G02*
X117210599Y-136002800I249999J0D01*
G01*
X117735601Y-136002800D01*
G75*
G02*
X117985600Y-136252799I0J-249999D01*
G01*
G37*
%TD.AperFunction*%
%TD*%
%TO.P,R9,2*%
%TO.N,/overtemp*%
%TA.AperFunction,SMDPad,CuDef*%
G36*
G01*
X111588600Y-136252799D02*
X111588600Y-137152801D01*
G75*
G02*
X111338601Y-137402800I-249999J0D01*
G01*
X110813599Y-137402800D01*
G75*
G02*
X110563600Y-137152801I0J249999D01*
G01*
X110563600Y-136252799D01*
G75*
G02*
X110813599Y-136002800I249999J0D01*
G01*
X111338601Y-136002800D01*
G75*
G02*
X111588600Y-136252799I0J-249999D01*
G01*
G37*
%TD.AperFunction*%
%TO.P,R9,1*%
%TO.N,/an_overtemp*%
%TA.AperFunction,SMDPad,CuDef*%
G36*
G01*
X113413600Y-136252799D02*
X113413600Y-137152801D01*
G75*
G02*
X113163601Y-137402800I-249999J0D01*
G01*
X112638599Y-137402800D01*
G75*
G02*
X112388600Y-137152801I0J249999D01*
G01*
X112388600Y-136252799D01*
G75*
G02*
X112638599Y-136002800I249999J0D01*
G01*
X113163601Y-136002800D01*
G75*
G02*
X113413600Y-136252799I0J-249999D01*
G01*
G37*
%TD.AperFunction*%
%TD*%
%TO.P,R8,2*%
%TO.N,VCC*%
%TA.AperFunction,SMDPad,CuDef*%
G36*
G01*
X135528000Y-137610001D02*
X135528000Y-136709999D01*
G75*
G02*
X135777999Y-136460000I249999J0D01*
G01*
X136303001Y-136460000D01*
G75*
G02*
X136553000Y-136709999I0J-249999D01*
G01*
X136553000Y-137610001D01*
G75*
G02*
X136303001Y-137860000I-249999J0D01*
G01*
X135777999Y-137860000D01*
G75*
G02*
X135528000Y-137610001I0J249999D01*
G01*
G37*
%TD.AperFunction*%
%TO.P,R8,1*%
%TO.N,/dig_transport*%
%TA.AperFunction,SMDPad,CuDef*%
G36*
G01*
X133703000Y-137610001D02*
X133703000Y-136709999D01*
G75*
G02*
X133952999Y-136460000I249999J0D01*
G01*
X134478001Y-136460000D01*
G75*
G02*
X134728000Y-136709999I0J-249999D01*
G01*
X134728000Y-137610001D01*
G75*
G02*
X134478001Y-137860000I-249999J0D01*
G01*
X133952999Y-137860000D01*
G75*
G02*
X133703000Y-137610001I0J249999D01*
G01*
G37*
%TD.AperFunction*%
%TD*%
%TO.P,R7,2*%
%TO.N,/transport*%
%TA.AperFunction,SMDPad,CuDef*%
G36*
G01*
X116440000Y-115119999D02*
X116440000Y-116020001D01*
G75*
G02*
X116190001Y-116270000I-249999J0D01*
G01*
X115664999Y-116270000D01*
G75*
G02*
X115415000Y-116020001I0J249999D01*
G01*
X115415000Y-115119999D01*
G75*
G02*
X115664999Y-114870000I249999J0D01*
G01*
X116190001Y-114870000D01*
G75*
G02*
X116440000Y-115119999I0J-249999D01*
G01*
G37*
%TD.AperFunction*%
%TO.P,R7,1*%
%TO.N,Net-(R7-Pad1)*%
%TA.AperFunction,SMDPad,CuDef*%
G36*
G01*
X118265000Y-115119999D02*
X118265000Y-116020001D01*
G75*
G02*
X118015001Y-116270000I-249999J0D01*
G01*
X117489999Y-116270000D01*
G75*
G02*
X117240000Y-116020001I0J249999D01*
G01*
X117240000Y-115119999D01*
G75*
G02*
X117489999Y-114870000I249999J0D01*
G01*
X118015001Y-114870000D01*
G75*
G02*
X118265000Y-115119999I0J-249999D01*
G01*
G37*
%TD.AperFunction*%
%TD*%
%TO.P,R6,2*%
%TO.N,VCC*%
%TA.AperFunction,SMDPad,CuDef*%
G36*
G01*
X135274000Y-127450001D02*
X135274000Y-126549999D01*
G75*
G02*
X135523999Y-126300000I249999J0D01*
G01*
X136049001Y-126300000D01*
G75*
G02*
X136299000Y-126549999I0J-249999D01*
G01*
X136299000Y-127450001D01*
G75*
G02*
X136049001Y-127700000I-249999J0D01*
G01*
X135523999Y-127700000D01*
G75*
G02*
X135274000Y-127450001I0J249999D01*
G01*
G37*
%TD.AperFunction*%
%TO.P,R6,1*%
%TO.N,/dig_heater*%
%TA.AperFunction,SMDPad,CuDef*%
G36*
G01*
X133449000Y-127450001D02*
X133449000Y-126549999D01*
G75*
G02*
X133698999Y-126300000I249999J0D01*
G01*
X134224001Y-126300000D01*
G75*
G02*
X134474000Y-126549999I0J-249999D01*
G01*
X134474000Y-127450001D01*
G75*
G02*
X134224001Y-127700000I-249999J0D01*
G01*
X133698999Y-127700000D01*
G75*
G02*
X133449000Y-127450001I0J249999D01*
G01*
G37*
%TD.AperFunction*%
%TD*%
%TO.P,R5,2*%
%TO.N,/heater*%
%TA.AperFunction,SMDPad,CuDef*%
G36*
G01*
X116440000Y-112579999D02*
X116440000Y-113480001D01*
G75*
G02*
X116190001Y-113730000I-249999J0D01*
G01*
X115664999Y-113730000D01*
G75*
G02*
X115415000Y-113480001I0J249999D01*
G01*
X115415000Y-112579999D01*
G75*
G02*
X115664999Y-112330000I249999J0D01*
G01*
X116190001Y-112330000D01*
G75*
G02*
X116440000Y-112579999I0J-249999D01*
G01*
G37*
%TD.AperFunction*%
%TO.P,R5,1*%
%TO.N,Net-(R5-Pad1)*%
%TA.AperFunction,SMDPad,CuDef*%
G36*
G01*
X118265000Y-112579999D02*
X118265000Y-113480001D01*
G75*
G02*
X118015001Y-113730000I-249999J0D01*
G01*
X117489999Y-113730000D01*
G75*
G02*
X117240000Y-113480001I0J249999D01*
G01*
X117240000Y-112579999D01*
G75*
G02*
X117489999Y-112330000I249999J0D01*
G01*
X118015001Y-112330000D01*
G75*
G02*
X118265000Y-112579999I0J-249999D01*
G01*
G37*
%TD.AperFunction*%
%TD*%
%TO.P,R4,2*%
%TO.N,VCC*%
%TA.AperFunction,SMDPad,CuDef*%
G36*
G01*
X135274000Y-117036001D02*
X135274000Y-116135999D01*
G75*
G02*
X135523999Y-115886000I249999J0D01*
G01*
X136049001Y-115886000D01*
G75*
G02*
X136299000Y-116135999I0J-249999D01*
G01*
X136299000Y-117036001D01*
G75*
G02*
X136049001Y-117286000I-249999J0D01*
G01*
X135523999Y-117286000D01*
G75*
G02*
X135274000Y-117036001I0J249999D01*
G01*
G37*
%TD.AperFunction*%
%TO.P,R4,1*%
%TO.N,/dig_fan*%
%TA.AperFunction,SMDPad,CuDef*%
G36*
G01*
X133449000Y-117036001D02*
X133449000Y-116135999D01*
G75*
G02*
X133698999Y-115886000I249999J0D01*
G01*
X134224001Y-115886000D01*
G75*
G02*
X134474000Y-116135999I0J-249999D01*
G01*
X134474000Y-117036001D01*
G75*
G02*
X134224001Y-117286000I-249999J0D01*
G01*
X133698999Y-117286000D01*
G75*
G02*
X133449000Y-117036001I0J249999D01*
G01*
G37*
%TD.AperFunction*%
%TD*%
%TO.P,R3,2*%
%TO.N,/fan*%
%TA.AperFunction,SMDPad,CuDef*%
G36*
G01*
X116440000Y-110039999D02*
X116440000Y-110940001D01*
G75*
G02*
X116190001Y-111190000I-249999J0D01*
G01*
X115664999Y-111190000D01*
G75*
G02*
X115415000Y-110940001I0J249999D01*
G01*
X115415000Y-110039999D01*
G75*
G02*
X115664999Y-109790000I249999J0D01*
G01*
X116190001Y-109790000D01*
G75*
G02*
X116440000Y-110039999I0J-249999D01*
G01*
G37*
%TD.AperFunction*%
%TO.P,R3,1*%
%TO.N,Net-(R3-Pad1)*%
%TA.AperFunction,SMDPad,CuDef*%
G36*
G01*
X118265000Y-110039999D02*
X118265000Y-110940001D01*
G75*
G02*
X118015001Y-111190000I-249999J0D01*
G01*
X117489999Y-111190000D01*
G75*
G02*
X117240000Y-110940001I0J249999D01*
G01*
X117240000Y-110039999D01*
G75*
G02*
X117489999Y-109790000I249999J0D01*
G01*
X118015001Y-109790000D01*
G75*
G02*
X118265000Y-110039999I0J-249999D01*
G01*
G37*
%TD.AperFunction*%
%TD*%
%TO.P,R2,2*%
%TO.N,VCC*%
%TA.AperFunction,SMDPad,CuDef*%
G36*
G01*
X135274000Y-106876001D02*
X135274000Y-105975999D01*
G75*
G02*
X135523999Y-105726000I249999J0D01*
G01*
X136049001Y-105726000D01*
G75*
G02*
X136299000Y-105975999I0J-249999D01*
G01*
X136299000Y-106876001D01*
G75*
G02*
X136049001Y-107126000I-249999J0D01*
G01*
X135523999Y-107126000D01*
G75*
G02*
X135274000Y-106876001I0J249999D01*
G01*
G37*
%TD.AperFunction*%
%TO.P,R2,1*%
%TO.N,/dig_thermostat*%
%TA.AperFunction,SMDPad,CuDef*%
G36*
G01*
X133449000Y-106876001D02*
X133449000Y-105975999D01*
G75*
G02*
X133698999Y-105726000I249999J0D01*
G01*
X134224001Y-105726000D01*
G75*
G02*
X134474000Y-105975999I0J-249999D01*
G01*
X134474000Y-106876001D01*
G75*
G02*
X134224001Y-107126000I-249999J0D01*
G01*
X133698999Y-107126000D01*
G75*
G02*
X133449000Y-106876001I0J249999D01*
G01*
G37*
%TD.AperFunction*%
%TD*%
%TO.P,R1,2*%
%TO.N,/thermostat*%
%TA.AperFunction,SMDPad,CuDef*%
G36*
G01*
X116440000Y-107499999D02*
X116440000Y-108400001D01*
G75*
G02*
X116190001Y-108650000I-249999J0D01*
G01*
X115664999Y-108650000D01*
G75*
G02*
X115415000Y-108400001I0J249999D01*
G01*
X115415000Y-107499999D01*
G75*
G02*
X115664999Y-107250000I249999J0D01*
G01*
X116190001Y-107250000D01*
G75*
G02*
X116440000Y-107499999I0J-249999D01*
G01*
G37*
%TD.AperFunction*%
%TO.P,R1,1*%
%TO.N,Net-(R1-Pad1)*%
%TA.AperFunction,SMDPad,CuDef*%
G36*
G01*
X118265000Y-107499999D02*
X118265000Y-108400001D01*
G75*
G02*
X118015001Y-108650000I-249999J0D01*
G01*
X117489999Y-108650000D01*
G75*
G02*
X117240000Y-108400001I0J249999D01*
G01*
X117240000Y-107499999D01*
G75*
G02*
X117489999Y-107250000I249999J0D01*
G01*
X118015001Y-107250000D01*
G75*
G02*
X118265000Y-107499999I0J-249999D01*
G01*
G37*
%TD.AperFunction*%
%TD*%
D11*
%TO.P,J2,10*%
%TO.N,GND2*%
X141478000Y-128524000D03*
%TO.P,J2,9*%
X141478000Y-125984000D03*
%TO.P,J2,8*%
%TO.N,VCC*%
X141478000Y-123444000D03*
%TO.P,J2,7*%
%TO.N,/an_power*%
X141478000Y-120904000D03*
%TO.P,J2,6*%
%TO.N,/an_irsensor*%
X141478000Y-118364000D03*
%TO.P,J2,5*%
%TO.N,/an_overtemp*%
X141478000Y-115824000D03*
%TO.P,J2,4*%
%TO.N,/dig_transport*%
X141478000Y-113284000D03*
%TO.P,J2,3*%
%TO.N,/dig_heater*%
X141478000Y-110744000D03*
%TO.P,J2,2*%
%TO.N,/dig_fan*%
X141478000Y-108204000D03*
D12*
%TO.P,J2,1*%
%TO.N,/dig_thermostat*%
X141478000Y-105664000D03*
%TD*%
D11*
%TO.P,J1,8*%
%TO.N,GND1*%
X112268000Y-125730000D03*
%TO.P,J1,7*%
%TO.N,/power*%
X112268000Y-123190000D03*
%TO.P,J1,6*%
%TO.N,/irsensor*%
X112268000Y-120650000D03*
%TO.P,J1,5*%
%TO.N,/overtemp*%
X112268000Y-118110000D03*
%TO.P,J1,4*%
%TO.N,/transport*%
X112268000Y-115570000D03*
%TO.P,J1,3*%
%TO.N,/heater*%
X112268000Y-113030000D03*
%TO.P,J1,2*%
%TO.N,/fan*%
X112268000Y-110490000D03*
D12*
%TO.P,J1,1*%
%TO.N,/thermostat*%
X112268000Y-107950000D03*
%TD*%
D13*
%TO.N,GND1*%
X119913400Y-131470400D03*
X119888000Y-135001000D03*
%TO.N,GND2*%
X132562600Y-125171200D03*
X138836400Y-131927600D03*
X129032000Y-134594600D03*
X141554200Y-136880600D03*
X138049000Y-125018800D03*
X132892800Y-129997200D03*
X133172200Y-103860600D03*
%TO.N,/an_irsensor*%
X114401600Y-134874000D03*
%TO.N,/an_overtemp*%
X114223800Y-138150600D03*
%TO.N,/dig_heater*%
X133934200Y-123418600D03*
X133236499Y-119391901D03*
%TO.N,/dig_fan*%
X133961500Y-113459900D03*
%TD*%
D14*
%TO.N,/power*%
X112268000Y-123190000D02*
X110337600Y-123190000D01*
X110337600Y-123190000D02*
X109829600Y-123698000D01*
X109829600Y-128445900D02*
X111177700Y-129794000D01*
X109829600Y-123698000D02*
X109829600Y-128445900D01*
%TO.N,/irsensor*%
X109379590Y-131424890D02*
X111177700Y-133223000D01*
X109379590Y-122336329D02*
X109379590Y-131424890D01*
X111065919Y-120650000D02*
X109379590Y-122336329D01*
X112268000Y-120650000D02*
X111065919Y-120650000D01*
%TO.N,/overtemp*%
X108929581Y-121448419D02*
X108929581Y-134556281D01*
X108929581Y-134556281D02*
X111076100Y-136702800D01*
X112268000Y-118110000D02*
X108929581Y-121448419D01*
%TO.N,/transport*%
X112268000Y-115570000D02*
X115927500Y-115570000D01*
%TO.N,/heater*%
X112268000Y-113030000D02*
X115927500Y-113030000D01*
%TO.N,/fan*%
X112268000Y-110490000D02*
X115927500Y-110490000D01*
%TO.N,/thermostat*%
X112268000Y-107950000D02*
X115927500Y-107950000D01*
%TO.N,VCC*%
X136040500Y-133246500D02*
X136040500Y-137160000D01*
X134874000Y-132080000D02*
X136040500Y-133246500D01*
X134620000Y-132080000D02*
X134874000Y-132080000D01*
X135786500Y-130913500D02*
X134620000Y-132080000D01*
X130556000Y-132080000D02*
X134620000Y-132080000D01*
X135786500Y-130913500D02*
X135786500Y-127000000D01*
X130556000Y-101346000D02*
X135128000Y-101346000D01*
X135786500Y-102004500D02*
X135786500Y-106426000D01*
X135128000Y-101346000D02*
X135786500Y-102004500D01*
X130556000Y-111582200D02*
X135458200Y-111582200D01*
X135458200Y-111582200D02*
X135786500Y-111910500D01*
X130556000Y-121920000D02*
X135128000Y-121920000D01*
X135786500Y-122578500D02*
X135786500Y-127000000D01*
X135128000Y-121920000D02*
X135786500Y-122578500D01*
X135786500Y-106426000D02*
X135786500Y-112117500D01*
X135786500Y-112117500D02*
X135786500Y-116586000D01*
X135786500Y-111910500D02*
X135786500Y-112117500D01*
X136800600Y-123444000D02*
X135786500Y-122429900D01*
X141478000Y-123444000D02*
X136800600Y-123444000D01*
X135786500Y-122429900D02*
X135786500Y-122578500D01*
X135786500Y-116586000D02*
X135786500Y-122429900D01*
%TO.N,/an_power*%
X115749700Y-129794000D02*
X113002700Y-129794000D01*
X119160701Y-133205001D02*
X115749700Y-129794000D01*
X131681001Y-133559999D02*
X131326003Y-133205001D01*
X131326003Y-133205001D02*
X119160701Y-133205001D01*
X131681001Y-135680001D02*
X131681001Y-133559999D01*
X131326003Y-136034999D02*
X131681001Y-135680001D01*
X129495999Y-136034999D02*
X131326003Y-136034999D01*
X129430999Y-138220001D02*
X129430999Y-136099999D01*
X129846018Y-138635020D02*
X129430999Y-138220001D01*
X143103010Y-132259590D02*
X136727580Y-138635020D01*
X143103010Y-113170008D02*
X143103010Y-132259590D01*
X129430999Y-136099999D02*
X129495999Y-136034999D01*
X142042001Y-112108999D02*
X143103010Y-113170008D01*
X140913999Y-112108999D02*
X142042001Y-112108999D01*
X140302999Y-112719999D02*
X140913999Y-112108999D01*
X136727580Y-138635020D02*
X129846018Y-138635020D01*
X140302999Y-119728999D02*
X140302999Y-112719999D01*
X141478000Y-120904000D02*
X140302999Y-119728999D01*
%TO.N,/an_irsensor*%
X115749700Y-133223000D02*
X113002700Y-133223000D01*
X114401600Y-134621900D02*
X113002700Y-133223000D01*
X114401600Y-134874000D02*
X114401600Y-134621900D01*
%TO.N,/an_overtemp*%
X115648100Y-136702800D02*
X112901100Y-136702800D01*
X114223800Y-138150600D02*
X114223800Y-136880600D01*
X114401600Y-136702800D02*
X115648100Y-136702800D01*
X114223800Y-136880600D02*
X114401600Y-136702800D01*
%TO.N,/dig_transport*%
X134215500Y-137160000D02*
X130556000Y-137160000D01*
X142653001Y-114459001D02*
X141478000Y-113284000D01*
X142653001Y-132073189D02*
X142653001Y-114459001D01*
X136541180Y-138185010D02*
X142653001Y-132073189D01*
X135240510Y-138185010D02*
X136541180Y-138185010D01*
X134215500Y-137160000D02*
X135240510Y-138185010D01*
%TO.N,/dig_heater*%
X133961500Y-127000000D02*
X130556000Y-127000000D01*
X133961500Y-123445900D02*
X133934200Y-123418600D01*
X133961500Y-127000000D02*
X133961500Y-123445900D01*
%TO.N,/dig_fan*%
X130632200Y-116586000D02*
X130556000Y-116662200D01*
X133961500Y-116586000D02*
X130632200Y-116586000D01*
X133961500Y-113412900D02*
X133961500Y-113459900D01*
X133961500Y-116586000D02*
X133961500Y-113459900D01*
%TO.N,/dig_thermostat*%
X133961500Y-106426000D02*
X130556000Y-106426000D01*
X129430999Y-105300999D02*
X130556000Y-106426000D01*
X129430999Y-100285999D02*
X129430999Y-105300999D01*
X129495999Y-100220999D02*
X129430999Y-100285999D01*
X136034999Y-100220999D02*
X129495999Y-100220999D01*
X141478000Y-105664000D02*
X136034999Y-100220999D01*
%TO.N,Net-(R1-Pad1)*%
X117752500Y-107950000D02*
X117752500Y-104243500D01*
X120650000Y-101346000D02*
X122936000Y-101346000D01*
X117752500Y-104243500D02*
X120650000Y-101346000D01*
%TO.N,Net-(R3-Pad1)*%
X117752500Y-110490000D02*
X118872000Y-110490000D01*
X119964200Y-111582200D02*
X122936000Y-111582200D01*
X118872000Y-110490000D02*
X119964200Y-111582200D01*
%TO.N,Net-(R5-Pad1)*%
X117752500Y-113030000D02*
X118618000Y-113030000D01*
X118618000Y-113030000D02*
X120142000Y-114554000D01*
X120142000Y-119126000D02*
X122936000Y-121920000D01*
X120142000Y-114554000D02*
X120142000Y-119126000D01*
%TO.N,Net-(R7-Pad1)*%
X117752500Y-115570000D02*
X117752500Y-118514500D01*
X117752500Y-118514500D02*
X120142000Y-120904000D01*
X120142000Y-129286000D02*
X122936000Y-132080000D01*
X120142000Y-120904000D02*
X120142000Y-129286000D01*
%TD*%
D15*
%TO.N,GND1*%
X126561621Y-132445001D02*
X124374072Y-132445001D01*
X124374072Y-131280000D01*
X124361812Y-131155518D01*
X124325502Y-131035820D01*
X124266537Y-130925506D01*
X124187185Y-130828815D01*
X124090494Y-130749463D01*
X123980180Y-130690498D01*
X123860482Y-130654188D01*
X123736000Y-130641928D01*
X122572730Y-130641928D01*
X120902000Y-128971199D01*
X120902000Y-125260000D01*
X121497928Y-125260000D01*
X121510188Y-125384482D01*
X121546498Y-125504180D01*
X121605463Y-125614494D01*
X121684815Y-125711185D01*
X121707741Y-125730000D01*
X121684815Y-125748815D01*
X121605463Y-125845506D01*
X121546498Y-125955820D01*
X121510188Y-126075518D01*
X121497928Y-126200000D01*
X121497928Y-127800000D01*
X121510188Y-127924482D01*
X121546498Y-128044180D01*
X121605463Y-128154494D01*
X121684815Y-128251185D01*
X121781506Y-128330537D01*
X121891820Y-128389502D01*
X122011518Y-128425812D01*
X122136000Y-128438072D01*
X123736000Y-128438072D01*
X123860482Y-128425812D01*
X123980180Y-128389502D01*
X124090494Y-128330537D01*
X124187185Y-128251185D01*
X124266537Y-128154494D01*
X124325502Y-128044180D01*
X124361812Y-127924482D01*
X124374072Y-127800000D01*
X124374072Y-126200000D01*
X124361812Y-126075518D01*
X124325502Y-125955820D01*
X124266537Y-125845506D01*
X124187185Y-125748815D01*
X124164259Y-125730000D01*
X124187185Y-125711185D01*
X124266537Y-125614494D01*
X124325502Y-125504180D01*
X124361812Y-125384482D01*
X124374072Y-125260000D01*
X124371000Y-124745750D01*
X124212250Y-124587000D01*
X123063000Y-124587000D01*
X123063000Y-124607000D01*
X122809000Y-124607000D01*
X122809000Y-124587000D01*
X121659750Y-124587000D01*
X121501000Y-124745750D01*
X121497928Y-125260000D01*
X120902000Y-125260000D01*
X120902000Y-120960801D01*
X121497928Y-121556730D01*
X121497928Y-122720000D01*
X121510188Y-122844482D01*
X121546498Y-122964180D01*
X121605463Y-123074494D01*
X121684815Y-123171185D01*
X121707741Y-123190000D01*
X121684815Y-123208815D01*
X121605463Y-123305506D01*
X121546498Y-123415820D01*
X121510188Y-123535518D01*
X121497928Y-123660000D01*
X121501000Y-124174250D01*
X121659750Y-124333000D01*
X122809000Y-124333000D01*
X122809000Y-124313000D01*
X123063000Y-124313000D01*
X123063000Y-124333000D01*
X124212250Y-124333000D01*
X124371000Y-124174250D01*
X124374072Y-123660000D01*
X124361812Y-123535518D01*
X124325502Y-123415820D01*
X124266537Y-123305506D01*
X124187185Y-123208815D01*
X124164259Y-123190000D01*
X124187185Y-123171185D01*
X124266537Y-123074494D01*
X124325502Y-122964180D01*
X124361812Y-122844482D01*
X124374072Y-122720000D01*
X124374072Y-121120000D01*
X124361812Y-120995518D01*
X124325502Y-120875820D01*
X124266537Y-120765506D01*
X124187185Y-120668815D01*
X124090494Y-120589463D01*
X123980180Y-120530498D01*
X123860482Y-120494188D01*
X123736000Y-120481928D01*
X122572730Y-120481928D01*
X120902000Y-118811199D01*
X120902000Y-114922200D01*
X121497928Y-114922200D01*
X121510188Y-115046682D01*
X121546498Y-115166380D01*
X121605463Y-115276694D01*
X121684815Y-115373385D01*
X121707741Y-115392200D01*
X121684815Y-115411015D01*
X121605463Y-115507706D01*
X121546498Y-115618020D01*
X121510188Y-115737718D01*
X121497928Y-115862200D01*
X121497928Y-117462200D01*
X121510188Y-117586682D01*
X121546498Y-117706380D01*
X121605463Y-117816694D01*
X121684815Y-117913385D01*
X121781506Y-117992737D01*
X121891820Y-118051702D01*
X122011518Y-118088012D01*
X122136000Y-118100272D01*
X123736000Y-118100272D01*
X123860482Y-118088012D01*
X123980180Y-118051702D01*
X124090494Y-117992737D01*
X124187185Y-117913385D01*
X124266537Y-117816694D01*
X124325502Y-117706380D01*
X124361812Y-117586682D01*
X124374072Y-117462200D01*
X124374072Y-115862200D01*
X124361812Y-115737718D01*
X124325502Y-115618020D01*
X124266537Y-115507706D01*
X124187185Y-115411015D01*
X124164259Y-115392200D01*
X124187185Y-115373385D01*
X124266537Y-115276694D01*
X124325502Y-115166380D01*
X124361812Y-115046682D01*
X124374072Y-114922200D01*
X124371000Y-114407950D01*
X124212250Y-114249200D01*
X123063000Y-114249200D01*
X123063000Y-114269200D01*
X122809000Y-114269200D01*
X122809000Y-114249200D01*
X121659750Y-114249200D01*
X121501000Y-114407950D01*
X121497928Y-114922200D01*
X120902000Y-114922200D01*
X120902000Y-114591322D01*
X120905676Y-114553999D01*
X120902000Y-114516676D01*
X120902000Y-114516667D01*
X120891003Y-114405014D01*
X120847546Y-114261753D01*
X120776974Y-114129724D01*
X120740270Y-114085000D01*
X120705799Y-114042996D01*
X120705795Y-114042992D01*
X120682001Y-114013999D01*
X120653009Y-113990206D01*
X119181803Y-112519002D01*
X119158001Y-112489999D01*
X119042276Y-112395026D01*
X118910247Y-112324454D01*
X118856059Y-112308017D01*
X118835472Y-112240149D01*
X118753405Y-112086613D01*
X118642962Y-111952038D01*
X118508387Y-111841595D01*
X118355734Y-111760000D01*
X118508387Y-111678405D01*
X118642962Y-111567962D01*
X118747627Y-111440428D01*
X119400401Y-112093203D01*
X119424199Y-112122201D01*
X119453197Y-112145999D01*
X119539923Y-112217174D01*
X119671953Y-112287746D01*
X119815214Y-112331203D01*
X119926867Y-112342200D01*
X119926876Y-112342200D01*
X119964199Y-112345876D01*
X120001522Y-112342200D01*
X121497928Y-112342200D01*
X121497928Y-112382200D01*
X121510188Y-112506682D01*
X121546498Y-112626380D01*
X121605463Y-112736694D01*
X121684815Y-112833385D01*
X121707741Y-112852200D01*
X121684815Y-112871015D01*
X121605463Y-112967706D01*
X121546498Y-113078020D01*
X121510188Y-113197718D01*
X121497928Y-113322200D01*
X121501000Y-113836450D01*
X121659750Y-113995200D01*
X122809000Y-113995200D01*
X122809000Y-113975200D01*
X123063000Y-113975200D01*
X123063000Y-113995200D01*
X124212250Y-113995200D01*
X124371000Y-113836450D01*
X124374072Y-113322200D01*
X124361812Y-113197718D01*
X124325502Y-113078020D01*
X124266537Y-112967706D01*
X124187185Y-112871015D01*
X124164259Y-112852200D01*
X124187185Y-112833385D01*
X124266537Y-112736694D01*
X124325502Y-112626380D01*
X124361812Y-112506682D01*
X124374072Y-112382200D01*
X124374072Y-110782200D01*
X124361812Y-110657718D01*
X124325502Y-110538020D01*
X124266537Y-110427706D01*
X124187185Y-110331015D01*
X124090494Y-110251663D01*
X123980180Y-110192698D01*
X123860482Y-110156388D01*
X123736000Y-110144128D01*
X122136000Y-110144128D01*
X122011518Y-110156388D01*
X121891820Y-110192698D01*
X121781506Y-110251663D01*
X121684815Y-110331015D01*
X121605463Y-110427706D01*
X121546498Y-110538020D01*
X121510188Y-110657718D01*
X121497928Y-110782200D01*
X121497928Y-110822200D01*
X120279002Y-110822200D01*
X119435804Y-109979002D01*
X119412001Y-109949999D01*
X119296276Y-109855026D01*
X119164247Y-109784454D01*
X119020986Y-109740997D01*
X118909333Y-109730000D01*
X118909322Y-109730000D01*
X118872000Y-109726324D01*
X118844241Y-109729058D01*
X118835472Y-109700149D01*
X118753405Y-109546613D01*
X118642962Y-109412038D01*
X118508387Y-109301595D01*
X118355734Y-109220000D01*
X118508387Y-109138405D01*
X118642962Y-109027962D01*
X118753405Y-108893387D01*
X118835472Y-108739851D01*
X118886008Y-108573255D01*
X118903072Y-108400001D01*
X118903072Y-107499999D01*
X118886008Y-107326745D01*
X118835472Y-107160149D01*
X118753405Y-107006613D01*
X118642962Y-106872038D01*
X118512500Y-106764970D01*
X118512500Y-104686000D01*
X121497928Y-104686000D01*
X121510188Y-104810482D01*
X121546498Y-104930180D01*
X121605463Y-105040494D01*
X121684815Y-105137185D01*
X121707741Y-105156000D01*
X121684815Y-105174815D01*
X121605463Y-105271506D01*
X121546498Y-105381820D01*
X121510188Y-105501518D01*
X121497928Y-105626000D01*
X121497928Y-107226000D01*
X121510188Y-107350482D01*
X121546498Y-107470180D01*
X121605463Y-107580494D01*
X121684815Y-107677185D01*
X121781506Y-107756537D01*
X121891820Y-107815502D01*
X122011518Y-107851812D01*
X122136000Y-107864072D01*
X123736000Y-107864072D01*
X123860482Y-107851812D01*
X123980180Y-107815502D01*
X124090494Y-107756537D01*
X124187185Y-107677185D01*
X124266537Y-107580494D01*
X124325502Y-107470180D01*
X124361812Y-107350482D01*
X124374072Y-107226000D01*
X124374072Y-105626000D01*
X124361812Y-105501518D01*
X124325502Y-105381820D01*
X124266537Y-105271506D01*
X124187185Y-105174815D01*
X124164259Y-105156000D01*
X124187185Y-105137185D01*
X124266537Y-105040494D01*
X124325502Y-104930180D01*
X124361812Y-104810482D01*
X124374072Y-104686000D01*
X124371000Y-104171750D01*
X124212250Y-104013000D01*
X123063000Y-104013000D01*
X123063000Y-104033000D01*
X122809000Y-104033000D01*
X122809000Y-104013000D01*
X121659750Y-104013000D01*
X121501000Y-104171750D01*
X121497928Y-104686000D01*
X118512500Y-104686000D01*
X118512500Y-104558301D01*
X120964802Y-102106000D01*
X121497928Y-102106000D01*
X121497928Y-102146000D01*
X121510188Y-102270482D01*
X121546498Y-102390180D01*
X121605463Y-102500494D01*
X121684815Y-102597185D01*
X121707741Y-102616000D01*
X121684815Y-102634815D01*
X121605463Y-102731506D01*
X121546498Y-102841820D01*
X121510188Y-102961518D01*
X121497928Y-103086000D01*
X121501000Y-103600250D01*
X121659750Y-103759000D01*
X122809000Y-103759000D01*
X122809000Y-103739000D01*
X123063000Y-103739000D01*
X123063000Y-103759000D01*
X124212250Y-103759000D01*
X124371000Y-103600250D01*
X124374072Y-103086000D01*
X124361812Y-102961518D01*
X124325502Y-102841820D01*
X124266537Y-102731506D01*
X124187185Y-102634815D01*
X124164259Y-102616000D01*
X124187185Y-102597185D01*
X124266537Y-102500494D01*
X124325502Y-102390180D01*
X124361812Y-102270482D01*
X124374072Y-102146000D01*
X124374072Y-100546000D01*
X124361812Y-100421518D01*
X124325502Y-100301820D01*
X124266537Y-100191506D01*
X124187185Y-100094815D01*
X124090494Y-100015463D01*
X123980180Y-99956498D01*
X123860482Y-99920188D01*
X123736000Y-99907928D01*
X122136000Y-99907928D01*
X122011518Y-99920188D01*
X121891820Y-99956498D01*
X121781506Y-100015463D01*
X121684815Y-100094815D01*
X121605463Y-100191506D01*
X121546498Y-100301820D01*
X121510188Y-100421518D01*
X121497928Y-100546000D01*
X121497928Y-100586000D01*
X120687325Y-100586000D01*
X120650000Y-100582324D01*
X120612675Y-100586000D01*
X120612667Y-100586000D01*
X120501014Y-100596997D01*
X120357753Y-100640454D01*
X120225724Y-100711026D01*
X120109999Y-100805999D01*
X120086201Y-100834997D01*
X117241498Y-103679701D01*
X117212500Y-103703499D01*
X117188702Y-103732497D01*
X117188701Y-103732498D01*
X117117526Y-103819224D01*
X117046954Y-103951254D01*
X117003498Y-104094515D01*
X116988824Y-104243500D01*
X116992501Y-104280832D01*
X116992500Y-106764970D01*
X116862038Y-106872038D01*
X116840000Y-106898891D01*
X116817962Y-106872038D01*
X116683387Y-106761595D01*
X116529851Y-106679528D01*
X116363255Y-106628992D01*
X116190001Y-106611928D01*
X115664999Y-106611928D01*
X115491745Y-106628992D01*
X115325149Y-106679528D01*
X115171613Y-106761595D01*
X115037038Y-106872038D01*
X114926595Y-107006613D01*
X114844528Y-107160149D01*
X114835473Y-107190000D01*
X113756072Y-107190000D01*
X113756072Y-107100000D01*
X113743812Y-106975518D01*
X113707502Y-106855820D01*
X113648537Y-106745506D01*
X113569185Y-106648815D01*
X113472494Y-106569463D01*
X113362180Y-106510498D01*
X113242482Y-106474188D01*
X113118000Y-106461928D01*
X111418000Y-106461928D01*
X111293518Y-106474188D01*
X111173820Y-106510498D01*
X111063506Y-106569463D01*
X110966815Y-106648815D01*
X110887463Y-106745506D01*
X110828498Y-106855820D01*
X110792188Y-106975518D01*
X110779928Y-107100000D01*
X110779928Y-108800000D01*
X110792188Y-108924482D01*
X110828498Y-109044180D01*
X110887463Y-109154494D01*
X110966815Y-109251185D01*
X111063506Y-109330537D01*
X111173820Y-109389502D01*
X111246380Y-109411513D01*
X111114525Y-109543368D01*
X110952010Y-109786589D01*
X110840068Y-110056842D01*
X110783000Y-110343740D01*
X110783000Y-110636260D01*
X110840068Y-110923158D01*
X110952010Y-111193411D01*
X111114525Y-111436632D01*
X111321368Y-111643475D01*
X111495760Y-111760000D01*
X111321368Y-111876525D01*
X111114525Y-112083368D01*
X110952010Y-112326589D01*
X110840068Y-112596842D01*
X110783000Y-112883740D01*
X110783000Y-113176260D01*
X110840068Y-113463158D01*
X110952010Y-113733411D01*
X111114525Y-113976632D01*
X111321368Y-114183475D01*
X111495760Y-114300000D01*
X111321368Y-114416525D01*
X111114525Y-114623368D01*
X110952010Y-114866589D01*
X110840068Y-115136842D01*
X110783000Y-115423740D01*
X110783000Y-115716260D01*
X110840068Y-116003158D01*
X110952010Y-116273411D01*
X111114525Y-116516632D01*
X111321368Y-116723475D01*
X111495760Y-116840000D01*
X111321368Y-116956525D01*
X111114525Y-117163368D01*
X110952010Y-117406589D01*
X110840068Y-117676842D01*
X110783000Y-117963740D01*
X110783000Y-118256260D01*
X110826790Y-118476407D01*
X108418584Y-120884615D01*
X108389580Y-120908418D01*
X108361818Y-120942247D01*
X108294607Y-121024143D01*
X108279191Y-121052985D01*
X108224035Y-121156173D01*
X108180578Y-121299434D01*
X108169581Y-121411087D01*
X108169581Y-121411097D01*
X108165905Y-121448419D01*
X108169581Y-121485741D01*
X108169582Y-134518949D01*
X108165905Y-134556281D01*
X108180579Y-134705266D01*
X108224035Y-134848527D01*
X108294607Y-134980557D01*
X108348459Y-135046175D01*
X108389581Y-135096282D01*
X108418579Y-135120080D01*
X109925528Y-136627030D01*
X109925528Y-137152801D01*
X109942592Y-137326055D01*
X109993128Y-137492651D01*
X110075195Y-137646187D01*
X110185638Y-137780762D01*
X110320213Y-137891205D01*
X110473749Y-137973272D01*
X110640345Y-138023808D01*
X110813599Y-138040872D01*
X111338601Y-138040872D01*
X111511855Y-138023808D01*
X111678451Y-137973272D01*
X111831987Y-137891205D01*
X111966562Y-137780762D01*
X111988600Y-137753909D01*
X112010638Y-137780762D01*
X112145213Y-137891205D01*
X112298749Y-137973272D01*
X112465345Y-138023808D01*
X112638599Y-138040872D01*
X113163601Y-138040872D01*
X113190884Y-138038185D01*
X113188800Y-138048661D01*
X113188800Y-138252539D01*
X113228574Y-138452498D01*
X113306595Y-138640856D01*
X113419863Y-138810374D01*
X113564026Y-138954537D01*
X113733544Y-139067805D01*
X113921902Y-139145826D01*
X114121861Y-139185600D01*
X114325739Y-139185600D01*
X114525698Y-139145826D01*
X114714056Y-139067805D01*
X114883574Y-138954537D01*
X115027737Y-138810374D01*
X115141005Y-138640856D01*
X115219026Y-138452498D01*
X115258800Y-138252539D01*
X115258800Y-138048661D01*
X115254686Y-138027978D01*
X115385599Y-138040872D01*
X115910601Y-138040872D01*
X116083855Y-138023808D01*
X116250451Y-137973272D01*
X116403987Y-137891205D01*
X116485237Y-137824524D01*
X116509415Y-137853985D01*
X116606106Y-137933337D01*
X116716420Y-137992302D01*
X116836118Y-138028612D01*
X116960600Y-138040872D01*
X117187350Y-138037800D01*
X117346100Y-137879050D01*
X117346100Y-136829800D01*
X117600100Y-136829800D01*
X117600100Y-137879050D01*
X117758850Y-138037800D01*
X117985600Y-138040872D01*
X118110082Y-138028612D01*
X118229780Y-137992302D01*
X118340094Y-137933337D01*
X118436785Y-137853985D01*
X118516137Y-137757294D01*
X118575102Y-137646980D01*
X118611412Y-137527282D01*
X118623672Y-137402800D01*
X118620600Y-136988550D01*
X118461850Y-136829800D01*
X117600100Y-136829800D01*
X117346100Y-136829800D01*
X117326100Y-136829800D01*
X117326100Y-136575800D01*
X117346100Y-136575800D01*
X117346100Y-135526550D01*
X117600100Y-135526550D01*
X117600100Y-136575800D01*
X118461850Y-136575800D01*
X118620600Y-136417050D01*
X118623672Y-136002800D01*
X118611412Y-135878318D01*
X118575102Y-135758620D01*
X118516137Y-135648306D01*
X118436785Y-135551615D01*
X118340094Y-135472263D01*
X118242319Y-135420000D01*
X121497928Y-135420000D01*
X121510188Y-135544482D01*
X121546498Y-135664180D01*
X121605463Y-135774494D01*
X121684815Y-135871185D01*
X121707741Y-135890000D01*
X121684815Y-135908815D01*
X121605463Y-136005506D01*
X121546498Y-136115820D01*
X121510188Y-136235518D01*
X121497928Y-136360000D01*
X121497928Y-137960000D01*
X121510188Y-138084482D01*
X121546498Y-138204180D01*
X121605463Y-138314494D01*
X121684815Y-138411185D01*
X121781506Y-138490537D01*
X121891820Y-138549502D01*
X122011518Y-138585812D01*
X122136000Y-138598072D01*
X123736000Y-138598072D01*
X123860482Y-138585812D01*
X123980180Y-138549502D01*
X124090494Y-138490537D01*
X124187185Y-138411185D01*
X124266537Y-138314494D01*
X124325502Y-138204180D01*
X124361812Y-138084482D01*
X124374072Y-137960000D01*
X124374072Y-136360000D01*
X124361812Y-136235518D01*
X124325502Y-136115820D01*
X124266537Y-136005506D01*
X124187185Y-135908815D01*
X124164259Y-135890000D01*
X124187185Y-135871185D01*
X124266537Y-135774494D01*
X124325502Y-135664180D01*
X124361812Y-135544482D01*
X124374072Y-135420000D01*
X124371000Y-134905750D01*
X124212250Y-134747000D01*
X123063000Y-134747000D01*
X123063000Y-134767000D01*
X122809000Y-134767000D01*
X122809000Y-134747000D01*
X121659750Y-134747000D01*
X121501000Y-134905750D01*
X121497928Y-135420000D01*
X118242319Y-135420000D01*
X118229780Y-135413298D01*
X118110082Y-135376988D01*
X117985600Y-135364728D01*
X117758850Y-135367800D01*
X117600100Y-135526550D01*
X117346100Y-135526550D01*
X117187350Y-135367800D01*
X116960600Y-135364728D01*
X116836118Y-135376988D01*
X116716420Y-135413298D01*
X116606106Y-135472263D01*
X116509415Y-135551615D01*
X116485237Y-135581076D01*
X116403987Y-135514395D01*
X116250451Y-135432328D01*
X116083855Y-135381792D01*
X115910601Y-135364728D01*
X115385599Y-135364728D01*
X115313762Y-135371803D01*
X115318805Y-135364256D01*
X115396826Y-135175898D01*
X115436600Y-134975939D01*
X115436600Y-134772061D01*
X115396826Y-134572102D01*
X115388219Y-134551323D01*
X115487199Y-134561072D01*
X116012201Y-134561072D01*
X116185455Y-134544008D01*
X116352051Y-134493472D01*
X116505587Y-134411405D01*
X116586837Y-134344724D01*
X116611015Y-134374185D01*
X116707706Y-134453537D01*
X116818020Y-134512502D01*
X116937718Y-134548812D01*
X117062200Y-134561072D01*
X117288950Y-134558000D01*
X117447700Y-134399250D01*
X117447700Y-133350000D01*
X117427700Y-133350000D01*
X117427700Y-133096000D01*
X117447700Y-133096000D01*
X117447700Y-133076000D01*
X117701700Y-133076000D01*
X117701700Y-133096000D01*
X117721700Y-133096000D01*
X117721700Y-133350000D01*
X117701700Y-133350000D01*
X117701700Y-134399250D01*
X117860450Y-134558000D01*
X118087200Y-134561072D01*
X118211682Y-134548812D01*
X118331380Y-134512502D01*
X118441694Y-134453537D01*
X118538385Y-134374185D01*
X118617737Y-134277494D01*
X118676702Y-134167180D01*
X118713012Y-134047482D01*
X118725272Y-133923000D01*
X118724584Y-133830258D01*
X118736424Y-133839975D01*
X118868454Y-133910547D01*
X119011715Y-133954004D01*
X119123368Y-133965001D01*
X119123378Y-133965001D01*
X119160701Y-133968677D01*
X119198024Y-133965001D01*
X121498794Y-133965001D01*
X121501000Y-134334250D01*
X121659750Y-134493000D01*
X122809000Y-134493000D01*
X122809000Y-134473000D01*
X123063000Y-134473000D01*
X123063000Y-134493000D01*
X124212250Y-134493000D01*
X124371000Y-134334250D01*
X124373206Y-133965001D01*
X126557972Y-133965001D01*
X126543107Y-140156084D01*
X106660000Y-139981671D01*
X106660000Y-112766193D01*
X106728311Y-98660000D01*
X126642738Y-98660000D01*
X126561621Y-132445001D01*
%TA.AperFunction,Conductor*%
D16*
G36*
X126561621Y-132445001D02*
G01*
X124374072Y-132445001D01*
X124374072Y-131280000D01*
X124361812Y-131155518D01*
X124325502Y-131035820D01*
X124266537Y-130925506D01*
X124187185Y-130828815D01*
X124090494Y-130749463D01*
X123980180Y-130690498D01*
X123860482Y-130654188D01*
X123736000Y-130641928D01*
X122572730Y-130641928D01*
X120902000Y-128971199D01*
X120902000Y-125260000D01*
X121497928Y-125260000D01*
X121510188Y-125384482D01*
X121546498Y-125504180D01*
X121605463Y-125614494D01*
X121684815Y-125711185D01*
X121707741Y-125730000D01*
X121684815Y-125748815D01*
X121605463Y-125845506D01*
X121546498Y-125955820D01*
X121510188Y-126075518D01*
X121497928Y-126200000D01*
X121497928Y-127800000D01*
X121510188Y-127924482D01*
X121546498Y-128044180D01*
X121605463Y-128154494D01*
X121684815Y-128251185D01*
X121781506Y-128330537D01*
X121891820Y-128389502D01*
X122011518Y-128425812D01*
X122136000Y-128438072D01*
X123736000Y-128438072D01*
X123860482Y-128425812D01*
X123980180Y-128389502D01*
X124090494Y-128330537D01*
X124187185Y-128251185D01*
X124266537Y-128154494D01*
X124325502Y-128044180D01*
X124361812Y-127924482D01*
X124374072Y-127800000D01*
X124374072Y-126200000D01*
X124361812Y-126075518D01*
X124325502Y-125955820D01*
X124266537Y-125845506D01*
X124187185Y-125748815D01*
X124164259Y-125730000D01*
X124187185Y-125711185D01*
X124266537Y-125614494D01*
X124325502Y-125504180D01*
X124361812Y-125384482D01*
X124374072Y-125260000D01*
X124371000Y-124745750D01*
X124212250Y-124587000D01*
X123063000Y-124587000D01*
X123063000Y-124607000D01*
X122809000Y-124607000D01*
X122809000Y-124587000D01*
X121659750Y-124587000D01*
X121501000Y-124745750D01*
X121497928Y-125260000D01*
X120902000Y-125260000D01*
X120902000Y-120960801D01*
X121497928Y-121556730D01*
X121497928Y-122720000D01*
X121510188Y-122844482D01*
X121546498Y-122964180D01*
X121605463Y-123074494D01*
X121684815Y-123171185D01*
X121707741Y-123190000D01*
X121684815Y-123208815D01*
X121605463Y-123305506D01*
X121546498Y-123415820D01*
X121510188Y-123535518D01*
X121497928Y-123660000D01*
X121501000Y-124174250D01*
X121659750Y-124333000D01*
X122809000Y-124333000D01*
X122809000Y-124313000D01*
X123063000Y-124313000D01*
X123063000Y-124333000D01*
X124212250Y-124333000D01*
X124371000Y-124174250D01*
X124374072Y-123660000D01*
X124361812Y-123535518D01*
X124325502Y-123415820D01*
X124266537Y-123305506D01*
X124187185Y-123208815D01*
X124164259Y-123190000D01*
X124187185Y-123171185D01*
X124266537Y-123074494D01*
X124325502Y-122964180D01*
X124361812Y-122844482D01*
X124374072Y-122720000D01*
X124374072Y-121120000D01*
X124361812Y-120995518D01*
X124325502Y-120875820D01*
X124266537Y-120765506D01*
X124187185Y-120668815D01*
X124090494Y-120589463D01*
X123980180Y-120530498D01*
X123860482Y-120494188D01*
X123736000Y-120481928D01*
X122572730Y-120481928D01*
X120902000Y-118811199D01*
X120902000Y-114922200D01*
X121497928Y-114922200D01*
X121510188Y-115046682D01*
X121546498Y-115166380D01*
X121605463Y-115276694D01*
X121684815Y-115373385D01*
X121707741Y-115392200D01*
X121684815Y-115411015D01*
X121605463Y-115507706D01*
X121546498Y-115618020D01*
X121510188Y-115737718D01*
X121497928Y-115862200D01*
X121497928Y-117462200D01*
X121510188Y-117586682D01*
X121546498Y-117706380D01*
X121605463Y-117816694D01*
X121684815Y-117913385D01*
X121781506Y-117992737D01*
X121891820Y-118051702D01*
X122011518Y-118088012D01*
X122136000Y-118100272D01*
X123736000Y-118100272D01*
X123860482Y-118088012D01*
X123980180Y-118051702D01*
X124090494Y-117992737D01*
X124187185Y-117913385D01*
X124266537Y-117816694D01*
X124325502Y-117706380D01*
X124361812Y-117586682D01*
X124374072Y-117462200D01*
X124374072Y-115862200D01*
X124361812Y-115737718D01*
X124325502Y-115618020D01*
X124266537Y-115507706D01*
X124187185Y-115411015D01*
X124164259Y-115392200D01*
X124187185Y-115373385D01*
X124266537Y-115276694D01*
X124325502Y-115166380D01*
X124361812Y-115046682D01*
X124374072Y-114922200D01*
X124371000Y-114407950D01*
X124212250Y-114249200D01*
X123063000Y-114249200D01*
X123063000Y-114269200D01*
X122809000Y-114269200D01*
X122809000Y-114249200D01*
X121659750Y-114249200D01*
X121501000Y-114407950D01*
X121497928Y-114922200D01*
X120902000Y-114922200D01*
X120902000Y-114591322D01*
X120905676Y-114553999D01*
X120902000Y-114516676D01*
X120902000Y-114516667D01*
X120891003Y-114405014D01*
X120847546Y-114261753D01*
X120776974Y-114129724D01*
X120740270Y-114085000D01*
X120705799Y-114042996D01*
X120705795Y-114042992D01*
X120682001Y-114013999D01*
X120653009Y-113990206D01*
X119181803Y-112519002D01*
X119158001Y-112489999D01*
X119042276Y-112395026D01*
X118910247Y-112324454D01*
X118856059Y-112308017D01*
X118835472Y-112240149D01*
X118753405Y-112086613D01*
X118642962Y-111952038D01*
X118508387Y-111841595D01*
X118355734Y-111760000D01*
X118508387Y-111678405D01*
X118642962Y-111567962D01*
X118747627Y-111440428D01*
X119400401Y-112093203D01*
X119424199Y-112122201D01*
X119453197Y-112145999D01*
X119539923Y-112217174D01*
X119671953Y-112287746D01*
X119815214Y-112331203D01*
X119926867Y-112342200D01*
X119926876Y-112342200D01*
X119964199Y-112345876D01*
X120001522Y-112342200D01*
X121497928Y-112342200D01*
X121497928Y-112382200D01*
X121510188Y-112506682D01*
X121546498Y-112626380D01*
X121605463Y-112736694D01*
X121684815Y-112833385D01*
X121707741Y-112852200D01*
X121684815Y-112871015D01*
X121605463Y-112967706D01*
X121546498Y-113078020D01*
X121510188Y-113197718D01*
X121497928Y-113322200D01*
X121501000Y-113836450D01*
X121659750Y-113995200D01*
X122809000Y-113995200D01*
X122809000Y-113975200D01*
X123063000Y-113975200D01*
X123063000Y-113995200D01*
X124212250Y-113995200D01*
X124371000Y-113836450D01*
X124374072Y-113322200D01*
X124361812Y-113197718D01*
X124325502Y-113078020D01*
X124266537Y-112967706D01*
X124187185Y-112871015D01*
X124164259Y-112852200D01*
X124187185Y-112833385D01*
X124266537Y-112736694D01*
X124325502Y-112626380D01*
X124361812Y-112506682D01*
X124374072Y-112382200D01*
X124374072Y-110782200D01*
X124361812Y-110657718D01*
X124325502Y-110538020D01*
X124266537Y-110427706D01*
X124187185Y-110331015D01*
X124090494Y-110251663D01*
X123980180Y-110192698D01*
X123860482Y-110156388D01*
X123736000Y-110144128D01*
X122136000Y-110144128D01*
X122011518Y-110156388D01*
X121891820Y-110192698D01*
X121781506Y-110251663D01*
X121684815Y-110331015D01*
X121605463Y-110427706D01*
X121546498Y-110538020D01*
X121510188Y-110657718D01*
X121497928Y-110782200D01*
X121497928Y-110822200D01*
X120279002Y-110822200D01*
X119435804Y-109979002D01*
X119412001Y-109949999D01*
X119296276Y-109855026D01*
X119164247Y-109784454D01*
X119020986Y-109740997D01*
X118909333Y-109730000D01*
X118909322Y-109730000D01*
X118872000Y-109726324D01*
X118844241Y-109729058D01*
X118835472Y-109700149D01*
X118753405Y-109546613D01*
X118642962Y-109412038D01*
X118508387Y-109301595D01*
X118355734Y-109220000D01*
X118508387Y-109138405D01*
X118642962Y-109027962D01*
X118753405Y-108893387D01*
X118835472Y-108739851D01*
X118886008Y-108573255D01*
X118903072Y-108400001D01*
X118903072Y-107499999D01*
X118886008Y-107326745D01*
X118835472Y-107160149D01*
X118753405Y-107006613D01*
X118642962Y-106872038D01*
X118512500Y-106764970D01*
X118512500Y-104686000D01*
X121497928Y-104686000D01*
X121510188Y-104810482D01*
X121546498Y-104930180D01*
X121605463Y-105040494D01*
X121684815Y-105137185D01*
X121707741Y-105156000D01*
X121684815Y-105174815D01*
X121605463Y-105271506D01*
X121546498Y-105381820D01*
X121510188Y-105501518D01*
X121497928Y-105626000D01*
X121497928Y-107226000D01*
X121510188Y-107350482D01*
X121546498Y-107470180D01*
X121605463Y-107580494D01*
X121684815Y-107677185D01*
X121781506Y-107756537D01*
X121891820Y-107815502D01*
X122011518Y-107851812D01*
X122136000Y-107864072D01*
X123736000Y-107864072D01*
X123860482Y-107851812D01*
X123980180Y-107815502D01*
X124090494Y-107756537D01*
X124187185Y-107677185D01*
X124266537Y-107580494D01*
X124325502Y-107470180D01*
X124361812Y-107350482D01*
X124374072Y-107226000D01*
X124374072Y-105626000D01*
X124361812Y-105501518D01*
X124325502Y-105381820D01*
X124266537Y-105271506D01*
X124187185Y-105174815D01*
X124164259Y-105156000D01*
X124187185Y-105137185D01*
X124266537Y-105040494D01*
X124325502Y-104930180D01*
X124361812Y-104810482D01*
X124374072Y-104686000D01*
X124371000Y-104171750D01*
X124212250Y-104013000D01*
X123063000Y-104013000D01*
X123063000Y-104033000D01*
X122809000Y-104033000D01*
X122809000Y-104013000D01*
X121659750Y-104013000D01*
X121501000Y-104171750D01*
X121497928Y-104686000D01*
X118512500Y-104686000D01*
X118512500Y-104558301D01*
X120964802Y-102106000D01*
X121497928Y-102106000D01*
X121497928Y-102146000D01*
X121510188Y-102270482D01*
X121546498Y-102390180D01*
X121605463Y-102500494D01*
X121684815Y-102597185D01*
X121707741Y-102616000D01*
X121684815Y-102634815D01*
X121605463Y-102731506D01*
X121546498Y-102841820D01*
X121510188Y-102961518D01*
X121497928Y-103086000D01*
X121501000Y-103600250D01*
X121659750Y-103759000D01*
X122809000Y-103759000D01*
X122809000Y-103739000D01*
X123063000Y-103739000D01*
X123063000Y-103759000D01*
X124212250Y-103759000D01*
X124371000Y-103600250D01*
X124374072Y-103086000D01*
X124361812Y-102961518D01*
X124325502Y-102841820D01*
X124266537Y-102731506D01*
X124187185Y-102634815D01*
X124164259Y-102616000D01*
X124187185Y-102597185D01*
X124266537Y-102500494D01*
X124325502Y-102390180D01*
X124361812Y-102270482D01*
X124374072Y-102146000D01*
X124374072Y-100546000D01*
X124361812Y-100421518D01*
X124325502Y-100301820D01*
X124266537Y-100191506D01*
X124187185Y-100094815D01*
X124090494Y-100015463D01*
X123980180Y-99956498D01*
X123860482Y-99920188D01*
X123736000Y-99907928D01*
X122136000Y-99907928D01*
X122011518Y-99920188D01*
X121891820Y-99956498D01*
X121781506Y-100015463D01*
X121684815Y-100094815D01*
X121605463Y-100191506D01*
X121546498Y-100301820D01*
X121510188Y-100421518D01*
X121497928Y-100546000D01*
X121497928Y-100586000D01*
X120687325Y-100586000D01*
X120650000Y-100582324D01*
X120612675Y-100586000D01*
X120612667Y-100586000D01*
X120501014Y-100596997D01*
X120357753Y-100640454D01*
X120225724Y-100711026D01*
X120109999Y-100805999D01*
X120086201Y-100834997D01*
X117241498Y-103679701D01*
X117212500Y-103703499D01*
X117188702Y-103732497D01*
X117188701Y-103732498D01*
X117117526Y-103819224D01*
X117046954Y-103951254D01*
X117003498Y-104094515D01*
X116988824Y-104243500D01*
X116992501Y-104280832D01*
X116992500Y-106764970D01*
X116862038Y-106872038D01*
X116840000Y-106898891D01*
X116817962Y-106872038D01*
X116683387Y-106761595D01*
X116529851Y-106679528D01*
X116363255Y-106628992D01*
X116190001Y-106611928D01*
X115664999Y-106611928D01*
X115491745Y-106628992D01*
X115325149Y-106679528D01*
X115171613Y-106761595D01*
X115037038Y-106872038D01*
X114926595Y-107006613D01*
X114844528Y-107160149D01*
X114835473Y-107190000D01*
X113756072Y-107190000D01*
X113756072Y-107100000D01*
X113743812Y-106975518D01*
X113707502Y-106855820D01*
X113648537Y-106745506D01*
X113569185Y-106648815D01*
X113472494Y-106569463D01*
X113362180Y-106510498D01*
X113242482Y-106474188D01*
X113118000Y-106461928D01*
X111418000Y-106461928D01*
X111293518Y-106474188D01*
X111173820Y-106510498D01*
X111063506Y-106569463D01*
X110966815Y-106648815D01*
X110887463Y-106745506D01*
X110828498Y-106855820D01*
X110792188Y-106975518D01*
X110779928Y-107100000D01*
X110779928Y-108800000D01*
X110792188Y-108924482D01*
X110828498Y-109044180D01*
X110887463Y-109154494D01*
X110966815Y-109251185D01*
X111063506Y-109330537D01*
X111173820Y-109389502D01*
X111246380Y-109411513D01*
X111114525Y-109543368D01*
X110952010Y-109786589D01*
X110840068Y-110056842D01*
X110783000Y-110343740D01*
X110783000Y-110636260D01*
X110840068Y-110923158D01*
X110952010Y-111193411D01*
X111114525Y-111436632D01*
X111321368Y-111643475D01*
X111495760Y-111760000D01*
X111321368Y-111876525D01*
X111114525Y-112083368D01*
X110952010Y-112326589D01*
X110840068Y-112596842D01*
X110783000Y-112883740D01*
X110783000Y-113176260D01*
X110840068Y-113463158D01*
X110952010Y-113733411D01*
X111114525Y-113976632D01*
X111321368Y-114183475D01*
X111495760Y-114300000D01*
X111321368Y-114416525D01*
X111114525Y-114623368D01*
X110952010Y-114866589D01*
X110840068Y-115136842D01*
X110783000Y-115423740D01*
X110783000Y-115716260D01*
X110840068Y-116003158D01*
X110952010Y-116273411D01*
X111114525Y-116516632D01*
X111321368Y-116723475D01*
X111495760Y-116840000D01*
X111321368Y-116956525D01*
X111114525Y-117163368D01*
X110952010Y-117406589D01*
X110840068Y-117676842D01*
X110783000Y-117963740D01*
X110783000Y-118256260D01*
X110826790Y-118476407D01*
X108418584Y-120884615D01*
X108389580Y-120908418D01*
X108361818Y-120942247D01*
X108294607Y-121024143D01*
X108279191Y-121052985D01*
X108224035Y-121156173D01*
X108180578Y-121299434D01*
X108169581Y-121411087D01*
X108169581Y-121411097D01*
X108165905Y-121448419D01*
X108169581Y-121485741D01*
X108169582Y-134518949D01*
X108165905Y-134556281D01*
X108180579Y-134705266D01*
X108224035Y-134848527D01*
X108294607Y-134980557D01*
X108348459Y-135046175D01*
X108389581Y-135096282D01*
X108418579Y-135120080D01*
X109925528Y-136627030D01*
X109925528Y-137152801D01*
X109942592Y-137326055D01*
X109993128Y-137492651D01*
X110075195Y-137646187D01*
X110185638Y-137780762D01*
X110320213Y-137891205D01*
X110473749Y-137973272D01*
X110640345Y-138023808D01*
X110813599Y-138040872D01*
X111338601Y-138040872D01*
X111511855Y-138023808D01*
X111678451Y-137973272D01*
X111831987Y-137891205D01*
X111966562Y-137780762D01*
X111988600Y-137753909D01*
X112010638Y-137780762D01*
X112145213Y-137891205D01*
X112298749Y-137973272D01*
X112465345Y-138023808D01*
X112638599Y-138040872D01*
X113163601Y-138040872D01*
X113190884Y-138038185D01*
X113188800Y-138048661D01*
X113188800Y-138252539D01*
X113228574Y-138452498D01*
X113306595Y-138640856D01*
X113419863Y-138810374D01*
X113564026Y-138954537D01*
X113733544Y-139067805D01*
X113921902Y-139145826D01*
X114121861Y-139185600D01*
X114325739Y-139185600D01*
X114525698Y-139145826D01*
X114714056Y-139067805D01*
X114883574Y-138954537D01*
X115027737Y-138810374D01*
X115141005Y-138640856D01*
X115219026Y-138452498D01*
X115258800Y-138252539D01*
X115258800Y-138048661D01*
X115254686Y-138027978D01*
X115385599Y-138040872D01*
X115910601Y-138040872D01*
X116083855Y-138023808D01*
X116250451Y-137973272D01*
X116403987Y-137891205D01*
X116485237Y-137824524D01*
X116509415Y-137853985D01*
X116606106Y-137933337D01*
X116716420Y-137992302D01*
X116836118Y-138028612D01*
X116960600Y-138040872D01*
X117187350Y-138037800D01*
X117346100Y-137879050D01*
X117346100Y-136829800D01*
X117600100Y-136829800D01*
X117600100Y-137879050D01*
X117758850Y-138037800D01*
X117985600Y-138040872D01*
X118110082Y-138028612D01*
X118229780Y-137992302D01*
X118340094Y-137933337D01*
X118436785Y-137853985D01*
X118516137Y-137757294D01*
X118575102Y-137646980D01*
X118611412Y-137527282D01*
X118623672Y-137402800D01*
X118620600Y-136988550D01*
X118461850Y-136829800D01*
X117600100Y-136829800D01*
X117346100Y-136829800D01*
X117326100Y-136829800D01*
X117326100Y-136575800D01*
X117346100Y-136575800D01*
X117346100Y-135526550D01*
X117600100Y-135526550D01*
X117600100Y-136575800D01*
X118461850Y-136575800D01*
X118620600Y-136417050D01*
X118623672Y-136002800D01*
X118611412Y-135878318D01*
X118575102Y-135758620D01*
X118516137Y-135648306D01*
X118436785Y-135551615D01*
X118340094Y-135472263D01*
X118242319Y-135420000D01*
X121497928Y-135420000D01*
X121510188Y-135544482D01*
X121546498Y-135664180D01*
X121605463Y-135774494D01*
X121684815Y-135871185D01*
X121707741Y-135890000D01*
X121684815Y-135908815D01*
X121605463Y-136005506D01*
X121546498Y-136115820D01*
X121510188Y-136235518D01*
X121497928Y-136360000D01*
X121497928Y-137960000D01*
X121510188Y-138084482D01*
X121546498Y-138204180D01*
X121605463Y-138314494D01*
X121684815Y-138411185D01*
X121781506Y-138490537D01*
X121891820Y-138549502D01*
X122011518Y-138585812D01*
X122136000Y-138598072D01*
X123736000Y-138598072D01*
X123860482Y-138585812D01*
X123980180Y-138549502D01*
X124090494Y-138490537D01*
X124187185Y-138411185D01*
X124266537Y-138314494D01*
X124325502Y-138204180D01*
X124361812Y-138084482D01*
X124374072Y-137960000D01*
X124374072Y-136360000D01*
X124361812Y-136235518D01*
X124325502Y-136115820D01*
X124266537Y-136005506D01*
X124187185Y-135908815D01*
X124164259Y-135890000D01*
X124187185Y-135871185D01*
X124266537Y-135774494D01*
X124325502Y-135664180D01*
X124361812Y-135544482D01*
X124374072Y-135420000D01*
X124371000Y-134905750D01*
X124212250Y-134747000D01*
X123063000Y-134747000D01*
X123063000Y-134767000D01*
X122809000Y-134767000D01*
X122809000Y-134747000D01*
X121659750Y-134747000D01*
X121501000Y-134905750D01*
X121497928Y-135420000D01*
X118242319Y-135420000D01*
X118229780Y-135413298D01*
X118110082Y-135376988D01*
X117985600Y-135364728D01*
X117758850Y-135367800D01*
X117600100Y-135526550D01*
X117346100Y-135526550D01*
X117187350Y-135367800D01*
X116960600Y-135364728D01*
X116836118Y-135376988D01*
X116716420Y-135413298D01*
X116606106Y-135472263D01*
X116509415Y-135551615D01*
X116485237Y-135581076D01*
X116403987Y-135514395D01*
X116250451Y-135432328D01*
X116083855Y-135381792D01*
X115910601Y-135364728D01*
X115385599Y-135364728D01*
X115313762Y-135371803D01*
X115318805Y-135364256D01*
X115396826Y-135175898D01*
X115436600Y-134975939D01*
X115436600Y-134772061D01*
X115396826Y-134572102D01*
X115388219Y-134551323D01*
X115487199Y-134561072D01*
X116012201Y-134561072D01*
X116185455Y-134544008D01*
X116352051Y-134493472D01*
X116505587Y-134411405D01*
X116586837Y-134344724D01*
X116611015Y-134374185D01*
X116707706Y-134453537D01*
X116818020Y-134512502D01*
X116937718Y-134548812D01*
X117062200Y-134561072D01*
X117288950Y-134558000D01*
X117447700Y-134399250D01*
X117447700Y-133350000D01*
X117427700Y-133350000D01*
X117427700Y-133096000D01*
X117447700Y-133096000D01*
X117447700Y-133076000D01*
X117701700Y-133076000D01*
X117701700Y-133096000D01*
X117721700Y-133096000D01*
X117721700Y-133350000D01*
X117701700Y-133350000D01*
X117701700Y-134399250D01*
X117860450Y-134558000D01*
X118087200Y-134561072D01*
X118211682Y-134548812D01*
X118331380Y-134512502D01*
X118441694Y-134453537D01*
X118538385Y-134374185D01*
X118617737Y-134277494D01*
X118676702Y-134167180D01*
X118713012Y-134047482D01*
X118725272Y-133923000D01*
X118724584Y-133830258D01*
X118736424Y-133839975D01*
X118868454Y-133910547D01*
X119011715Y-133954004D01*
X119123368Y-133965001D01*
X119123378Y-133965001D01*
X119160701Y-133968677D01*
X119198024Y-133965001D01*
X121498794Y-133965001D01*
X121501000Y-134334250D01*
X121659750Y-134493000D01*
X122809000Y-134493000D01*
X122809000Y-134473000D01*
X123063000Y-134473000D01*
X123063000Y-134493000D01*
X124212250Y-134493000D01*
X124371000Y-134334250D01*
X124373206Y-133965001D01*
X126557972Y-133965001D01*
X126543107Y-140156084D01*
X106660000Y-139981671D01*
X106660000Y-112766193D01*
X106728311Y-98660000D01*
X126642738Y-98660000D01*
X126561621Y-132445001D01*
G37*
%TD.AperFunction*%
D15*
X114844528Y-116359851D02*
X114926595Y-116513387D01*
X115037038Y-116647962D01*
X115171613Y-116758405D01*
X115325149Y-116840472D01*
X115491745Y-116891008D01*
X115664999Y-116908072D01*
X116190001Y-116908072D01*
X116363255Y-116891008D01*
X116529851Y-116840472D01*
X116683387Y-116758405D01*
X116817962Y-116647962D01*
X116840000Y-116621109D01*
X116862038Y-116647962D01*
X116992500Y-116755030D01*
X116992501Y-118477168D01*
X116988824Y-118514500D01*
X117003498Y-118663485D01*
X117046954Y-118806746D01*
X117117526Y-118938776D01*
X117188701Y-119025502D01*
X117212500Y-119054501D01*
X117241498Y-119078299D01*
X119382000Y-121218802D01*
X119382001Y-129248668D01*
X119378324Y-129286000D01*
X119382001Y-129323333D01*
X119384037Y-129343999D01*
X119392998Y-129434985D01*
X119436454Y-129578246D01*
X119507026Y-129710276D01*
X119575737Y-129794000D01*
X119602000Y-129826001D01*
X119630998Y-129849799D01*
X121497928Y-131716730D01*
X121497928Y-132445001D01*
X119475503Y-132445001D01*
X118155816Y-131125314D01*
X118211682Y-131119812D01*
X118331380Y-131083502D01*
X118441694Y-131024537D01*
X118538385Y-130945185D01*
X118617737Y-130848494D01*
X118676702Y-130738180D01*
X118713012Y-130618482D01*
X118725272Y-130494000D01*
X118722200Y-130079750D01*
X118563450Y-129921000D01*
X117701700Y-129921000D01*
X117701700Y-129941000D01*
X117447700Y-129941000D01*
X117447700Y-129921000D01*
X117427700Y-129921000D01*
X117427700Y-129667000D01*
X117447700Y-129667000D01*
X117447700Y-128617750D01*
X117701700Y-128617750D01*
X117701700Y-129667000D01*
X118563450Y-129667000D01*
X118722200Y-129508250D01*
X118725272Y-129094000D01*
X118713012Y-128969518D01*
X118676702Y-128849820D01*
X118617737Y-128739506D01*
X118538385Y-128642815D01*
X118441694Y-128563463D01*
X118331380Y-128504498D01*
X118211682Y-128468188D01*
X118087200Y-128455928D01*
X117860450Y-128459000D01*
X117701700Y-128617750D01*
X117447700Y-128617750D01*
X117288950Y-128459000D01*
X117062200Y-128455928D01*
X116937718Y-128468188D01*
X116818020Y-128504498D01*
X116707706Y-128563463D01*
X116611015Y-128642815D01*
X116586837Y-128672276D01*
X116505587Y-128605595D01*
X116352051Y-128523528D01*
X116185455Y-128472992D01*
X116012201Y-128455928D01*
X115487199Y-128455928D01*
X115313945Y-128472992D01*
X115147349Y-128523528D01*
X114993813Y-128605595D01*
X114859238Y-128716038D01*
X114748795Y-128850613D01*
X114666728Y-129004149D01*
X114657673Y-129034000D01*
X114094727Y-129034000D01*
X114085672Y-129004149D01*
X114003605Y-128850613D01*
X113893162Y-128716038D01*
X113758587Y-128605595D01*
X113605051Y-128523528D01*
X113438455Y-128472992D01*
X113265201Y-128455928D01*
X112740199Y-128455928D01*
X112566945Y-128472992D01*
X112400349Y-128523528D01*
X112246813Y-128605595D01*
X112112238Y-128716038D01*
X112090200Y-128742891D01*
X112068162Y-128716038D01*
X111933587Y-128605595D01*
X111780051Y-128523528D01*
X111613455Y-128472992D01*
X111440201Y-128455928D01*
X110915199Y-128455928D01*
X110914498Y-128455997D01*
X110589600Y-128131099D01*
X110589600Y-126086890D01*
X110826524Y-126086890D01*
X110871175Y-126234099D01*
X110996359Y-126496920D01*
X111170412Y-126730269D01*
X111386645Y-126925178D01*
X111636748Y-127074157D01*
X111911109Y-127171481D01*
X112141000Y-127050814D01*
X112141000Y-125857000D01*
X112395000Y-125857000D01*
X112395000Y-127050814D01*
X112624891Y-127171481D01*
X112899252Y-127074157D01*
X113149355Y-126925178D01*
X113365588Y-126730269D01*
X113539641Y-126496920D01*
X113664825Y-126234099D01*
X113709476Y-126086890D01*
X113588155Y-125857000D01*
X112395000Y-125857000D01*
X112141000Y-125857000D01*
X110947845Y-125857000D01*
X110826524Y-126086890D01*
X110589600Y-126086890D01*
X110589600Y-124012801D01*
X110652402Y-123950000D01*
X110989822Y-123950000D01*
X111114525Y-124136632D01*
X111321368Y-124343475D01*
X111503534Y-124465195D01*
X111386645Y-124534822D01*
X111170412Y-124729731D01*
X110996359Y-124963080D01*
X110871175Y-125225901D01*
X110826524Y-125373110D01*
X110947845Y-125603000D01*
X112141000Y-125603000D01*
X112141000Y-125583000D01*
X112395000Y-125583000D01*
X112395000Y-125603000D01*
X113588155Y-125603000D01*
X113709476Y-125373110D01*
X113664825Y-125225901D01*
X113539641Y-124963080D01*
X113365588Y-124729731D01*
X113149355Y-124534822D01*
X113032466Y-124465195D01*
X113214632Y-124343475D01*
X113421475Y-124136632D01*
X113583990Y-123893411D01*
X113695932Y-123623158D01*
X113753000Y-123336260D01*
X113753000Y-123043740D01*
X113695932Y-122756842D01*
X113583990Y-122486589D01*
X113421475Y-122243368D01*
X113214632Y-122036525D01*
X113040240Y-121920000D01*
X113214632Y-121803475D01*
X113421475Y-121596632D01*
X113583990Y-121353411D01*
X113695932Y-121083158D01*
X113753000Y-120796260D01*
X113753000Y-120503740D01*
X113695932Y-120216842D01*
X113583990Y-119946589D01*
X113421475Y-119703368D01*
X113214632Y-119496525D01*
X113040240Y-119380000D01*
X113214632Y-119263475D01*
X113421475Y-119056632D01*
X113583990Y-118813411D01*
X113695932Y-118543158D01*
X113753000Y-118256260D01*
X113753000Y-117963740D01*
X113695932Y-117676842D01*
X113583990Y-117406589D01*
X113421475Y-117163368D01*
X113214632Y-116956525D01*
X113040240Y-116840000D01*
X113214632Y-116723475D01*
X113421475Y-116516632D01*
X113546178Y-116330000D01*
X114835473Y-116330000D01*
X114844528Y-116359851D01*
%TA.AperFunction,Conductor*%
D16*
G36*
X114844528Y-116359851D02*
G01*
X114926595Y-116513387D01*
X115037038Y-116647962D01*
X115171613Y-116758405D01*
X115325149Y-116840472D01*
X115491745Y-116891008D01*
X115664999Y-116908072D01*
X116190001Y-116908072D01*
X116363255Y-116891008D01*
X116529851Y-116840472D01*
X116683387Y-116758405D01*
X116817962Y-116647962D01*
X116840000Y-116621109D01*
X116862038Y-116647962D01*
X116992500Y-116755030D01*
X116992501Y-118477168D01*
X116988824Y-118514500D01*
X117003498Y-118663485D01*
X117046954Y-118806746D01*
X117117526Y-118938776D01*
X117188701Y-119025502D01*
X117212500Y-119054501D01*
X117241498Y-119078299D01*
X119382000Y-121218802D01*
X119382001Y-129248668D01*
X119378324Y-129286000D01*
X119382001Y-129323333D01*
X119384037Y-129343999D01*
X119392998Y-129434985D01*
X119436454Y-129578246D01*
X119507026Y-129710276D01*
X119575737Y-129794000D01*
X119602000Y-129826001D01*
X119630998Y-129849799D01*
X121497928Y-131716730D01*
X121497928Y-132445001D01*
X119475503Y-132445001D01*
X118155816Y-131125314D01*
X118211682Y-131119812D01*
X118331380Y-131083502D01*
X118441694Y-131024537D01*
X118538385Y-130945185D01*
X118617737Y-130848494D01*
X118676702Y-130738180D01*
X118713012Y-130618482D01*
X118725272Y-130494000D01*
X118722200Y-130079750D01*
X118563450Y-129921000D01*
X117701700Y-129921000D01*
X117701700Y-129941000D01*
X117447700Y-129941000D01*
X117447700Y-129921000D01*
X117427700Y-129921000D01*
X117427700Y-129667000D01*
X117447700Y-129667000D01*
X117447700Y-128617750D01*
X117701700Y-128617750D01*
X117701700Y-129667000D01*
X118563450Y-129667000D01*
X118722200Y-129508250D01*
X118725272Y-129094000D01*
X118713012Y-128969518D01*
X118676702Y-128849820D01*
X118617737Y-128739506D01*
X118538385Y-128642815D01*
X118441694Y-128563463D01*
X118331380Y-128504498D01*
X118211682Y-128468188D01*
X118087200Y-128455928D01*
X117860450Y-128459000D01*
X117701700Y-128617750D01*
X117447700Y-128617750D01*
X117288950Y-128459000D01*
X117062200Y-128455928D01*
X116937718Y-128468188D01*
X116818020Y-128504498D01*
X116707706Y-128563463D01*
X116611015Y-128642815D01*
X116586837Y-128672276D01*
X116505587Y-128605595D01*
X116352051Y-128523528D01*
X116185455Y-128472992D01*
X116012201Y-128455928D01*
X115487199Y-128455928D01*
X115313945Y-128472992D01*
X115147349Y-128523528D01*
X114993813Y-128605595D01*
X114859238Y-128716038D01*
X114748795Y-128850613D01*
X114666728Y-129004149D01*
X114657673Y-129034000D01*
X114094727Y-129034000D01*
X114085672Y-129004149D01*
X114003605Y-128850613D01*
X113893162Y-128716038D01*
X113758587Y-128605595D01*
X113605051Y-128523528D01*
X113438455Y-128472992D01*
X113265201Y-128455928D01*
X112740199Y-128455928D01*
X112566945Y-128472992D01*
X112400349Y-128523528D01*
X112246813Y-128605595D01*
X112112238Y-128716038D01*
X112090200Y-128742891D01*
X112068162Y-128716038D01*
X111933587Y-128605595D01*
X111780051Y-128523528D01*
X111613455Y-128472992D01*
X111440201Y-128455928D01*
X110915199Y-128455928D01*
X110914498Y-128455997D01*
X110589600Y-128131099D01*
X110589600Y-126086890D01*
X110826524Y-126086890D01*
X110871175Y-126234099D01*
X110996359Y-126496920D01*
X111170412Y-126730269D01*
X111386645Y-126925178D01*
X111636748Y-127074157D01*
X111911109Y-127171481D01*
X112141000Y-127050814D01*
X112141000Y-125857000D01*
X112395000Y-125857000D01*
X112395000Y-127050814D01*
X112624891Y-127171481D01*
X112899252Y-127074157D01*
X113149355Y-126925178D01*
X113365588Y-126730269D01*
X113539641Y-126496920D01*
X113664825Y-126234099D01*
X113709476Y-126086890D01*
X113588155Y-125857000D01*
X112395000Y-125857000D01*
X112141000Y-125857000D01*
X110947845Y-125857000D01*
X110826524Y-126086890D01*
X110589600Y-126086890D01*
X110589600Y-124012801D01*
X110652402Y-123950000D01*
X110989822Y-123950000D01*
X111114525Y-124136632D01*
X111321368Y-124343475D01*
X111503534Y-124465195D01*
X111386645Y-124534822D01*
X111170412Y-124729731D01*
X110996359Y-124963080D01*
X110871175Y-125225901D01*
X110826524Y-125373110D01*
X110947845Y-125603000D01*
X112141000Y-125603000D01*
X112141000Y-125583000D01*
X112395000Y-125583000D01*
X112395000Y-125603000D01*
X113588155Y-125603000D01*
X113709476Y-125373110D01*
X113664825Y-125225901D01*
X113539641Y-124963080D01*
X113365588Y-124729731D01*
X113149355Y-124534822D01*
X113032466Y-124465195D01*
X113214632Y-124343475D01*
X113421475Y-124136632D01*
X113583990Y-123893411D01*
X113695932Y-123623158D01*
X113753000Y-123336260D01*
X113753000Y-123043740D01*
X113695932Y-122756842D01*
X113583990Y-122486589D01*
X113421475Y-122243368D01*
X113214632Y-122036525D01*
X113040240Y-121920000D01*
X113214632Y-121803475D01*
X113421475Y-121596632D01*
X113583990Y-121353411D01*
X113695932Y-121083158D01*
X113753000Y-120796260D01*
X113753000Y-120503740D01*
X113695932Y-120216842D01*
X113583990Y-119946589D01*
X113421475Y-119703368D01*
X113214632Y-119496525D01*
X113040240Y-119380000D01*
X113214632Y-119263475D01*
X113421475Y-119056632D01*
X113583990Y-118813411D01*
X113695932Y-118543158D01*
X113753000Y-118256260D01*
X113753000Y-117963740D01*
X113695932Y-117676842D01*
X113583990Y-117406589D01*
X113421475Y-117163368D01*
X113214632Y-116956525D01*
X113040240Y-116840000D01*
X113214632Y-116723475D01*
X113421475Y-116516632D01*
X113546178Y-116330000D01*
X114835473Y-116330000D01*
X114844528Y-116359851D01*
G37*
%TD.AperFunction*%
%TD*%
D15*
%TO.N,GND2*%
X143340000Y-140340000D02*
X128578244Y-140340000D01*
X128616122Y-133965001D01*
X129118794Y-133965001D01*
X129121000Y-134334250D01*
X129279750Y-134493000D01*
X130429000Y-134493000D01*
X130429000Y-134473000D01*
X130683000Y-134473000D01*
X130683000Y-134493000D01*
X130703000Y-134493000D01*
X130703000Y-134747000D01*
X130683000Y-134747000D01*
X130683000Y-134767000D01*
X130429000Y-134767000D01*
X130429000Y-134747000D01*
X129279750Y-134747000D01*
X129121000Y-134905750D01*
X129118196Y-135375184D01*
X129071723Y-135400025D01*
X128955998Y-135494998D01*
X128932195Y-135524002D01*
X128919997Y-135536200D01*
X128890999Y-135559998D01*
X128867201Y-135588996D01*
X128867200Y-135588997D01*
X128796025Y-135675723D01*
X128725453Y-135807753D01*
X128706212Y-135871185D01*
X128681997Y-135951013D01*
X128671000Y-136062666D01*
X128667323Y-136099999D01*
X128671000Y-136137331D01*
X128670999Y-138182678D01*
X128667323Y-138220001D01*
X128670999Y-138257323D01*
X128670999Y-138257333D01*
X128681996Y-138368986D01*
X128721153Y-138498072D01*
X128725453Y-138512247D01*
X128796025Y-138644277D01*
X128835870Y-138692827D01*
X128890998Y-138760002D01*
X128920001Y-138783804D01*
X129282218Y-139146022D01*
X129306017Y-139175021D01*
X129421742Y-139269994D01*
X129553771Y-139340566D01*
X129697032Y-139384023D01*
X129808685Y-139395020D01*
X129808694Y-139395020D01*
X129846017Y-139398696D01*
X129883340Y-139395020D01*
X136690258Y-139395020D01*
X136727580Y-139398696D01*
X136764902Y-139395020D01*
X136764913Y-139395020D01*
X136876566Y-139384023D01*
X137019827Y-139340566D01*
X137151856Y-139269994D01*
X137267581Y-139175021D01*
X137291384Y-139146017D01*
X143340000Y-133097402D01*
X143340000Y-140340000D01*
%TA.AperFunction,Conductor*%
D16*
G36*
X143340000Y-140340000D02*
G01*
X128578244Y-140340000D01*
X128616122Y-133965001D01*
X129118794Y-133965001D01*
X129121000Y-134334250D01*
X129279750Y-134493000D01*
X130429000Y-134493000D01*
X130429000Y-134473000D01*
X130683000Y-134473000D01*
X130683000Y-134493000D01*
X130703000Y-134493000D01*
X130703000Y-134747000D01*
X130683000Y-134747000D01*
X130683000Y-134767000D01*
X130429000Y-134767000D01*
X130429000Y-134747000D01*
X129279750Y-134747000D01*
X129121000Y-134905750D01*
X129118196Y-135375184D01*
X129071723Y-135400025D01*
X128955998Y-135494998D01*
X128932195Y-135524002D01*
X128919997Y-135536200D01*
X128890999Y-135559998D01*
X128867201Y-135588996D01*
X128867200Y-135588997D01*
X128796025Y-135675723D01*
X128725453Y-135807753D01*
X128706212Y-135871185D01*
X128681997Y-135951013D01*
X128671000Y-136062666D01*
X128667323Y-136099999D01*
X128671000Y-136137331D01*
X128670999Y-138182678D01*
X128667323Y-138220001D01*
X128670999Y-138257323D01*
X128670999Y-138257333D01*
X128681996Y-138368986D01*
X128721153Y-138498072D01*
X128725453Y-138512247D01*
X128796025Y-138644277D01*
X128835870Y-138692827D01*
X128890998Y-138760002D01*
X128920001Y-138783804D01*
X129282218Y-139146022D01*
X129306017Y-139175021D01*
X129421742Y-139269994D01*
X129553771Y-139340566D01*
X129697032Y-139384023D01*
X129808685Y-139395020D01*
X129808694Y-139395020D01*
X129846017Y-139398696D01*
X129883340Y-139395020D01*
X136690258Y-139395020D01*
X136727580Y-139398696D01*
X136764902Y-139395020D01*
X136764913Y-139395020D01*
X136876566Y-139384023D01*
X137019827Y-139340566D01*
X137151856Y-139269994D01*
X137267581Y-139175021D01*
X137291384Y-139146017D01*
X143340000Y-133097402D01*
X143340000Y-140340000D01*
G37*
%TD.AperFunction*%
D15*
X136651614Y-124193003D02*
X136763267Y-124204000D01*
X136763277Y-124204000D01*
X136800600Y-124207676D01*
X136837923Y-124204000D01*
X140199822Y-124204000D01*
X140324525Y-124390632D01*
X140531368Y-124597475D01*
X140713534Y-124719195D01*
X140596645Y-124788822D01*
X140380412Y-124983731D01*
X140206359Y-125217080D01*
X140081175Y-125479901D01*
X140036524Y-125627110D01*
X140157845Y-125857000D01*
X141351000Y-125857000D01*
X141351000Y-125837000D01*
X141605000Y-125837000D01*
X141605000Y-125857000D01*
X141625000Y-125857000D01*
X141625000Y-126111000D01*
X141605000Y-126111000D01*
X141605000Y-128397000D01*
X141625000Y-128397000D01*
X141625000Y-128651000D01*
X141605000Y-128651000D01*
X141605000Y-129844814D01*
X141834891Y-129965481D01*
X141893001Y-129944868D01*
X141893001Y-131758387D01*
X137160191Y-136491197D01*
X137123472Y-136370149D01*
X137041405Y-136216613D01*
X136930962Y-136082038D01*
X136800500Y-135974970D01*
X136800500Y-133283822D01*
X136804176Y-133246499D01*
X136800500Y-133209176D01*
X136800500Y-133209167D01*
X136789503Y-133097514D01*
X136746046Y-132954253D01*
X136714141Y-132894564D01*
X136675474Y-132822223D01*
X136604299Y-132735497D01*
X136580501Y-132706499D01*
X136551504Y-132682702D01*
X135821801Y-131953000D01*
X136297504Y-131477298D01*
X136326501Y-131453501D01*
X136352832Y-131421417D01*
X136421474Y-131337777D01*
X136492046Y-131205747D01*
X136492046Y-131205746D01*
X136535503Y-131062486D01*
X136546500Y-130950833D01*
X136546500Y-130950824D01*
X136550176Y-130913501D01*
X136546500Y-130876178D01*
X136546500Y-128880890D01*
X140036524Y-128880890D01*
X140081175Y-129028099D01*
X140206359Y-129290920D01*
X140380412Y-129524269D01*
X140596645Y-129719178D01*
X140846748Y-129868157D01*
X141121109Y-129965481D01*
X141351000Y-129844814D01*
X141351000Y-128651000D01*
X140157845Y-128651000D01*
X140036524Y-128880890D01*
X136546500Y-128880890D01*
X136546500Y-128185030D01*
X136676962Y-128077962D01*
X136787405Y-127943387D01*
X136869472Y-127789851D01*
X136920008Y-127623255D01*
X136937072Y-127450001D01*
X136937072Y-126549999D01*
X136920008Y-126376745D01*
X136909132Y-126340890D01*
X140036524Y-126340890D01*
X140081175Y-126488099D01*
X140206359Y-126750920D01*
X140380412Y-126984269D01*
X140596645Y-127179178D01*
X140722255Y-127254000D01*
X140596645Y-127328822D01*
X140380412Y-127523731D01*
X140206359Y-127757080D01*
X140081175Y-128019901D01*
X140036524Y-128167110D01*
X140157845Y-128397000D01*
X141351000Y-128397000D01*
X141351000Y-126111000D01*
X140157845Y-126111000D01*
X140036524Y-126340890D01*
X136909132Y-126340890D01*
X136869472Y-126210149D01*
X136787405Y-126056613D01*
X136676962Y-125922038D01*
X136546500Y-125814970D01*
X136546500Y-124161118D01*
X136651614Y-124193003D01*
%TA.AperFunction,Conductor*%
D16*
G36*
X136651614Y-124193003D02*
G01*
X136763267Y-124204000D01*
X136763277Y-124204000D01*
X136800600Y-124207676D01*
X136837923Y-124204000D01*
X140199822Y-124204000D01*
X140324525Y-124390632D01*
X140531368Y-124597475D01*
X140713534Y-124719195D01*
X140596645Y-124788822D01*
X140380412Y-124983731D01*
X140206359Y-125217080D01*
X140081175Y-125479901D01*
X140036524Y-125627110D01*
X140157845Y-125857000D01*
X141351000Y-125857000D01*
X141351000Y-125837000D01*
X141605000Y-125837000D01*
X141605000Y-125857000D01*
X141625000Y-125857000D01*
X141625000Y-126111000D01*
X141605000Y-126111000D01*
X141605000Y-128397000D01*
X141625000Y-128397000D01*
X141625000Y-128651000D01*
X141605000Y-128651000D01*
X141605000Y-129844814D01*
X141834891Y-129965481D01*
X141893001Y-129944868D01*
X141893001Y-131758387D01*
X137160191Y-136491197D01*
X137123472Y-136370149D01*
X137041405Y-136216613D01*
X136930962Y-136082038D01*
X136800500Y-135974970D01*
X136800500Y-133283822D01*
X136804176Y-133246499D01*
X136800500Y-133209176D01*
X136800500Y-133209167D01*
X136789503Y-133097514D01*
X136746046Y-132954253D01*
X136714141Y-132894564D01*
X136675474Y-132822223D01*
X136604299Y-132735497D01*
X136580501Y-132706499D01*
X136551504Y-132682702D01*
X135821801Y-131953000D01*
X136297504Y-131477298D01*
X136326501Y-131453501D01*
X136352832Y-131421417D01*
X136421474Y-131337777D01*
X136492046Y-131205747D01*
X136492046Y-131205746D01*
X136535503Y-131062486D01*
X136546500Y-130950833D01*
X136546500Y-130950824D01*
X136550176Y-130913501D01*
X136546500Y-130876178D01*
X136546500Y-128880890D01*
X140036524Y-128880890D01*
X140081175Y-129028099D01*
X140206359Y-129290920D01*
X140380412Y-129524269D01*
X140596645Y-129719178D01*
X140846748Y-129868157D01*
X141121109Y-129965481D01*
X141351000Y-129844814D01*
X141351000Y-128651000D01*
X140157845Y-128651000D01*
X140036524Y-128880890D01*
X136546500Y-128880890D01*
X136546500Y-128185030D01*
X136676962Y-128077962D01*
X136787405Y-127943387D01*
X136869472Y-127789851D01*
X136920008Y-127623255D01*
X136937072Y-127450001D01*
X136937072Y-126549999D01*
X136920008Y-126376745D01*
X136909132Y-126340890D01*
X140036524Y-126340890D01*
X140081175Y-126488099D01*
X140206359Y-126750920D01*
X140380412Y-126984269D01*
X140596645Y-127179178D01*
X140722255Y-127254000D01*
X140596645Y-127328822D01*
X140380412Y-127523731D01*
X140206359Y-127757080D01*
X140081175Y-128019901D01*
X140036524Y-128167110D01*
X140157845Y-128397000D01*
X141351000Y-128397000D01*
X141351000Y-126111000D01*
X140157845Y-126111000D01*
X140036524Y-126340890D01*
X136909132Y-126340890D01*
X136869472Y-126210149D01*
X136787405Y-126056613D01*
X136676962Y-125922038D01*
X136546500Y-125814970D01*
X136546500Y-124161118D01*
X136651614Y-124193003D01*
G37*
%TD.AperFunction*%
D15*
X128796025Y-105725275D02*
X128849986Y-105791026D01*
X128890999Y-105841000D01*
X128919997Y-105864798D01*
X129117928Y-106062729D01*
X129117928Y-107226000D01*
X129130188Y-107350482D01*
X129166498Y-107470180D01*
X129225463Y-107580494D01*
X129304815Y-107677185D01*
X129401506Y-107756537D01*
X129511820Y-107815502D01*
X129631518Y-107851812D01*
X129756000Y-107864072D01*
X131356000Y-107864072D01*
X131480482Y-107851812D01*
X131600180Y-107815502D01*
X131710494Y-107756537D01*
X131807185Y-107677185D01*
X131886537Y-107580494D01*
X131945502Y-107470180D01*
X131981812Y-107350482D01*
X131994072Y-107226000D01*
X131994072Y-107186000D01*
X132869473Y-107186000D01*
X132878528Y-107215851D01*
X132960595Y-107369387D01*
X133071038Y-107503962D01*
X133205613Y-107614405D01*
X133359149Y-107696472D01*
X133525745Y-107747008D01*
X133698999Y-107764072D01*
X134224001Y-107764072D01*
X134397255Y-107747008D01*
X134563851Y-107696472D01*
X134717387Y-107614405D01*
X134851962Y-107503962D01*
X134874000Y-107477109D01*
X134896038Y-107503962D01*
X135026500Y-107611030D01*
X135026501Y-110822200D01*
X131994072Y-110822200D01*
X131994072Y-110782200D01*
X131981812Y-110657718D01*
X131945502Y-110538020D01*
X131886537Y-110427706D01*
X131807185Y-110331015D01*
X131710494Y-110251663D01*
X131600180Y-110192698D01*
X131480482Y-110156388D01*
X131356000Y-110144128D01*
X129756000Y-110144128D01*
X129631518Y-110156388D01*
X129511820Y-110192698D01*
X129401506Y-110251663D01*
X129304815Y-110331015D01*
X129225463Y-110427706D01*
X129166498Y-110538020D01*
X129130188Y-110657718D01*
X129117928Y-110782200D01*
X129117928Y-112382200D01*
X129130188Y-112506682D01*
X129166498Y-112626380D01*
X129225463Y-112736694D01*
X129304815Y-112833385D01*
X129327741Y-112852200D01*
X129304815Y-112871015D01*
X129225463Y-112967706D01*
X129166498Y-113078020D01*
X129130188Y-113197718D01*
X129117928Y-113322200D01*
X129121000Y-113836450D01*
X129279750Y-113995200D01*
X130429000Y-113995200D01*
X130429000Y-113975200D01*
X130683000Y-113975200D01*
X130683000Y-113995200D01*
X131832250Y-113995200D01*
X131991000Y-113836450D01*
X131994072Y-113322200D01*
X131981812Y-113197718D01*
X131945502Y-113078020D01*
X131886537Y-112967706D01*
X131807185Y-112871015D01*
X131784259Y-112852200D01*
X131807185Y-112833385D01*
X131886537Y-112736694D01*
X131945502Y-112626380D01*
X131981812Y-112506682D01*
X131994072Y-112382200D01*
X131994072Y-112342200D01*
X135026500Y-112342200D01*
X135026501Y-115400970D01*
X134896038Y-115508038D01*
X134874000Y-115534891D01*
X134851962Y-115508038D01*
X134721500Y-115400970D01*
X134721500Y-114163611D01*
X134765437Y-114119674D01*
X134878705Y-113950156D01*
X134956726Y-113761798D01*
X134996500Y-113561839D01*
X134996500Y-113357961D01*
X134956726Y-113158002D01*
X134878705Y-112969644D01*
X134765437Y-112800126D01*
X134621274Y-112655963D01*
X134451756Y-112542695D01*
X134263398Y-112464674D01*
X134063439Y-112424900D01*
X133859561Y-112424900D01*
X133659602Y-112464674D01*
X133471244Y-112542695D01*
X133301726Y-112655963D01*
X133157563Y-112800126D01*
X133044295Y-112969644D01*
X132966274Y-113158002D01*
X132926500Y-113357961D01*
X132926500Y-113561839D01*
X132966274Y-113761798D01*
X133044295Y-113950156D01*
X133157563Y-114119674D01*
X133201501Y-114163612D01*
X133201500Y-115400970D01*
X133071038Y-115508038D01*
X132960595Y-115642613D01*
X132878528Y-115796149D01*
X132869473Y-115826000D01*
X131990507Y-115826000D01*
X131981812Y-115737718D01*
X131945502Y-115618020D01*
X131886537Y-115507706D01*
X131807185Y-115411015D01*
X131784259Y-115392200D01*
X131807185Y-115373385D01*
X131886537Y-115276694D01*
X131945502Y-115166380D01*
X131981812Y-115046682D01*
X131994072Y-114922200D01*
X131991000Y-114407950D01*
X131832250Y-114249200D01*
X130683000Y-114249200D01*
X130683000Y-114269200D01*
X130429000Y-114269200D01*
X130429000Y-114249200D01*
X129279750Y-114249200D01*
X129121000Y-114407950D01*
X129117928Y-114922200D01*
X129130188Y-115046682D01*
X129166498Y-115166380D01*
X129225463Y-115276694D01*
X129304815Y-115373385D01*
X129327741Y-115392200D01*
X129304815Y-115411015D01*
X129225463Y-115507706D01*
X129166498Y-115618020D01*
X129130188Y-115737718D01*
X129117928Y-115862200D01*
X129117928Y-117462200D01*
X129130188Y-117586682D01*
X129166498Y-117706380D01*
X129225463Y-117816694D01*
X129304815Y-117913385D01*
X129401506Y-117992737D01*
X129511820Y-118051702D01*
X129631518Y-118088012D01*
X129756000Y-118100272D01*
X131356000Y-118100272D01*
X131480482Y-118088012D01*
X131600180Y-118051702D01*
X131710494Y-117992737D01*
X131807185Y-117913385D01*
X131886537Y-117816694D01*
X131945502Y-117706380D01*
X131981812Y-117586682D01*
X131994072Y-117462200D01*
X131994072Y-117346000D01*
X132869473Y-117346000D01*
X132878528Y-117375851D01*
X132960595Y-117529387D01*
X133071038Y-117663962D01*
X133205613Y-117774405D01*
X133359149Y-117856472D01*
X133525745Y-117907008D01*
X133698999Y-117924072D01*
X134224001Y-117924072D01*
X134397255Y-117907008D01*
X134563851Y-117856472D01*
X134717387Y-117774405D01*
X134851962Y-117663962D01*
X134874000Y-117637109D01*
X134896038Y-117663962D01*
X135026500Y-117771030D01*
X135026501Y-121160000D01*
X131994072Y-121160000D01*
X131994072Y-121120000D01*
X131981812Y-120995518D01*
X131945502Y-120875820D01*
X131886537Y-120765506D01*
X131807185Y-120668815D01*
X131710494Y-120589463D01*
X131600180Y-120530498D01*
X131480482Y-120494188D01*
X131356000Y-120481928D01*
X129756000Y-120481928D01*
X129631518Y-120494188D01*
X129511820Y-120530498D01*
X129401506Y-120589463D01*
X129304815Y-120668815D01*
X129225463Y-120765506D01*
X129166498Y-120875820D01*
X129130188Y-120995518D01*
X129117928Y-121120000D01*
X129117928Y-122720000D01*
X129130188Y-122844482D01*
X129166498Y-122964180D01*
X129225463Y-123074494D01*
X129304815Y-123171185D01*
X129327741Y-123190000D01*
X129304815Y-123208815D01*
X129225463Y-123305506D01*
X129166498Y-123415820D01*
X129130188Y-123535518D01*
X129117928Y-123660000D01*
X129121000Y-124174250D01*
X129279750Y-124333000D01*
X130429000Y-124333000D01*
X130429000Y-124313000D01*
X130683000Y-124313000D01*
X130683000Y-124333000D01*
X131832250Y-124333000D01*
X131991000Y-124174250D01*
X131994072Y-123660000D01*
X131981812Y-123535518D01*
X131945502Y-123415820D01*
X131886537Y-123305506D01*
X131807185Y-123208815D01*
X131784259Y-123190000D01*
X131807185Y-123171185D01*
X131886537Y-123074494D01*
X131945502Y-122964180D01*
X131981812Y-122844482D01*
X131994072Y-122720000D01*
X131994072Y-122680000D01*
X133209089Y-122680000D01*
X133130263Y-122758826D01*
X133016995Y-122928344D01*
X132938974Y-123116702D01*
X132899200Y-123316661D01*
X132899200Y-123520539D01*
X132938974Y-123720498D01*
X133016995Y-123908856D01*
X133130263Y-124078374D01*
X133201501Y-124149612D01*
X133201500Y-125814970D01*
X133071038Y-125922038D01*
X132960595Y-126056613D01*
X132878528Y-126210149D01*
X132869473Y-126240000D01*
X131994072Y-126240000D01*
X131994072Y-126200000D01*
X131981812Y-126075518D01*
X131945502Y-125955820D01*
X131886537Y-125845506D01*
X131807185Y-125748815D01*
X131784259Y-125730000D01*
X131807185Y-125711185D01*
X131886537Y-125614494D01*
X131945502Y-125504180D01*
X131981812Y-125384482D01*
X131994072Y-125260000D01*
X131991000Y-124745750D01*
X131832250Y-124587000D01*
X130683000Y-124587000D01*
X130683000Y-124607000D01*
X130429000Y-124607000D01*
X130429000Y-124587000D01*
X129279750Y-124587000D01*
X129121000Y-124745750D01*
X129117928Y-125260000D01*
X129130188Y-125384482D01*
X129166498Y-125504180D01*
X129225463Y-125614494D01*
X129304815Y-125711185D01*
X129327741Y-125730000D01*
X129304815Y-125748815D01*
X129225463Y-125845506D01*
X129166498Y-125955820D01*
X129130188Y-126075518D01*
X129117928Y-126200000D01*
X129117928Y-127800000D01*
X129130188Y-127924482D01*
X129166498Y-128044180D01*
X129225463Y-128154494D01*
X129304815Y-128251185D01*
X129401506Y-128330537D01*
X129511820Y-128389502D01*
X129631518Y-128425812D01*
X129756000Y-128438072D01*
X131356000Y-128438072D01*
X131480482Y-128425812D01*
X131600180Y-128389502D01*
X131710494Y-128330537D01*
X131807185Y-128251185D01*
X131886537Y-128154494D01*
X131945502Y-128044180D01*
X131981812Y-127924482D01*
X131994072Y-127800000D01*
X131994072Y-127760000D01*
X132869473Y-127760000D01*
X132878528Y-127789851D01*
X132960595Y-127943387D01*
X133071038Y-128077962D01*
X133205613Y-128188405D01*
X133359149Y-128270472D01*
X133525745Y-128321008D01*
X133698999Y-128338072D01*
X134224001Y-128338072D01*
X134397255Y-128321008D01*
X134563851Y-128270472D01*
X134717387Y-128188405D01*
X134851962Y-128077962D01*
X134874000Y-128051109D01*
X134896038Y-128077962D01*
X135026501Y-128185030D01*
X135026500Y-130598698D01*
X134305199Y-131320000D01*
X131994072Y-131320000D01*
X131994072Y-131280000D01*
X131981812Y-131155518D01*
X131945502Y-131035820D01*
X131886537Y-130925506D01*
X131807185Y-130828815D01*
X131710494Y-130749463D01*
X131600180Y-130690498D01*
X131480482Y-130654188D01*
X131356000Y-130641928D01*
X129756000Y-130641928D01*
X129631518Y-130654188D01*
X129511820Y-130690498D01*
X129401506Y-130749463D01*
X129304815Y-130828815D01*
X129225463Y-130925506D01*
X129166498Y-131035820D01*
X129130188Y-131155518D01*
X129117928Y-131280000D01*
X129117928Y-132445001D01*
X128625154Y-132445001D01*
X128703318Y-119289962D01*
X132201499Y-119289962D01*
X132201499Y-119493840D01*
X132241273Y-119693799D01*
X132319294Y-119882157D01*
X132432562Y-120051675D01*
X132576725Y-120195838D01*
X132746243Y-120309106D01*
X132934601Y-120387127D01*
X133134560Y-120426901D01*
X133338438Y-120426901D01*
X133538397Y-120387127D01*
X133726755Y-120309106D01*
X133896273Y-120195838D01*
X134040436Y-120051675D01*
X134153704Y-119882157D01*
X134231725Y-119693799D01*
X134271499Y-119493840D01*
X134271499Y-119289962D01*
X134231725Y-119090003D01*
X134153704Y-118901645D01*
X134040436Y-118732127D01*
X133896273Y-118587964D01*
X133726755Y-118474696D01*
X133538397Y-118396675D01*
X133338438Y-118356901D01*
X133134560Y-118356901D01*
X132934601Y-118396675D01*
X132746243Y-118474696D01*
X132576725Y-118587964D01*
X132432562Y-118732127D01*
X132319294Y-118901645D01*
X132241273Y-119090003D01*
X132201499Y-119289962D01*
X128703318Y-119289962D01*
X128784050Y-105702871D01*
X128796025Y-105725275D01*
%TA.AperFunction,Conductor*%
D16*
G36*
X128796025Y-105725275D02*
G01*
X128849986Y-105791026D01*
X128890999Y-105841000D01*
X128919997Y-105864798D01*
X129117928Y-106062729D01*
X129117928Y-107226000D01*
X129130188Y-107350482D01*
X129166498Y-107470180D01*
X129225463Y-107580494D01*
X129304815Y-107677185D01*
X129401506Y-107756537D01*
X129511820Y-107815502D01*
X129631518Y-107851812D01*
X129756000Y-107864072D01*
X131356000Y-107864072D01*
X131480482Y-107851812D01*
X131600180Y-107815502D01*
X131710494Y-107756537D01*
X131807185Y-107677185D01*
X131886537Y-107580494D01*
X131945502Y-107470180D01*
X131981812Y-107350482D01*
X131994072Y-107226000D01*
X131994072Y-107186000D01*
X132869473Y-107186000D01*
X132878528Y-107215851D01*
X132960595Y-107369387D01*
X133071038Y-107503962D01*
X133205613Y-107614405D01*
X133359149Y-107696472D01*
X133525745Y-107747008D01*
X133698999Y-107764072D01*
X134224001Y-107764072D01*
X134397255Y-107747008D01*
X134563851Y-107696472D01*
X134717387Y-107614405D01*
X134851962Y-107503962D01*
X134874000Y-107477109D01*
X134896038Y-107503962D01*
X135026500Y-107611030D01*
X135026501Y-110822200D01*
X131994072Y-110822200D01*
X131994072Y-110782200D01*
X131981812Y-110657718D01*
X131945502Y-110538020D01*
X131886537Y-110427706D01*
X131807185Y-110331015D01*
X131710494Y-110251663D01*
X131600180Y-110192698D01*
X131480482Y-110156388D01*
X131356000Y-110144128D01*
X129756000Y-110144128D01*
X129631518Y-110156388D01*
X129511820Y-110192698D01*
X129401506Y-110251663D01*
X129304815Y-110331015D01*
X129225463Y-110427706D01*
X129166498Y-110538020D01*
X129130188Y-110657718D01*
X129117928Y-110782200D01*
X129117928Y-112382200D01*
X129130188Y-112506682D01*
X129166498Y-112626380D01*
X129225463Y-112736694D01*
X129304815Y-112833385D01*
X129327741Y-112852200D01*
X129304815Y-112871015D01*
X129225463Y-112967706D01*
X129166498Y-113078020D01*
X129130188Y-113197718D01*
X129117928Y-113322200D01*
X129121000Y-113836450D01*
X129279750Y-113995200D01*
X130429000Y-113995200D01*
X130429000Y-113975200D01*
X130683000Y-113975200D01*
X130683000Y-113995200D01*
X131832250Y-113995200D01*
X131991000Y-113836450D01*
X131994072Y-113322200D01*
X131981812Y-113197718D01*
X131945502Y-113078020D01*
X131886537Y-112967706D01*
X131807185Y-112871015D01*
X131784259Y-112852200D01*
X131807185Y-112833385D01*
X131886537Y-112736694D01*
X131945502Y-112626380D01*
X131981812Y-112506682D01*
X131994072Y-112382200D01*
X131994072Y-112342200D01*
X135026500Y-112342200D01*
X135026501Y-115400970D01*
X134896038Y-115508038D01*
X134874000Y-115534891D01*
X134851962Y-115508038D01*
X134721500Y-115400970D01*
X134721500Y-114163611D01*
X134765437Y-114119674D01*
X134878705Y-113950156D01*
X134956726Y-113761798D01*
X134996500Y-113561839D01*
X134996500Y-113357961D01*
X134956726Y-113158002D01*
X134878705Y-112969644D01*
X134765437Y-112800126D01*
X134621274Y-112655963D01*
X134451756Y-112542695D01*
X134263398Y-112464674D01*
X134063439Y-112424900D01*
X133859561Y-112424900D01*
X133659602Y-112464674D01*
X133471244Y-112542695D01*
X133301726Y-112655963D01*
X133157563Y-112800126D01*
X133044295Y-112969644D01*
X132966274Y-113158002D01*
X132926500Y-113357961D01*
X132926500Y-113561839D01*
X132966274Y-113761798D01*
X133044295Y-113950156D01*
X133157563Y-114119674D01*
X133201501Y-114163612D01*
X133201500Y-115400970D01*
X133071038Y-115508038D01*
X132960595Y-115642613D01*
X132878528Y-115796149D01*
X132869473Y-115826000D01*
X131990507Y-115826000D01*
X131981812Y-115737718D01*
X131945502Y-115618020D01*
X131886537Y-115507706D01*
X131807185Y-115411015D01*
X131784259Y-115392200D01*
X131807185Y-115373385D01*
X131886537Y-115276694D01*
X131945502Y-115166380D01*
X131981812Y-115046682D01*
X131994072Y-114922200D01*
X131991000Y-114407950D01*
X131832250Y-114249200D01*
X130683000Y-114249200D01*
X130683000Y-114269200D01*
X130429000Y-114269200D01*
X130429000Y-114249200D01*
X129279750Y-114249200D01*
X129121000Y-114407950D01*
X129117928Y-114922200D01*
X129130188Y-115046682D01*
X129166498Y-115166380D01*
X129225463Y-115276694D01*
X129304815Y-115373385D01*
X129327741Y-115392200D01*
X129304815Y-115411015D01*
X129225463Y-115507706D01*
X129166498Y-115618020D01*
X129130188Y-115737718D01*
X129117928Y-115862200D01*
X129117928Y-117462200D01*
X129130188Y-117586682D01*
X129166498Y-117706380D01*
X129225463Y-117816694D01*
X129304815Y-117913385D01*
X129401506Y-117992737D01*
X129511820Y-118051702D01*
X129631518Y-118088012D01*
X129756000Y-118100272D01*
X131356000Y-118100272D01*
X131480482Y-118088012D01*
X131600180Y-118051702D01*
X131710494Y-117992737D01*
X131807185Y-117913385D01*
X131886537Y-117816694D01*
X131945502Y-117706380D01*
X131981812Y-117586682D01*
X131994072Y-117462200D01*
X131994072Y-117346000D01*
X132869473Y-117346000D01*
X132878528Y-117375851D01*
X132960595Y-117529387D01*
X133071038Y-117663962D01*
X133205613Y-117774405D01*
X133359149Y-117856472D01*
X133525745Y-117907008D01*
X133698999Y-117924072D01*
X134224001Y-117924072D01*
X134397255Y-117907008D01*
X134563851Y-117856472D01*
X134717387Y-117774405D01*
X134851962Y-117663962D01*
X134874000Y-117637109D01*
X134896038Y-117663962D01*
X135026500Y-117771030D01*
X135026501Y-121160000D01*
X131994072Y-121160000D01*
X131994072Y-121120000D01*
X131981812Y-120995518D01*
X131945502Y-120875820D01*
X131886537Y-120765506D01*
X131807185Y-120668815D01*
X131710494Y-120589463D01*
X131600180Y-120530498D01*
X131480482Y-120494188D01*
X131356000Y-120481928D01*
X129756000Y-120481928D01*
X129631518Y-120494188D01*
X129511820Y-120530498D01*
X129401506Y-120589463D01*
X129304815Y-120668815D01*
X129225463Y-120765506D01*
X129166498Y-120875820D01*
X129130188Y-120995518D01*
X129117928Y-121120000D01*
X129117928Y-122720000D01*
X129130188Y-122844482D01*
X129166498Y-122964180D01*
X129225463Y-123074494D01*
X129304815Y-123171185D01*
X129327741Y-123190000D01*
X129304815Y-123208815D01*
X129225463Y-123305506D01*
X129166498Y-123415820D01*
X129130188Y-123535518D01*
X129117928Y-123660000D01*
X129121000Y-124174250D01*
X129279750Y-124333000D01*
X130429000Y-124333000D01*
X130429000Y-124313000D01*
X130683000Y-124313000D01*
X130683000Y-124333000D01*
X131832250Y-124333000D01*
X131991000Y-124174250D01*
X131994072Y-123660000D01*
X131981812Y-123535518D01*
X131945502Y-123415820D01*
X131886537Y-123305506D01*
X131807185Y-123208815D01*
X131784259Y-123190000D01*
X131807185Y-123171185D01*
X131886537Y-123074494D01*
X131945502Y-122964180D01*
X131981812Y-122844482D01*
X131994072Y-122720000D01*
X131994072Y-122680000D01*
X133209089Y-122680000D01*
X133130263Y-122758826D01*
X133016995Y-122928344D01*
X132938974Y-123116702D01*
X132899200Y-123316661D01*
X132899200Y-123520539D01*
X132938974Y-123720498D01*
X133016995Y-123908856D01*
X133130263Y-124078374D01*
X133201501Y-124149612D01*
X133201500Y-125814970D01*
X133071038Y-125922038D01*
X132960595Y-126056613D01*
X132878528Y-126210149D01*
X132869473Y-126240000D01*
X131994072Y-126240000D01*
X131994072Y-126200000D01*
X131981812Y-126075518D01*
X131945502Y-125955820D01*
X131886537Y-125845506D01*
X131807185Y-125748815D01*
X131784259Y-125730000D01*
X131807185Y-125711185D01*
X131886537Y-125614494D01*
X131945502Y-125504180D01*
X131981812Y-125384482D01*
X131994072Y-125260000D01*
X131991000Y-124745750D01*
X131832250Y-124587000D01*
X130683000Y-124587000D01*
X130683000Y-124607000D01*
X130429000Y-124607000D01*
X130429000Y-124587000D01*
X129279750Y-124587000D01*
X129121000Y-124745750D01*
X129117928Y-125260000D01*
X129130188Y-125384482D01*
X129166498Y-125504180D01*
X129225463Y-125614494D01*
X129304815Y-125711185D01*
X129327741Y-125730000D01*
X129304815Y-125748815D01*
X129225463Y-125845506D01*
X129166498Y-125955820D01*
X129130188Y-126075518D01*
X129117928Y-126200000D01*
X129117928Y-127800000D01*
X129130188Y-127924482D01*
X129166498Y-128044180D01*
X129225463Y-128154494D01*
X129304815Y-128251185D01*
X129401506Y-128330537D01*
X129511820Y-128389502D01*
X129631518Y-128425812D01*
X129756000Y-128438072D01*
X131356000Y-128438072D01*
X131480482Y-128425812D01*
X131600180Y-128389502D01*
X131710494Y-128330537D01*
X131807185Y-128251185D01*
X131886537Y-128154494D01*
X131945502Y-128044180D01*
X131981812Y-127924482D01*
X131994072Y-127800000D01*
X131994072Y-127760000D01*
X132869473Y-127760000D01*
X132878528Y-127789851D01*
X132960595Y-127943387D01*
X133071038Y-128077962D01*
X133205613Y-128188405D01*
X133359149Y-128270472D01*
X133525745Y-128321008D01*
X133698999Y-128338072D01*
X134224001Y-128338072D01*
X134397255Y-128321008D01*
X134563851Y-128270472D01*
X134717387Y-128188405D01*
X134851962Y-128077962D01*
X134874000Y-128051109D01*
X134896038Y-128077962D01*
X135026501Y-128185030D01*
X135026500Y-130598698D01*
X134305199Y-131320000D01*
X131994072Y-131320000D01*
X131994072Y-131280000D01*
X131981812Y-131155518D01*
X131945502Y-131035820D01*
X131886537Y-130925506D01*
X131807185Y-130828815D01*
X131710494Y-130749463D01*
X131600180Y-130690498D01*
X131480482Y-130654188D01*
X131356000Y-130641928D01*
X129756000Y-130641928D01*
X129631518Y-130654188D01*
X129511820Y-130690498D01*
X129401506Y-130749463D01*
X129304815Y-130828815D01*
X129225463Y-130925506D01*
X129166498Y-131035820D01*
X129130188Y-131155518D01*
X129117928Y-131280000D01*
X129117928Y-132445001D01*
X128625154Y-132445001D01*
X128703318Y-119289962D01*
X132201499Y-119289962D01*
X132201499Y-119493840D01*
X132241273Y-119693799D01*
X132319294Y-119882157D01*
X132432562Y-120051675D01*
X132576725Y-120195838D01*
X132746243Y-120309106D01*
X132934601Y-120387127D01*
X133134560Y-120426901D01*
X133338438Y-120426901D01*
X133538397Y-120387127D01*
X133726755Y-120309106D01*
X133896273Y-120195838D01*
X134040436Y-120051675D01*
X134153704Y-119882157D01*
X134231725Y-119693799D01*
X134271499Y-119493840D01*
X134271499Y-119289962D01*
X134231725Y-119090003D01*
X134153704Y-118901645D01*
X134040436Y-118732127D01*
X133896273Y-118587964D01*
X133726755Y-118474696D01*
X133538397Y-118396675D01*
X133338438Y-118356901D01*
X133134560Y-118356901D01*
X132934601Y-118396675D01*
X132746243Y-118474696D01*
X132576725Y-118587964D01*
X132432562Y-118732127D01*
X132319294Y-118901645D01*
X132241273Y-119090003D01*
X132201499Y-119289962D01*
X128703318Y-119289962D01*
X128784050Y-105702871D01*
X128796025Y-105725275D01*
G37*
%TD.AperFunction*%
D15*
X135026500Y-102319302D02*
X135026501Y-105240970D01*
X134896038Y-105348038D01*
X134874000Y-105374891D01*
X134851962Y-105348038D01*
X134717387Y-105237595D01*
X134563851Y-105155528D01*
X134397255Y-105104992D01*
X134224001Y-105087928D01*
X133698999Y-105087928D01*
X133525745Y-105104992D01*
X133359149Y-105155528D01*
X133205613Y-105237595D01*
X133071038Y-105348038D01*
X132960595Y-105482613D01*
X132878528Y-105636149D01*
X132869473Y-105666000D01*
X131994072Y-105666000D01*
X131994072Y-105626000D01*
X131981812Y-105501518D01*
X131945502Y-105381820D01*
X131886537Y-105271506D01*
X131807185Y-105174815D01*
X131784259Y-105156000D01*
X131807185Y-105137185D01*
X131886537Y-105040494D01*
X131945502Y-104930180D01*
X131981812Y-104810482D01*
X131994072Y-104686000D01*
X131991000Y-104171750D01*
X131832250Y-104013000D01*
X130683000Y-104013000D01*
X130683000Y-104033000D01*
X130429000Y-104033000D01*
X130429000Y-104013000D01*
X130409000Y-104013000D01*
X130409000Y-103759000D01*
X130429000Y-103759000D01*
X130429000Y-103739000D01*
X130683000Y-103739000D01*
X130683000Y-103759000D01*
X131832250Y-103759000D01*
X131991000Y-103600250D01*
X131994072Y-103086000D01*
X131981812Y-102961518D01*
X131945502Y-102841820D01*
X131886537Y-102731506D01*
X131807185Y-102634815D01*
X131784259Y-102616000D01*
X131807185Y-102597185D01*
X131886537Y-102500494D01*
X131945502Y-102390180D01*
X131981812Y-102270482D01*
X131994072Y-102146000D01*
X131994072Y-102106000D01*
X134813199Y-102106000D01*
X135026500Y-102319302D01*
%TA.AperFunction,Conductor*%
D16*
G36*
X135026500Y-102319302D02*
G01*
X135026501Y-105240970D01*
X134896038Y-105348038D01*
X134874000Y-105374891D01*
X134851962Y-105348038D01*
X134717387Y-105237595D01*
X134563851Y-105155528D01*
X134397255Y-105104992D01*
X134224001Y-105087928D01*
X133698999Y-105087928D01*
X133525745Y-105104992D01*
X133359149Y-105155528D01*
X133205613Y-105237595D01*
X133071038Y-105348038D01*
X132960595Y-105482613D01*
X132878528Y-105636149D01*
X132869473Y-105666000D01*
X131994072Y-105666000D01*
X131994072Y-105626000D01*
X131981812Y-105501518D01*
X131945502Y-105381820D01*
X131886537Y-105271506D01*
X131807185Y-105174815D01*
X131784259Y-105156000D01*
X131807185Y-105137185D01*
X131886537Y-105040494D01*
X131945502Y-104930180D01*
X131981812Y-104810482D01*
X131994072Y-104686000D01*
X131991000Y-104171750D01*
X131832250Y-104013000D01*
X130683000Y-104013000D01*
X130683000Y-104033000D01*
X130429000Y-104033000D01*
X130429000Y-104013000D01*
X130409000Y-104013000D01*
X130409000Y-103759000D01*
X130429000Y-103759000D01*
X130429000Y-103739000D01*
X130683000Y-103739000D01*
X130683000Y-103759000D01*
X131832250Y-103759000D01*
X131991000Y-103600250D01*
X131994072Y-103086000D01*
X131981812Y-102961518D01*
X131945502Y-102841820D01*
X131886537Y-102731506D01*
X131807185Y-102634815D01*
X131784259Y-102616000D01*
X131807185Y-102597185D01*
X131886537Y-102500494D01*
X131945502Y-102390180D01*
X131981812Y-102270482D01*
X131994072Y-102146000D01*
X131994072Y-102106000D01*
X134813199Y-102106000D01*
X135026500Y-102319302D01*
G37*
%TD.AperFunction*%
%TD*%
M02*
