%TF.GenerationSoftware,KiCad,Pcbnew,5.1.9+dfsg1-1*%
%TF.CreationDate,2021-05-25T15:53:09+02:00*%
%TF.ProjectId,i2c-control-interface,6932632d-636f-46e7-9472-6f6c2d696e74,rev?*%
%TF.SameCoordinates,Original*%
%TF.FileFunction,Legend,Top*%
%TF.FilePolarity,Positive*%
%FSLAX46Y46*%
G04 Gerber Fmt 4.6, Leading zero omitted, Abs format (unit mm)*
G04 Created by KiCad (PCBNEW 5.1.9+dfsg1-1) date 2021-05-25 15:53:09*
%MOMM*%
%LPD*%
G01*
G04 APERTURE LIST*
%ADD10C,0.120000*%
%ADD11C,0.150000*%
G04 APERTURE END LIST*
D10*
%TO.C,U4*%
X131886000Y-130690000D02*
X121606000Y-130690000D01*
X131886000Y-138550000D02*
X131886000Y-130690000D01*
X121606000Y-138550000D02*
X131886000Y-138550000D01*
X121606000Y-130690000D02*
X121606000Y-138550000D01*
X129396000Y-130750000D02*
X127746000Y-130750000D01*
X129396000Y-138490000D02*
X129396000Y-130750000D01*
X124096000Y-138490000D02*
X129396000Y-138490000D01*
X124096000Y-130750000D02*
X124096000Y-138490000D01*
X125746000Y-130750000D02*
X124096000Y-130750000D01*
X127746000Y-130750000D02*
G75*
G02*
X125746000Y-130750000I-1000000J0D01*
G01*
%TO.C,U3*%
X131886000Y-120530000D02*
X121606000Y-120530000D01*
X131886000Y-128390000D02*
X131886000Y-120530000D01*
X121606000Y-128390000D02*
X131886000Y-128390000D01*
X121606000Y-120530000D02*
X121606000Y-128390000D01*
X129396000Y-120590000D02*
X127746000Y-120590000D01*
X129396000Y-128330000D02*
X129396000Y-120590000D01*
X124096000Y-128330000D02*
X129396000Y-128330000D01*
X124096000Y-120590000D02*
X124096000Y-128330000D01*
X125746000Y-120590000D02*
X124096000Y-120590000D01*
X127746000Y-120590000D02*
G75*
G02*
X125746000Y-120590000I-1000000J0D01*
G01*
%TO.C,U2*%
X131886000Y-110192200D02*
X121606000Y-110192200D01*
X131886000Y-118052200D02*
X131886000Y-110192200D01*
X121606000Y-118052200D02*
X131886000Y-118052200D01*
X121606000Y-110192200D02*
X121606000Y-118052200D01*
X129396000Y-110252200D02*
X127746000Y-110252200D01*
X129396000Y-117992200D02*
X129396000Y-110252200D01*
X124096000Y-117992200D02*
X129396000Y-117992200D01*
X124096000Y-110252200D02*
X124096000Y-117992200D01*
X125746000Y-110252200D02*
X124096000Y-110252200D01*
X127746000Y-110252200D02*
G75*
G02*
X125746000Y-110252200I-1000000J0D01*
G01*
%TO.C,U1*%
X131886000Y-99956000D02*
X121606000Y-99956000D01*
X131886000Y-107816000D02*
X131886000Y-99956000D01*
X121606000Y-107816000D02*
X131886000Y-107816000D01*
X121606000Y-99956000D02*
X121606000Y-107816000D01*
X129396000Y-100016000D02*
X127746000Y-100016000D01*
X129396000Y-107756000D02*
X129396000Y-100016000D01*
X124096000Y-107756000D02*
X129396000Y-107756000D01*
X124096000Y-100016000D02*
X124096000Y-107756000D01*
X125746000Y-100016000D02*
X124096000Y-100016000D01*
X127746000Y-100016000D02*
G75*
G02*
X125746000Y-100016000I-1000000J0D01*
G01*
%TO.C,R14*%
X116889264Y-129059000D02*
X116435136Y-129059000D01*
X116889264Y-130529000D02*
X116435136Y-130529000D01*
%TO.C,R13*%
X112317264Y-129059000D02*
X111863136Y-129059000D01*
X112317264Y-130529000D02*
X111863136Y-130529000D01*
%TO.C,R12*%
X116889264Y-132488000D02*
X116435136Y-132488000D01*
X116889264Y-133958000D02*
X116435136Y-133958000D01*
%TO.C,R11*%
X112317264Y-132488000D02*
X111863136Y-132488000D01*
X112317264Y-133958000D02*
X111863136Y-133958000D01*
%TO.C,R10*%
X116787664Y-135967800D02*
X116333536Y-135967800D01*
X116787664Y-137437800D02*
X116333536Y-137437800D01*
%TO.C,R9*%
X112215664Y-135967800D02*
X111761536Y-135967800D01*
X112215664Y-137437800D02*
X111761536Y-137437800D01*
%TO.C,R8*%
X134900936Y-137895000D02*
X135355064Y-137895000D01*
X134900936Y-136425000D02*
X135355064Y-136425000D01*
%TO.C,R7*%
X117067064Y-114835000D02*
X116612936Y-114835000D01*
X117067064Y-116305000D02*
X116612936Y-116305000D01*
%TO.C,R6*%
X134646936Y-127735000D02*
X135101064Y-127735000D01*
X134646936Y-126265000D02*
X135101064Y-126265000D01*
%TO.C,R5*%
X117067064Y-112295000D02*
X116612936Y-112295000D01*
X117067064Y-113765000D02*
X116612936Y-113765000D01*
%TO.C,R4*%
X134646936Y-117321000D02*
X135101064Y-117321000D01*
X134646936Y-115851000D02*
X135101064Y-115851000D01*
%TO.C,R3*%
X117067064Y-109755000D02*
X116612936Y-109755000D01*
X117067064Y-111225000D02*
X116612936Y-111225000D01*
%TO.C,R2*%
X134646936Y-107161000D02*
X135101064Y-107161000D01*
X134646936Y-105691000D02*
X135101064Y-105691000D01*
%TO.C,R1*%
X117067064Y-107215000D02*
X116612936Y-107215000D01*
X117067064Y-108685000D02*
X116612936Y-108685000D01*
%TO.C,J2*%
X140148000Y-104334000D02*
X141478000Y-104334000D01*
X140148000Y-105664000D02*
X140148000Y-104334000D01*
X140148000Y-106934000D02*
X142808000Y-106934000D01*
X142808000Y-106934000D02*
X142808000Y-129854000D01*
X140148000Y-106934000D02*
X140148000Y-129854000D01*
X140148000Y-129854000D02*
X142808000Y-129854000D01*
%TO.C,J1*%
X110938000Y-106620000D02*
X112268000Y-106620000D01*
X110938000Y-107950000D02*
X110938000Y-106620000D01*
X110938000Y-109220000D02*
X113598000Y-109220000D01*
X113598000Y-109220000D02*
X113598000Y-127060000D01*
X110938000Y-109220000D02*
X110938000Y-127060000D01*
X110938000Y-127060000D02*
X113598000Y-127060000D01*
%TO.C,U4*%
D11*
X125984095Y-129202380D02*
X125984095Y-130011904D01*
X126031714Y-130107142D01*
X126079333Y-130154761D01*
X126174571Y-130202380D01*
X126365047Y-130202380D01*
X126460285Y-130154761D01*
X126507904Y-130107142D01*
X126555523Y-130011904D01*
X126555523Y-129202380D01*
X127460285Y-129535714D02*
X127460285Y-130202380D01*
X127222190Y-129154761D02*
X126984095Y-129869047D01*
X127603142Y-129869047D01*
%TO.C,U3*%
X125984095Y-119042380D02*
X125984095Y-119851904D01*
X126031714Y-119947142D01*
X126079333Y-119994761D01*
X126174571Y-120042380D01*
X126365047Y-120042380D01*
X126460285Y-119994761D01*
X126507904Y-119947142D01*
X126555523Y-119851904D01*
X126555523Y-119042380D01*
X126936476Y-119042380D02*
X127555523Y-119042380D01*
X127222190Y-119423333D01*
X127365047Y-119423333D01*
X127460285Y-119470952D01*
X127507904Y-119518571D01*
X127555523Y-119613809D01*
X127555523Y-119851904D01*
X127507904Y-119947142D01*
X127460285Y-119994761D01*
X127365047Y-120042380D01*
X127079333Y-120042380D01*
X126984095Y-119994761D01*
X126936476Y-119947142D01*
%TO.C,U2*%
X125984095Y-108704580D02*
X125984095Y-109514104D01*
X126031714Y-109609342D01*
X126079333Y-109656961D01*
X126174571Y-109704580D01*
X126365047Y-109704580D01*
X126460285Y-109656961D01*
X126507904Y-109609342D01*
X126555523Y-109514104D01*
X126555523Y-108704580D01*
X126984095Y-108799819D02*
X127031714Y-108752200D01*
X127126952Y-108704580D01*
X127365047Y-108704580D01*
X127460285Y-108752200D01*
X127507904Y-108799819D01*
X127555523Y-108895057D01*
X127555523Y-108990295D01*
X127507904Y-109133152D01*
X126936476Y-109704580D01*
X127555523Y-109704580D01*
%TO.C,U1*%
X125984095Y-98468380D02*
X125984095Y-99277904D01*
X126031714Y-99373142D01*
X126079333Y-99420761D01*
X126174571Y-99468380D01*
X126365047Y-99468380D01*
X126460285Y-99420761D01*
X126507904Y-99373142D01*
X126555523Y-99277904D01*
X126555523Y-98468380D01*
X127555523Y-99468380D02*
X126984095Y-99468380D01*
X127269809Y-99468380D02*
X127269809Y-98468380D01*
X127174571Y-98611238D01*
X127079333Y-98706476D01*
X126984095Y-98754095D01*
%TO.C,R14*%
X116019342Y-131896380D02*
X115686009Y-131420190D01*
X115447914Y-131896380D02*
X115447914Y-130896380D01*
X115828866Y-130896380D01*
X115924104Y-130944000D01*
X115971723Y-130991619D01*
X116019342Y-131086857D01*
X116019342Y-131229714D01*
X115971723Y-131324952D01*
X115924104Y-131372571D01*
X115828866Y-131420190D01*
X115447914Y-131420190D01*
X116971723Y-131896380D02*
X116400295Y-131896380D01*
X116686009Y-131896380D02*
X116686009Y-130896380D01*
X116590771Y-131039238D01*
X116495533Y-131134476D01*
X116400295Y-131182095D01*
X117828866Y-131229714D02*
X117828866Y-131896380D01*
X117590771Y-130848761D02*
X117352676Y-131563047D01*
X117971723Y-131563047D01*
%TO.C,R13*%
X111447342Y-131896380D02*
X111114009Y-131420190D01*
X110875914Y-131896380D02*
X110875914Y-130896380D01*
X111256866Y-130896380D01*
X111352104Y-130944000D01*
X111399723Y-130991619D01*
X111447342Y-131086857D01*
X111447342Y-131229714D01*
X111399723Y-131324952D01*
X111352104Y-131372571D01*
X111256866Y-131420190D01*
X110875914Y-131420190D01*
X112399723Y-131896380D02*
X111828295Y-131896380D01*
X112114009Y-131896380D02*
X112114009Y-130896380D01*
X112018771Y-131039238D01*
X111923533Y-131134476D01*
X111828295Y-131182095D01*
X112733057Y-130896380D02*
X113352104Y-130896380D01*
X113018771Y-131277333D01*
X113161628Y-131277333D01*
X113256866Y-131324952D01*
X113304485Y-131372571D01*
X113352104Y-131467809D01*
X113352104Y-131705904D01*
X113304485Y-131801142D01*
X113256866Y-131848761D01*
X113161628Y-131896380D01*
X112875914Y-131896380D01*
X112780676Y-131848761D01*
X112733057Y-131801142D01*
%TO.C,R12*%
X116019342Y-135325380D02*
X115686009Y-134849190D01*
X115447914Y-135325380D02*
X115447914Y-134325380D01*
X115828866Y-134325380D01*
X115924104Y-134373000D01*
X115971723Y-134420619D01*
X116019342Y-134515857D01*
X116019342Y-134658714D01*
X115971723Y-134753952D01*
X115924104Y-134801571D01*
X115828866Y-134849190D01*
X115447914Y-134849190D01*
X116971723Y-135325380D02*
X116400295Y-135325380D01*
X116686009Y-135325380D02*
X116686009Y-134325380D01*
X116590771Y-134468238D01*
X116495533Y-134563476D01*
X116400295Y-134611095D01*
X117352676Y-134420619D02*
X117400295Y-134373000D01*
X117495533Y-134325380D01*
X117733628Y-134325380D01*
X117828866Y-134373000D01*
X117876485Y-134420619D01*
X117924104Y-134515857D01*
X117924104Y-134611095D01*
X117876485Y-134753952D01*
X117305057Y-135325380D01*
X117924104Y-135325380D01*
%TO.C,R11*%
X111447342Y-135325380D02*
X111114009Y-134849190D01*
X110875914Y-135325380D02*
X110875914Y-134325380D01*
X111256866Y-134325380D01*
X111352104Y-134373000D01*
X111399723Y-134420619D01*
X111447342Y-134515857D01*
X111447342Y-134658714D01*
X111399723Y-134753952D01*
X111352104Y-134801571D01*
X111256866Y-134849190D01*
X110875914Y-134849190D01*
X112399723Y-135325380D02*
X111828295Y-135325380D01*
X112114009Y-135325380D02*
X112114009Y-134325380D01*
X112018771Y-134468238D01*
X111923533Y-134563476D01*
X111828295Y-134611095D01*
X113352104Y-135325380D02*
X112780676Y-135325380D01*
X113066390Y-135325380D02*
X113066390Y-134325380D01*
X112971152Y-134468238D01*
X112875914Y-134563476D01*
X112780676Y-134611095D01*
%TO.C,R10*%
X115917742Y-138805180D02*
X115584409Y-138328990D01*
X115346314Y-138805180D02*
X115346314Y-137805180D01*
X115727266Y-137805180D01*
X115822504Y-137852800D01*
X115870123Y-137900419D01*
X115917742Y-137995657D01*
X115917742Y-138138514D01*
X115870123Y-138233752D01*
X115822504Y-138281371D01*
X115727266Y-138328990D01*
X115346314Y-138328990D01*
X116870123Y-138805180D02*
X116298695Y-138805180D01*
X116584409Y-138805180D02*
X116584409Y-137805180D01*
X116489171Y-137948038D01*
X116393933Y-138043276D01*
X116298695Y-138090895D01*
X117489171Y-137805180D02*
X117584409Y-137805180D01*
X117679647Y-137852800D01*
X117727266Y-137900419D01*
X117774885Y-137995657D01*
X117822504Y-138186133D01*
X117822504Y-138424228D01*
X117774885Y-138614704D01*
X117727266Y-138709942D01*
X117679647Y-138757561D01*
X117584409Y-138805180D01*
X117489171Y-138805180D01*
X117393933Y-138757561D01*
X117346314Y-138709942D01*
X117298695Y-138614704D01*
X117251076Y-138424228D01*
X117251076Y-138186133D01*
X117298695Y-137995657D01*
X117346314Y-137900419D01*
X117393933Y-137852800D01*
X117489171Y-137805180D01*
%TO.C,R9*%
X111821933Y-138805180D02*
X111488600Y-138328990D01*
X111250504Y-138805180D02*
X111250504Y-137805180D01*
X111631457Y-137805180D01*
X111726695Y-137852800D01*
X111774314Y-137900419D01*
X111821933Y-137995657D01*
X111821933Y-138138514D01*
X111774314Y-138233752D01*
X111726695Y-138281371D01*
X111631457Y-138328990D01*
X111250504Y-138328990D01*
X112298123Y-138805180D02*
X112488600Y-138805180D01*
X112583838Y-138757561D01*
X112631457Y-138709942D01*
X112726695Y-138567085D01*
X112774314Y-138376609D01*
X112774314Y-137995657D01*
X112726695Y-137900419D01*
X112679076Y-137852800D01*
X112583838Y-137805180D01*
X112393361Y-137805180D01*
X112298123Y-137852800D01*
X112250504Y-137900419D01*
X112202885Y-137995657D01*
X112202885Y-138233752D01*
X112250504Y-138328990D01*
X112298123Y-138376609D01*
X112393361Y-138424228D01*
X112583838Y-138424228D01*
X112679076Y-138376609D01*
X112726695Y-138328990D01*
X112774314Y-138233752D01*
%TO.C,R8*%
X134961333Y-135962380D02*
X134628000Y-135486190D01*
X134389904Y-135962380D02*
X134389904Y-134962380D01*
X134770857Y-134962380D01*
X134866095Y-135010000D01*
X134913714Y-135057619D01*
X134961333Y-135152857D01*
X134961333Y-135295714D01*
X134913714Y-135390952D01*
X134866095Y-135438571D01*
X134770857Y-135486190D01*
X134389904Y-135486190D01*
X135532761Y-135390952D02*
X135437523Y-135343333D01*
X135389904Y-135295714D01*
X135342285Y-135200476D01*
X135342285Y-135152857D01*
X135389904Y-135057619D01*
X135437523Y-135010000D01*
X135532761Y-134962380D01*
X135723238Y-134962380D01*
X135818476Y-135010000D01*
X135866095Y-135057619D01*
X135913714Y-135152857D01*
X135913714Y-135200476D01*
X135866095Y-135295714D01*
X135818476Y-135343333D01*
X135723238Y-135390952D01*
X135532761Y-135390952D01*
X135437523Y-135438571D01*
X135389904Y-135486190D01*
X135342285Y-135581428D01*
X135342285Y-135771904D01*
X135389904Y-135867142D01*
X135437523Y-135914761D01*
X135532761Y-135962380D01*
X135723238Y-135962380D01*
X135818476Y-135914761D01*
X135866095Y-135867142D01*
X135913714Y-135771904D01*
X135913714Y-135581428D01*
X135866095Y-135486190D01*
X135818476Y-135438571D01*
X135723238Y-135390952D01*
%TO.C,R7*%
X119467333Y-116022380D02*
X119134000Y-115546190D01*
X118895904Y-116022380D02*
X118895904Y-115022380D01*
X119276857Y-115022380D01*
X119372095Y-115070000D01*
X119419714Y-115117619D01*
X119467333Y-115212857D01*
X119467333Y-115355714D01*
X119419714Y-115450952D01*
X119372095Y-115498571D01*
X119276857Y-115546190D01*
X118895904Y-115546190D01*
X119800666Y-115022380D02*
X120467333Y-115022380D01*
X120038761Y-116022380D01*
%TO.C,R6*%
X134707333Y-125802380D02*
X134374000Y-125326190D01*
X134135904Y-125802380D02*
X134135904Y-124802380D01*
X134516857Y-124802380D01*
X134612095Y-124850000D01*
X134659714Y-124897619D01*
X134707333Y-124992857D01*
X134707333Y-125135714D01*
X134659714Y-125230952D01*
X134612095Y-125278571D01*
X134516857Y-125326190D01*
X134135904Y-125326190D01*
X135564476Y-124802380D02*
X135374000Y-124802380D01*
X135278761Y-124850000D01*
X135231142Y-124897619D01*
X135135904Y-125040476D01*
X135088285Y-125230952D01*
X135088285Y-125611904D01*
X135135904Y-125707142D01*
X135183523Y-125754761D01*
X135278761Y-125802380D01*
X135469238Y-125802380D01*
X135564476Y-125754761D01*
X135612095Y-125707142D01*
X135659714Y-125611904D01*
X135659714Y-125373809D01*
X135612095Y-125278571D01*
X135564476Y-125230952D01*
X135469238Y-125183333D01*
X135278761Y-125183333D01*
X135183523Y-125230952D01*
X135135904Y-125278571D01*
X135088285Y-125373809D01*
%TO.C,R5*%
X119568933Y-113533180D02*
X119235600Y-113056990D01*
X118997504Y-113533180D02*
X118997504Y-112533180D01*
X119378457Y-112533180D01*
X119473695Y-112580800D01*
X119521314Y-112628419D01*
X119568933Y-112723657D01*
X119568933Y-112866514D01*
X119521314Y-112961752D01*
X119473695Y-113009371D01*
X119378457Y-113056990D01*
X118997504Y-113056990D01*
X120473695Y-112533180D02*
X119997504Y-112533180D01*
X119949885Y-113009371D01*
X119997504Y-112961752D01*
X120092742Y-112914133D01*
X120330838Y-112914133D01*
X120426076Y-112961752D01*
X120473695Y-113009371D01*
X120521314Y-113104609D01*
X120521314Y-113342704D01*
X120473695Y-113437942D01*
X120426076Y-113485561D01*
X120330838Y-113533180D01*
X120092742Y-113533180D01*
X119997504Y-113485561D01*
X119949885Y-113437942D01*
%TO.C,R4*%
X134707333Y-115388380D02*
X134374000Y-114912190D01*
X134135904Y-115388380D02*
X134135904Y-114388380D01*
X134516857Y-114388380D01*
X134612095Y-114436000D01*
X134659714Y-114483619D01*
X134707333Y-114578857D01*
X134707333Y-114721714D01*
X134659714Y-114816952D01*
X134612095Y-114864571D01*
X134516857Y-114912190D01*
X134135904Y-114912190D01*
X135564476Y-114721714D02*
X135564476Y-115388380D01*
X135326380Y-114340761D02*
X135088285Y-115055047D01*
X135707333Y-115055047D01*
%TO.C,R3*%
X119568933Y-110993180D02*
X119235600Y-110516990D01*
X118997504Y-110993180D02*
X118997504Y-109993180D01*
X119378457Y-109993180D01*
X119473695Y-110040800D01*
X119521314Y-110088419D01*
X119568933Y-110183657D01*
X119568933Y-110326514D01*
X119521314Y-110421752D01*
X119473695Y-110469371D01*
X119378457Y-110516990D01*
X118997504Y-110516990D01*
X119902266Y-109993180D02*
X120521314Y-109993180D01*
X120187980Y-110374133D01*
X120330838Y-110374133D01*
X120426076Y-110421752D01*
X120473695Y-110469371D01*
X120521314Y-110564609D01*
X120521314Y-110802704D01*
X120473695Y-110897942D01*
X120426076Y-110945561D01*
X120330838Y-110993180D01*
X120045123Y-110993180D01*
X119949885Y-110945561D01*
X119902266Y-110897942D01*
%TO.C,R2*%
X134707333Y-105228380D02*
X134374000Y-104752190D01*
X134135904Y-105228380D02*
X134135904Y-104228380D01*
X134516857Y-104228380D01*
X134612095Y-104276000D01*
X134659714Y-104323619D01*
X134707333Y-104418857D01*
X134707333Y-104561714D01*
X134659714Y-104656952D01*
X134612095Y-104704571D01*
X134516857Y-104752190D01*
X134135904Y-104752190D01*
X135088285Y-104323619D02*
X135135904Y-104276000D01*
X135231142Y-104228380D01*
X135469238Y-104228380D01*
X135564476Y-104276000D01*
X135612095Y-104323619D01*
X135659714Y-104418857D01*
X135659714Y-104514095D01*
X135612095Y-104656952D01*
X135040666Y-105228380D01*
X135659714Y-105228380D01*
%TO.C,R1*%
X119645133Y-108351580D02*
X119311800Y-107875390D01*
X119073704Y-108351580D02*
X119073704Y-107351580D01*
X119454657Y-107351580D01*
X119549895Y-107399200D01*
X119597514Y-107446819D01*
X119645133Y-107542057D01*
X119645133Y-107684914D01*
X119597514Y-107780152D01*
X119549895Y-107827771D01*
X119454657Y-107875390D01*
X119073704Y-107875390D01*
X120597514Y-108351580D02*
X120026085Y-108351580D01*
X120311800Y-108351580D02*
X120311800Y-107351580D01*
X120216561Y-107494438D01*
X120121323Y-107589676D01*
X120026085Y-107637295D01*
%TO.C,J2*%
X141144666Y-102786380D02*
X141144666Y-103500666D01*
X141097047Y-103643523D01*
X141001809Y-103738761D01*
X140858952Y-103786380D01*
X140763714Y-103786380D01*
X141573238Y-102881619D02*
X141620857Y-102834000D01*
X141716095Y-102786380D01*
X141954190Y-102786380D01*
X142049428Y-102834000D01*
X142097047Y-102881619D01*
X142144666Y-102976857D01*
X142144666Y-103072095D01*
X142097047Y-103214952D01*
X141525619Y-103786380D01*
X142144666Y-103786380D01*
%TO.C,J1*%
X111934666Y-105072380D02*
X111934666Y-105786666D01*
X111887047Y-105929523D01*
X111791809Y-106024761D01*
X111648952Y-106072380D01*
X111553714Y-106072380D01*
X112934666Y-106072380D02*
X112363238Y-106072380D01*
X112648952Y-106072380D02*
X112648952Y-105072380D01*
X112553714Y-105215238D01*
X112458476Y-105310476D01*
X112363238Y-105358095D01*
%TD*%
M02*
